<svg width="67" height="81" viewBox="0 0 67 81" fill="none" xmlns="http://www.w3.org/2000/svg">
<g clip-path="url(#clip0_7_394)">
<path d="M21.7785 40.2569V32.5639C18.716 32.6312 16.0951 35.1292 15.4906 38.5845C12.7627 54.165 0.265411 63.4793 0.265411 74.7848V77.3362C0.265411 78.9743 1.58643 80.303 3.21661 80.303H25.3713C25.3713 78.2759 25.9489 76.3987 26.8356 74.9581C27.7791 73.4253 27.878 71.5211 27.1972 69.8531C24.0365 62.1045 21.7785 43.8321 21.7785 40.2569V40.2569Z" fill="#4C969C"/>
<path opacity="0.5" d="M1.39075 77.9366V75.312C1.39075 63.6818 13.8881 54.1 16.6159 38.0719C16.9782 35.9446 18.0621 34.1713 19.53 33.0743C17.5012 33.9804 15.9394 36.0177 15.4906 38.5845C12.7627 54.165 0.265411 63.4793 0.265411 74.7848V77.3362C0.265411 78.6649 1.13469 79.7896 2.33205 80.167C1.75447 79.6097 1.39075 78.8178 1.39075 77.9366Z" fill="white"/>
<g style="mix-blend-mode:multiply">
<path d="M7.11711 80.3022H25.3713C25.3713 78.2751 25.9489 76.398 26.8356 74.9574C27.7791 73.4246 27.878 71.5204 27.1972 69.8523C24.9232 64.2771 23.1163 53.2531 22.2812 46.1758C14.059 53.2758 8.25554 65.7484 7.11638 80.3015L7.11711 80.3022Z" fill="#CCCCCC"/>
</g>
<path d="M44.7523 40.2569V32.5639C47.8148 32.6312 50.4357 35.1292 51.0402 38.5845C53.7681 54.165 66.2654 63.4793 66.2654 74.7848V77.3362C66.2654 78.9743 64.9444 80.303 63.3142 80.303H41.1595C41.1595 78.2759 40.5819 76.3987 39.6952 74.9581C38.7517 73.4253 38.6528 71.5211 39.3337 69.8531C42.4944 62.1045 44.7523 43.8321 44.7523 40.2569V40.2569Z" fill="#65C8D0"/>
<path opacity="0.5" d="M65.1401 77.9366V75.312C65.1401 63.6818 52.6428 54.1 49.9149 38.0719C49.5526 35.9446 48.4688 34.1713 47.0008 33.0743C49.0296 33.9804 50.5914 36.0177 51.0402 38.5845C53.7681 54.165 66.2654 63.4793 66.2654 74.7848V77.3362C66.2654 78.6649 65.3961 79.7896 64.1988 80.167C64.7764 79.6097 65.1401 78.8178 65.1401 77.9366Z" fill="white"/>
<g style="mix-blend-mode:multiply">
<path d="M59.4137 80.3022H41.1595C41.1595 78.2751 40.5819 76.398 39.6952 74.9574C38.7517 73.4246 38.6528 71.5204 39.3337 69.8523C41.6076 64.2771 43.4146 53.2531 44.2497 46.1758C52.4718 53.2758 58.2753 65.7484 59.4144 80.3015L59.4137 80.3022Z" fill="#CCCCCC"/>
</g>
<g style="mix-blend-mode:multiply">
<path d="M48.5393 49.0958V36.4923C48.5393 34.3862 46.8888 32.6268 44.7945 32.5646C44.7807 32.5646 44.7661 32.5639 44.7523 32.5639V40.2569C44.7523 43.8314 42.4936 62.1052 39.3337 69.8531C38.6499 71.5299 48.5393 52.8656 48.5393 49.0951V49.0958Z" fill="#808080"/>
</g>
<path d="M47.2736 28.7057C47.2736 17.7753 41.0024 0.302246 33.2654 0.302246C25.5284 0.302246 19.2572 17.7753 19.2572 28.7057C19.2572 36.4674 22.4201 51.8549 27.0233 60.1242H39.5075C44.1114 51.8549 47.2736 36.4674 47.2736 28.7057V28.7057Z" fill="#65C8D0"/>
<path d="M21.697 45.4029C23.0428 50.8611 24.8759 56.2674 27.024 60.1242H39.5082C41.6556 56.2667 43.4895 50.8611 44.8352 45.4029C41.2039 45.9184 37.3128 46.1985 33.2661 46.1985C29.2194 46.1985 25.3291 45.9192 21.6978 45.4029H21.697Z" fill="#838BC5"/>
<path d="M45.4455 16.7815C43.0356 8.25194 38.484 0.302246 33.2654 0.302246C28.0468 0.302246 23.4953 8.25194 21.0853 16.7815C24.8905 16.2082 28.991 15.8952 33.2654 15.8952C37.5398 15.8952 41.6403 16.2082 45.4455 16.7815V16.7815Z" fill="#838BC5"/>
<g style="mix-blend-mode:multiply">
<path d="M47.2736 28.7057C47.2736 17.7753 41.0024 0.302246 33.2654 0.302246C33.2567 0.302246 33.248 0.302977 33.24 0.302977V60.1242H39.5075C44.1114 51.8549 47.2736 36.4674 47.2736 28.7057V28.7057Z" fill="#E6E6E6"/>
</g>
<path opacity="0.5" d="M27.0291 4.11804C22.4223 9.87683 19.2572 20.941 19.2572 28.7057C19.2572 36.4704 22.4208 51.8557 27.0248 60.1242H27.323C23.7368 51.1566 21.321 36.2166 21.321 28.4739C21.321 20.7311 23.6051 10.4721 27.0291 4.11804V4.11804Z" fill="white"/>
<path opacity="0.5" d="M47.2736 28.7057C47.2736 20.941 44.1085 9.87683 39.5017 4.11804C42.9257 10.4721 45.2099 20.9454 45.2099 28.4739C45.2099 36.0024 42.7941 51.1566 39.2078 60.1242H39.5061C44.1107 51.8549 47.2736 36.4682 47.2736 28.7057V28.7057Z" fill="white"/>
<g style="mix-blend-mode:multiply">
<path d="M31.433 47.9697C35.7714 47.9697 39.9723 48.2154 43.9652 48.6739C44.222 47.7744 44.4664 46.8655 44.697 45.9536H21.8345C22.0353 46.7484 22.247 47.5404 22.4674 48.3265C25.3713 48.0933 28.3676 47.9697 31.433 47.9697Z" fill="#999999"/>
</g>
<path d="M24.4271 54.3712C25.2244 56.4978 26.0944 58.4561 27.0233 60.1249H39.5075C40.4364 58.4568 41.3065 56.4985 42.1037 54.3712H24.4278H24.4271Z" fill="black"/>
<path d="M44.729 44.989H21.8025C21.3216 44.989 20.9318 45.3809 20.9318 45.8643V45.879C20.9318 46.3624 21.3216 46.7543 21.8025 46.7543H44.729C45.2099 46.7543 45.5998 46.3624 45.5998 45.879V45.8643C45.5998 45.3809 45.2099 44.989 44.729 44.989Z" fill="#838BC5"/>
<g style="mix-blend-mode:multiply">
<path d="M44.6919 46.7543H21.8389C21.8338 46.7543 21.8287 46.7543 21.8236 46.7543C21.2278 46.7448 21.2424 45.8658 21.8382 45.8548C26.2879 45.7729 45.599 45.4409 45.599 45.8717C45.599 46.3594 45.1924 46.7543 44.6912 46.7543H44.6919Z" fill="#B3B3B3"/>
</g>
<g style="mix-blend-mode:multiply">
<path d="M28.4869 23.9656C28.4869 25.1568 28.7321 26.2837 29.1692 27.29C29.8385 28.8308 31.6192 29.8304 33.568 29.8304H35.1371C37.0859 29.8304 38.8666 28.8315 39.5359 27.29C39.9731 26.2837 40.2182 25.1561 40.2182 23.9656C40.2182 22.7751 39.9731 21.6475 39.5359 20.6412C38.8666 19.1004 37.0859 18.1008 35.1371 18.1008H33.568C31.6192 18.1008 29.8385 19.0997 29.1692 20.6412C28.7321 21.6475 28.4869 22.7751 28.4869 23.9656V23.9656Z" fill="#666666"/>
</g>
<g style="mix-blend-mode:multiply">
<path d="M26.3133 23.9656C26.3133 25.1568 26.5585 26.2837 26.9957 27.29C27.6649 28.8308 29.4457 29.8304 31.3945 29.8304H32.9635C34.9123 29.8304 36.6931 28.8315 37.3623 27.29C37.7995 26.2837 38.0447 25.1561 38.0447 23.9656C38.0447 22.7751 37.7995 21.6475 37.3623 20.6412C36.6931 19.1004 34.9123 18.1008 32.9635 18.1008H31.3945C29.4457 18.1008 27.6649 19.0997 26.9957 20.6412C26.5585 21.6475 26.3133 22.7751 26.3133 23.9656V23.9656Z" fill="#CCCCCC"/>
</g>
<path d="M27.4001 23.031C27.4001 24.2223 27.6453 25.3492 28.0825 26.3554C28.7517 27.8962 30.5325 28.8958 32.4813 28.8958H34.0503C35.9991 28.8958 37.7799 27.8969 38.4491 26.3554C38.8863 25.3492 39.1314 24.2215 39.1314 23.031C39.1314 21.8405 38.8863 20.7129 38.4491 19.7066C37.7799 18.1659 35.9991 17.1662 34.0503 17.1662H32.4813C30.5325 17.1662 28.7517 18.1651 28.0825 19.7066C27.6453 20.7129 27.4001 21.8405 27.4001 23.031Z" fill="url(#paint0_linear_7_394)"/>
<path d="M27.6969 23.031C27.6969 24.1616 27.9297 25.2321 28.3443 26.1872C28.9801 27.6505 30.6707 28.5989 32.5205 28.5989H34.0096C35.8595 28.5989 37.55 27.6505 38.1858 26.1872C38.6011 25.2321 38.8332 24.1616 38.8332 23.031C38.8332 21.9004 38.6004 20.8299 38.1858 19.8748C37.55 18.4115 35.8595 17.4631 34.0096 17.4631H32.5205C30.6707 17.4631 28.9801 18.4115 28.3443 19.8748C27.929 20.8299 27.6969 21.9004 27.6969 23.031V23.031Z" fill="url(#paint1_linear_7_394)"/>
<path d="M28.241 23.031C28.241 24.0511 28.4513 25.0171 28.8252 25.8786C29.3991 27.1985 30.9238 28.0549 32.5933 28.0549H33.9376C35.607 28.0549 37.1325 27.1993 37.7057 25.8786C38.0803 25.0164 38.2898 24.0511 38.2898 23.031C38.2898 22.0109 38.0796 21.0449 37.7057 20.1834C37.1317 18.8635 35.607 18.0071 33.9376 18.0071H32.5933C30.9238 18.0071 29.3984 18.8627 28.8252 20.1834C28.4505 21.0456 28.241 22.0109 28.241 23.031V23.031Z" fill="black"/>
<path d="M28.5538 23.031C28.5538 23.9875 28.751 24.8936 29.1016 25.7016C29.6392 26.9397 31.07 27.7419 32.6355 27.7419H33.8954C35.4608 27.7419 36.891 26.9397 37.4293 25.7016C37.7806 24.8936 37.977 23.9875 37.977 23.031C37.977 22.0745 37.7799 21.1684 37.4293 20.3604C36.8917 19.1223 35.4608 18.3201 33.8954 18.3201H32.6355C31.07 18.3201 29.6399 19.1223 29.1016 20.3604C28.7503 21.1684 28.5538 22.0745 28.5538 23.031V23.031Z" fill="#0071BC"/>
<path opacity="0.3" d="M32.3038 21.959H34.2278C35.623 21.959 36.9455 22.2478 37.9697 22.7458C37.9348 21.8946 37.745 21.088 37.4292 20.3604C36.8917 19.1223 35.4608 18.3201 33.8954 18.3201H32.6355C31.07 18.3201 29.6399 19.1223 29.1016 20.3604C28.7859 21.088 28.596 21.8946 28.5611 22.7458C29.5861 22.2478 30.9085 21.959 32.3038 21.959V21.959Z" fill="white"/>
<path opacity="0.3" d="M29.4559 24.9601C29.4559 24.0036 29.6915 23.0975 30.112 22.2895C30.7558 21.0514 32.4682 20.2492 34.3427 20.2492H35.8514C36.4138 20.2492 36.9601 20.3231 37.4693 20.4569C37.4562 20.4247 37.4438 20.3918 37.43 20.3604C36.8924 19.1223 35.4615 18.3201 33.8961 18.3201H32.6362C31.0708 18.3201 29.6406 19.1223 29.1023 20.3604C28.751 21.1684 28.5546 22.0745 28.5546 23.031C28.5546 23.9875 28.7517 24.8936 29.1023 25.7016C29.242 26.0226 29.442 26.313 29.6879 26.5689C29.5381 26.0556 29.4566 25.5173 29.4566 24.9601H29.4559Z" fill="white"/>
<path style="mix-blend-mode:multiply" d="M39.5075 60.1242C41.0933 57.2759 42.5082 53.5829 43.6815 49.6479C41.8739 45.9989 40.3426 42.0332 39.5781 37.5629C38.9729 34.0228 36.3526 31.4641 33.2901 31.3946V39.2763C33.2901 41.0906 33.2858 50.6688 33.2814 60.1242H39.5075Z" fill="url(#paint2_linear_7_394)"/>
<path d="M36.2137 80.3022H30.3171V48.0625C30.3171 45.9652 31.6374 31.3946 33.2654 31.3946C34.8941 31.3946 36.2137 45.9652 36.2137 48.0625V80.3022V80.3022Z" fill="#65C8D0"/>
<g style="mix-blend-mode:multiply">
<path d="M36.2137 48.0625C36.2137 46.4084 35.3924 36.9961 34.2467 33.0926C34.1492 32.7606 33.7666 47.9207 33.7666 48.2761V80.303H36.2137V48.0633V48.0625Z" fill="#B3B3B3"/>
</g>
<path opacity="0.5" d="M31.625 47.2771C31.625 45.5367 32.3248 35.9972 33.3207 31.4026C33.3025 31.399 33.2836 31.3946 33.2654 31.3946C31.6367 31.3946 30.3171 45.9652 30.3171 48.0625V80.3022H31.625V47.2764V47.2771Z" fill="white"/>
</g>
<defs>
<linearGradient id="paint0_linear_7_394" x1="33.2654" y1="28.8951" x2="33.2654" y2="17.1662" gradientUnits="userSpaceOnUse">
<stop stop-color="#808285"/>
<stop offset="0.24" stop-color="#87898C"/>
<stop offset="0.6" stop-color="#9C9EA1"/>
<stop offset="1" stop-color="#BCBEC0"/>
</linearGradient>
<linearGradient id="paint1_linear_7_394" x1="33.2654" y1="28.5982" x2="33.2654" y2="17.4631" gradientUnits="userSpaceOnUse">
<stop stop-color="#BCBEC0"/>
<stop offset="0.4" stop-color="#9C9EA1"/>
<stop offset="0.76" stop-color="#87898C"/>
<stop offset="1" stop-color="#808285"/>
</linearGradient>
<linearGradient id="paint2_linear_7_394" x1="33.2814" y1="45.7598" x2="43.6815" y2="45.7598" gradientUnits="userSpaceOnUse">
<stop/>
<stop offset="0.1" stop-color="#050505"/>
<stop offset="0.22" stop-color="#141414"/>
<stop offset="0.36" stop-color="#2E2E2E"/>
<stop offset="0.51" stop-color="#515151"/>
<stop offset="0.66" stop-color="#7F7F7F"/>
<stop offset="0.82" stop-color="#B6B6B6"/>
<stop offset="0.98" stop-color="#F7F7F7"/>
<stop offset="1" stop-color="white"/>
</linearGradient>
<clipPath id="clip0_7_394">
<rect width="66" height="80" fill="white" transform="translate(0.265411 0.302246)"/>
</clipPath>
</defs>
</svg>
