<svg width="77" height="99" viewBox="0 0 77 99" fill="none" xmlns="http://www.w3.org/2000/svg">
<g clip-path="url(#clip0_7_268)">
<path d="M35.9503 89.7231H31.8768V92.3617H35.9503V89.7231Z" fill="#999999"/>
<path d="M34.2531 89.7231H33.5207V92.3617H34.2531V89.7231Z" fill="#414042"/>
<path d="M32.8318 89.7231H32.4762V92.3617H32.8318V89.7231Z" fill="#E6E7E8"/>
<path d="M35.5823 89.7231H35.052V92.3617H35.5823V89.7231Z" fill="#666666"/>
<path d="M34.7656 89.7231H34.0997V92.3617H34.7656V89.7231Z" fill="#333333"/>
<path d="M32.3476 89.7231H31.8768V92.3617H32.3476V89.7231Z" fill="#CCCCCC"/>
<path d="M31.8768 92.1917L30.2462 95.6195H37.5818L35.9503 92.1917H31.8768Z" fill="#B3B3B3"/>
<path d="M33.5207 92.1917L33.2051 95.6195H34.5236L34.2523 92.1917H33.5207Z" fill="#666666"/>
<path d="M32.4762 92.1917L31.3262 95.6195H31.9664L32.8327 92.1917H32.4762Z" fill="#E6E7E8"/>
<path d="M35.052 92.1917L35.9636 95.6195H36.9194L35.5832 92.1917H35.052Z" fill="#808080"/>
<path d="M34.0997 92.1917L34.2478 95.6195H35.4466L34.7656 92.1917H34.0997Z" fill="#4D4D4D"/>
<path d="M31.8768 92.1917L30.2462 95.6195H31.093L32.3476 92.1917H31.8768Z" fill="#CCCCCC"/>
<g style="mix-blend-mode:multiply">
<path d="M35.9503 89.7231H31.8768V90.894H35.9503V89.7231Z" fill="#999999"/>
</g>
<path d="M44.1672 89.7231H40.0938V92.3617H44.1672V89.7231Z" fill="#999999"/>
<path d="M42.4701 89.7231H41.7377V92.3617H42.4701V89.7231Z" fill="#414042"/>
<path d="M41.0496 89.7231H40.6941V92.3617H41.0496V89.7231Z" fill="#E6E7E8"/>
<path d="M43.7992 89.7231H43.269V92.3617H43.7992V89.7231Z" fill="#666666"/>
<path d="M42.9826 89.7231H42.3167V92.3617H42.9826V89.7231Z" fill="#333333"/>
<path d="M40.5646 89.7231H40.0938V92.3617H40.5646V89.7231Z" fill="#CCCCCC"/>
<path d="M40.0938 92.1917L38.4631 95.6195H45.7987L44.1681 92.1917H40.0938Z" fill="#B3B3B3"/>
<path d="M41.7377 92.1917L41.4229 95.6195H42.7414L42.4692 92.1917H41.7377Z" fill="#666666"/>
<path d="M40.6941 92.1917L39.5431 95.6195H40.1842L41.0496 92.1917H40.6941Z" fill="#E6E7E8"/>
<path d="M43.269 92.1917L44.1805 95.6195H45.1364L43.8001 92.1917H43.269Z" fill="#808080"/>
<path d="M42.3167 92.1917L42.4657 95.6195H43.6645L42.9826 92.1917H42.3167Z" fill="#4D4D4D"/>
<path d="M40.0938 92.1917L38.4631 95.6195H39.3099L40.5646 92.1917H40.0938Z" fill="#CCCCCC"/>
<g style="mix-blend-mode:multiply">
<path d="M44.1672 89.7231H40.0938V90.894H44.1672V89.7231Z" fill="#999999"/>
</g>
<path d="M41.203 2.21486C40.1833 1.37871 39.1202 0.718818 38.0225 0.27594C36.9247 0.718818 35.8616 1.37871 34.8419 2.21486C27.9248 7.87572 22.9975 21.5916 22.9975 30.5165V56.9696C22.9975 61.5366 26.7039 90.0774 31.2756 90.0774H44.7666C49.3384 90.0774 53.0448 61.5366 53.0448 56.9696V30.5165C53.0448 21.5916 48.1183 7.87572 41.2021 2.21486H41.203Z" fill="#E6E6E6"/>
<path d="M38.0677 20.2435C42.8647 20.2435 47.5003 20.7599 51.8859 21.7192C50.0185 14.216 46.1295 6.2105 41.2482 2.21486C40.2285 1.37871 39.1654 0.718818 38.0677 0.27594C36.97 0.718818 35.9068 1.37871 34.8871 2.21486C30.0059 6.20962 26.116 14.216 24.2486 21.7192C28.6333 20.7599 33.2698 20.2435 38.0668 20.2435H38.0677Z" fill="#FF0000"/>
<path d="M26.2366 79.0914C27.6322 85.1659 29.3799 90.0783 31.2765 90.0783H44.7675C46.6641 90.0783 48.4118 85.1659 49.8075 79.0914H26.2366Z" fill="#333333"/>
<path d="M28.2157 85.9808C29.1627 88.4795 30.1956 90.0774 31.2765 90.0774H44.7675C45.8493 90.0774 46.8814 88.4786 47.8284 85.9808H28.2148H28.2157Z" fill="black"/>
<g style="mix-blend-mode:multiply">
<path d="M40.7375 2.21498C39.8677 1.37883 38.9597 0.71894 38.0225 0.276062C37.0861 0.71894 36.1781 1.37883 35.3074 2.21498C29.4021 7.87584 25.1965 21.5918 25.1965 30.5166V56.9697C25.1965 61.5367 28.3602 90.0775 32.2634 90.0775H43.7806C47.6838 90.0775 50.8476 61.5367 50.8476 56.9697V30.5166C50.8476 21.5918 46.642 7.87584 40.7375 2.21498V2.21498Z" fill="#E6E6E6"/>
</g>
<g style="mix-blend-mode:multiply">
<path d="M40.0468 2.21484C39.505 1.51687 38.9437 0.943781 38.3674 0.515076C40.6329 8.65871 42.0489 19.0008 42.0489 26.6006V60.1202C42.0489 63.7102 41.141 78.993 39.7568 90.0782H42.3158C45.2259 90.0782 47.5845 61.5374 47.5845 56.9705V30.5165C47.5845 21.5916 44.4483 7.8757 40.0468 2.21484V2.21484Z" fill="#E6E6E6"/>
</g>
<path d="M28.7787 57.3743V30.0133C28.7787 20.7829 32.6128 6.5966 37.9967 0.740871C38.0269 0.708098 38.057 0.676211 38.0863 0.643438C38.1918 0.530947 38.1626 0.347595 38.026 0.276735L38.0234 0.274963C37.1695 0.717841 36.3413 1.37773 35.5486 2.21388C30.1655 7.87475 26.3306 21.5907 26.3306 30.5155V56.9686C26.3306 61.5356 29.215 90.0764 32.7733 90.0764H33.7947C30.9227 83.9514 28.7787 61.4461 28.7787 57.3725V57.3743Z" fill="url(#paint0_linear_7_268)"/>
<path d="M38.4889 43.3998H37.5552V90.0774H38.4889V43.3998Z" fill="black"/>
<path style="mix-blend-mode:multiply" d="M25.1965 54.9997C25.1965 54.9997 23.0126 72.1825 28.2928 77.7556C30.7073 80.304 32.4097 85.351 33.5456 90.0783H44.7666C47.0481 90.0783 49.1141 82.971 50.6117 75.2826C41.9833 62.5171 25.1965 54.9997 25.1965 54.9997V54.9997Z" fill="url(#paint1_linear_7_268)"/>
<path d="M26.0895 55.812C26.0283 55.1264 25.2463 54.7677 24.6841 55.1654C16.977 60.6128 5.70895 69.9743 5.70895 78.1525V91.9127H10.083C10.083 91.9127 18.0543 80.0905 28.2947 77.7557C28.9234 77.6122 29.3189 76.9939 29.1823 76.3641C27.6466 69.318 26.5276 60.7279 26.0904 55.812H26.0895Z" fill="#BF0000"/>
<path opacity="0.5" d="M6.73825 78.9233C6.73825 70.6095 18.1686 61.0948 26.0193 55.5402C25.8065 55.0406 25.1646 54.8254 24.6831 55.1664C16.976 60.6138 5.70792 69.9753 5.70792 78.1535V91.9137H6.73825V78.9241V78.9233Z" fill="white"/>
<g style="mix-blend-mode:multiply">
<path d="M14.8284 63.1097C9.84965 67.8015 5.70792 73.1949 5.70792 78.1525V91.9127H10.082C10.082 91.9127 13.2944 87.1491 18.2599 83.0728C18.5073 76.2383 17.6188 69.403 14.8284 63.1106V63.1097Z" fill="#808080"/>
</g>
<path d="M9.32118 91.9127H9.98797V87.6416C9.98797 80.0152 20.2381 71.1922 27.3263 66.0026C27.2891 65.7528 27.2527 65.5048 27.2173 65.2568C22.6818 68.5491 18.9134 71.7875 16.0077 74.8965C11.5707 79.6423 9.3203 83.9312 9.3203 87.6416V91.9127H9.32118Z" fill="black"/>
<path d="M0.71674 96.0607C0.71674 96.6045 1.13969 97.4407 1.865 98.2759H13.2129C13.9382 97.4407 14.3611 96.6045 14.3611 96.0607V91.0065H0.71674V96.0607Z" fill="#C69C6D"/>
<g style="mix-blend-mode:multiply">
<path d="M7.91401 91.0065L7.91401 98.2759H11.3012V91.0065H7.91401Z" fill="#B3B3B3"/>
</g>
<path opacity="0.2" d="M3.59316 91.0065L3.59316 98.2759H6.69569V91.0065H3.59316Z" fill="#E6E7E8"/>
<path opacity="0.5" d="M2.29239 96.5283V91.0065H0.71674V96.0607C0.71674 96.6045 1.13969 97.4407 1.865 98.2759H2.6444C2.4183 97.6036 2.29328 96.9872 2.29328 96.5292L2.29239 96.5283Z" fill="white"/>
<g style="mix-blend-mode:multiply">
<path d="M1.26471 97.4814C1.43141 97.74 1.6318 98.0075 1.865 98.2759H13.2129C13.4452 98.0075 13.6465 97.74 13.8132 97.4814H1.26471Z" fill="#999999"/>
</g>
<g style="mix-blend-mode:multiply">
<path d="M14.3602 91.0065H0.71674V95.2387C0.71674 95.2387 8.86454 94.9588 14.3602 95.9925V91.0074V91.0065Z" fill="#666666"/>
</g>
<path d="M3.78912 54.6967L3.78912 58.9944C3.78912 59.1837 3.94276 59.3372 4.13227 59.3372H10.9447C11.1342 59.3372 11.2879 59.1837 11.2879 58.9944V54.6967C11.2879 54.5074 11.1342 54.354 10.9447 54.354H4.13227C3.94276 54.354 3.78912 54.5074 3.78912 54.6967Z" fill="black"/>
<path d="M0.25655 78.6635V82.9444H14.8196V78.6635C14.8196 76.1932 13.5871 64.9512 11.7028 56.6578H3.37415C1.48994 64.9512 0.25655 76.1941 0.25655 78.6635Z" fill="#FF0000"/>
<path opacity="0.7" d="M2.13811 78.9886C2.13811 76.4518 2.92815 65.5419 4.16242 56.6587H3.37415C1.48994 64.9511 0.25655 76.194 0.25655 78.6635V82.9444H2.13811V78.9877V78.9886Z" fill="white"/>
<path opacity="0.5" d="M5.08458 56.6587C4.19345 64.9511 3.61001 76.194 3.61001 78.6644V82.9453H7.12485V56.6587H5.08369H5.08458Z" fill="white"/>
<g style="mix-blend-mode:multiply" opacity="0.7">
<path d="M12.9389 78.9886C12.9389 76.4518 12.1488 65.5419 10.9146 56.6587H11.7028C13.5871 64.9511 14.8196 76.194 14.8196 78.6644V82.9453H12.938V78.9886H12.9389Z" fill="#808080"/>
</g>
<g style="mix-blend-mode:multiply">
<path d="M0.256546 79.133L0.256546 94.9597H14.8195L14.8195 79.133H0.256546Z" fill="#1A1A1A"/>
</g>
<path d="M0.0224609 79.6166L0.0224609 94.4761H15.0545V79.6166H0.0224609Z" fill="#FF0000"/>
<path opacity="0.7" d="M1.96431 79.6157H0.0224609V94.4752H1.96431V79.6157Z" fill="white"/>
<g style="mix-blend-mode:multiply" opacity="0.7">
<path d="M15.0545 79.6157H13.1127V94.4752H15.0545V79.6157Z" fill="#808080"/>
</g>
<path opacity="0.5" d="M3.00174 79.6166L3.00174 94.4761H6.87658L6.87658 79.6166H3.00174Z" fill="white"/>
<path d="M49.9555 55.812C50.0167 55.1264 50.7988 54.7677 51.3618 55.1654C59.0689 60.6128 70.337 69.9743 70.337 78.1525V91.9127H65.963C65.963 91.9127 57.9916 80.0905 47.7512 77.7557C47.1226 77.6122 46.7271 76.9939 46.8636 76.3641C48.3994 69.318 49.5184 60.7279 49.9555 55.812V55.812Z" fill="#FF0000"/>
<path opacity="0.5" d="M69.3058 78.9231C69.3058 70.6094 57.8755 61.0946 50.0247 55.54C50.2375 55.0404 50.8795 54.8252 51.3609 55.1662C59.0681 60.6136 70.3361 69.9752 70.3361 78.1533V91.9136H69.3058V78.924V78.9231Z" fill="white"/>
<g style="mix-blend-mode:multiply">
<path d="M61.2165 63.1097C66.1953 67.8015 70.337 73.1949 70.337 78.1525V91.9127H65.963C65.963 91.9127 62.7505 87.1491 57.785 83.0728C57.5376 76.2383 58.4261 69.403 61.2165 63.1106V63.1097Z" fill="#808080"/>
</g>
<path d="M66.7229 91.9127H66.0561V87.6416C66.0561 80.0152 55.8059 71.1922 48.7177 66.0026C48.755 65.7528 48.7913 65.5048 48.8268 65.2568C53.3622 68.5491 57.1306 71.7875 60.0363 74.8965C64.4733 79.6423 66.7237 83.9312 66.7237 87.6416V91.9127H66.7229Z" fill="black"/>
<path d="M61.6838 96.0607C61.6838 96.6045 62.1067 97.4407 62.8321 98.2759H74.1799C74.9052 97.4407 75.3282 96.6045 75.3282 96.0607V91.0065H61.6847V96.0607H61.6838Z" fill="#C69C6D"/>
<g style="mix-blend-mode:multiply">
<path d="M68.8811 91.0065V98.2759H72.2682V91.0065H68.8811Z" fill="#B3B3B3"/>
</g>
<path opacity="0.2" d="M64.5611 91.0065V98.2759H67.6636V91.0065H64.5611Z" fill="#E6E7E8"/>
<path opacity="0.5" d="M63.2603 96.5283V91.0065H61.6838V96.0607C61.6838 96.6045 62.1067 97.4407 62.8321 98.2759H63.6115C63.3854 97.6036 63.2603 96.9872 63.2603 96.5292V96.5283Z" fill="white"/>
<g style="mix-blend-mode:multiply">
<path d="M62.2318 97.4814C62.3985 97.7401 62.5989 98.0076 62.8321 98.276H74.1799C74.4122 98.0076 74.6135 97.7401 74.7802 97.4814H62.2318Z" fill="#999999"/>
</g>
<g style="mix-blend-mode:multiply">
<path d="M75.3283 91.0065H61.6848V95.2387C61.6848 95.2387 69.8326 94.9588 75.3283 95.9925V91.0074V91.0065Z" fill="#666666"/>
</g>
<path d="M64.7571 54.6959V58.9936C64.7571 59.1829 64.9107 59.3364 65.1002 59.3364H71.9127C72.1022 59.3364 72.2558 59.1829 72.2558 58.9936V54.6959C72.2558 54.5066 72.1022 54.3531 71.9127 54.3531H65.1002C64.9107 54.3531 64.7571 54.5066 64.7571 54.6959Z" fill="black"/>
<path d="M61.2245 78.6635V82.9444H75.7875V78.6635C75.7875 76.1932 74.555 64.9512 72.6708 56.6578H64.3421C62.4579 64.9503 61.2254 76.1932 61.2254 78.6635H61.2245Z" fill="#FF0000"/>
<path opacity="0.7" d="M63.106 78.9886C63.106 76.4518 63.8961 65.5419 65.1304 56.6587H64.3421C62.4579 64.9511 61.2254 76.194 61.2254 78.6644V82.9453H63.1069V78.9886H63.106Z" fill="white"/>
<path opacity="0.5" d="M66.0516 56.6587C65.1605 64.9511 64.5771 76.194 64.5771 78.6644V82.9453H68.0919V56.6587H66.0507H66.0516Z" fill="white"/>
<g style="mix-blend-mode:multiply" opacity="0.7">
<path d="M73.9068 78.9886C73.9068 76.4518 73.1168 65.5419 71.8825 56.6587H72.6708C74.555 64.9511 75.7875 76.194 75.7875 78.6644V82.9453H73.9059V78.9886H73.9068Z" fill="#808080"/>
</g>
<g style="mix-blend-mode:multiply">
<path d="M61.2245 79.1321V94.9588H75.7875V79.1321H61.2245Z" fill="#1A1A1A"/>
</g>
<path d="M60.9904 79.6157V94.4752H76.0225V79.6157H60.9904Z" fill="#FF0000"/>
<path opacity="0.7" d="M62.9322 79.6157H60.9904V94.4752H62.9322V79.6157Z" fill="white"/>
<g style="mix-blend-mode:multiply" opacity="0.7">
<path d="M76.0225 79.6157H74.0806V94.4752H76.0225V79.6157Z" fill="#808080"/>
</g>
<path opacity="0.5" d="M63.9697 79.6157V94.4752H67.8445V79.6157H63.9697Z" fill="white"/>
<g style="mix-blend-mode:multiply">
<path d="M33.1448 28.6316C33.1448 29.8398 33.3948 30.9833 33.8408 32.0037C34.5245 33.567 36.3413 34.5803 38.331 34.5803H39.9324C41.9212 34.5803 43.739 33.567 44.4226 32.0037C44.8686 30.9833 45.1186 29.8398 45.1186 28.6316C45.1186 27.4234 44.8686 26.2799 44.4226 25.2595C43.739 23.6962 41.9221 22.6829 39.9324 22.6829H38.331C36.3422 22.6829 34.5245 23.6962 33.8408 25.2595C33.3948 26.2799 33.1448 27.4234 33.1448 28.6316Z" fill="#666666"/>
</g>
<g style="mix-blend-mode:multiply">
<path d="M30.9263 28.6316C30.9263 29.8398 31.1763 30.9833 31.6223 32.0037C32.306 33.567 34.1228 34.5803 36.1125 34.5803H37.7139C39.7027 34.5803 41.5205 33.567 42.2041 32.0037C42.6501 30.9833 42.9001 29.8398 42.9001 28.6316C42.9001 27.4234 42.6501 26.2799 42.2041 25.2595C41.5205 23.6962 39.7036 22.6829 37.7139 22.6829H36.1125C34.1237 22.6829 32.306 23.6962 31.6223 25.2595C31.1763 26.2799 30.9263 27.4234 30.9263 28.6316Z" fill="#CCCCCC"/>
</g>
<path d="M32.0355 27.683C32.0355 28.8912 32.2856 30.0347 32.7316 31.0551C33.4152 32.6184 35.232 33.6317 37.2218 33.6317H38.8231C40.812 33.6317 42.6297 32.6184 43.3133 31.0551C43.7593 30.0347 44.0094 28.8912 44.0094 27.683C44.0094 26.4748 43.7593 25.3313 43.3133 24.3109C42.6297 22.7476 40.8129 21.7343 38.8231 21.7343H37.2218C35.2329 21.7343 33.4152 22.7476 32.7316 24.3109C32.2856 25.3313 32.0355 26.4748 32.0355 27.683Z" fill="url(#paint2_linear_7_268)"/>
<path d="M32.3388 27.683C32.3388 28.8301 32.5764 29.9151 32.9994 30.8841C33.6484 32.3678 35.3739 33.3297 37.2617 33.3297H38.7815C40.6701 33.3297 42.3956 32.3678 43.0438 30.8841C43.4676 29.9151 43.7044 28.8301 43.7044 27.683C43.7044 26.536 43.4667 25.4509 43.0438 24.4819C42.3947 22.9982 40.6692 22.0363 38.7815 22.0363H37.2617C35.373 22.0363 33.6475 22.9982 32.9994 24.4819C32.5755 25.4509 32.3388 26.536 32.3388 27.683Z" fill="url(#paint3_linear_7_268)"/>
<path d="M32.8938 27.683C32.8938 28.7175 33.1084 29.6972 33.4906 30.5714C34.0758 31.9107 35.6328 32.7787 37.3371 32.7787H38.7088C40.413 32.7787 41.97 31.9107 42.5552 30.5714C42.9374 29.6972 43.152 28.7175 43.152 27.683C43.152 26.6484 42.9374 25.6688 42.5552 24.7945C41.97 23.4553 40.413 22.5872 38.7088 22.5872H37.3371C35.6328 22.5872 34.0758 23.4553 33.4906 24.7945C33.1084 25.6688 32.8938 26.6484 32.8938 27.683Z" fill="black"/>
<path d="M33.2131 27.683C33.2131 28.6529 33.4143 29.5714 33.7726 30.3917C34.3214 31.6477 35.7818 32.4617 37.3796 32.4617H38.6662C40.264 32.4617 41.7235 31.6477 42.2733 30.3917C42.6315 29.5723 42.8328 28.6538 42.8328 27.683C42.8328 26.7122 42.6315 25.7946 42.2733 24.9744C41.7244 23.7184 40.264 22.9044 38.6662 22.9044H37.3796C35.7818 22.9044 34.3223 23.7184 33.7726 24.9744C33.4143 25.7937 33.2131 26.7122 33.2131 27.683Z" fill="#00A99D"/>
<path opacity="0.3" d="M37.04 26.5962H39.004C40.4281 26.5962 41.7776 26.8894 42.8239 27.3943C42.7884 26.5306 42.5942 25.7122 42.2724 24.9744C41.7235 23.7184 40.2631 22.9044 38.6653 22.9044H37.3787C35.7809 22.9044 34.3214 23.7184 33.7717 24.9744C33.4489 25.7122 33.2556 26.5306 33.2201 27.3943C34.2656 26.8894 35.616 26.5962 37.04 26.5962V26.5962Z" fill="white"/>
<path opacity="0.3" d="M34.1334 29.6396C34.1334 28.6697 34.3737 27.7512 34.8029 26.931C35.4599 25.675 37.2076 24.861 39.1211 24.861H40.6613C41.2349 24.861 41.7927 24.9354 42.3123 25.0718C42.299 25.039 42.2866 25.0062 42.2724 24.9735C41.7235 23.7174 40.2631 22.9034 38.6653 22.9034H37.3787C35.7809 22.9034 34.3214 23.7174 33.7717 24.9735C33.4134 25.7928 33.2122 26.7113 33.2122 27.6821C33.2122 28.6529 33.4134 29.5705 33.7717 30.3907C33.9135 30.7158 34.1184 31.0108 34.3693 31.2703C34.2168 30.7495 34.1326 30.2038 34.1326 29.6387L34.1334 29.6396Z" fill="white"/>
<g style="mix-blend-mode:multiply">
<path d="M31.9353 47.3618C39.583 47.3618 46.775 47.9544 53.0457 48.9978V43.6257H22.9984V47.6381C25.8846 47.4575 28.8736 47.3618 31.9353 47.3618Z" fill="#B3B3B3"/>
</g>
<path d="M53.3331 41.3573H22.7121C22.2146 41.3573 21.8112 41.7602 21.8112 42.2572V45.05C21.8112 45.547 22.2146 45.9499 22.7121 45.9499H53.3331C53.8306 45.9499 54.234 45.547 54.234 45.05V42.2572C54.234 41.7602 53.8306 41.3573 53.3331 41.3573Z" fill="#333333"/>
<path d="M52.6325 41.3573H23.1252C22.6818 41.3573 22.3201 41.7036 22.2669 42.1483H53.4899C53.4376 41.7027 53.0758 41.3573 52.6316 41.3573H52.6325Z" fill="url(#paint4_linear_7_268)"/>
<g style="mix-blend-mode:multiply">
<path d="M31.6463 44.4442H21.8102V45.0483C21.8102 45.5452 22.2137 45.9491 22.7111 45.9491H53.3312C53.8286 45.9491 54.232 45.5461 54.232 45.0483V42.5256C51.3485 43.7072 45.1124 44.4442 31.6445 44.4442H31.6463Z" fill="#333333"/>
</g>
</g>
<defs>
<linearGradient id="paint0_linear_7_268" x1="32.2395" y1="90.0782" x2="32.2395" y2="0.275852" gradientUnits="userSpaceOnUse">
<stop stop-color="white"/>
<stop offset="1" stop-color="white"/>
</linearGradient>
<linearGradient id="paint1_linear_7_268" x1="24.7496" y1="72.5385" x2="50.6126" y2="72.5385" gradientUnits="userSpaceOnUse">
<stop/>
<stop offset="0.09" stop-color="#0A0A0A"/>
<stop offset="0.23" stop-color="#252525"/>
<stop offset="0.42" stop-color="#525252"/>
<stop offset="0.65" stop-color="#909090"/>
<stop offset="0.9" stop-color="#DEDEDE"/>
<stop offset="1" stop-color="white"/>
</linearGradient>
<linearGradient id="paint2_linear_7_268" x1="38.0225" y1="33.6317" x2="38.0225" y2="21.7351" gradientUnits="userSpaceOnUse">
<stop stop-color="#808285"/>
<stop offset="0.24" stop-color="#87898C"/>
<stop offset="0.6" stop-color="#9C9EA1"/>
<stop offset="1" stop-color="#BCBEC0"/>
</linearGradient>
<linearGradient id="paint3_linear_7_268" x1="38.0225" y1="33.3306" x2="38.0225" y2="22.0363" gradientUnits="userSpaceOnUse">
<stop stop-color="#BCBEC0"/>
<stop offset="0.4" stop-color="#9C9EA1"/>
<stop offset="0.76" stop-color="#87898C"/>
<stop offset="1" stop-color="#808285"/>
</linearGradient>
<linearGradient id="paint4_linear_7_268" x1="22.2677" y1="41.7523" x2="53.4908" y2="41.7523" gradientUnits="userSpaceOnUse">
<stop stop-color="white"/>
<stop offset="1" stop-color="white"/>
</linearGradient>
<clipPath id="clip0_7_268">
<rect width="76" height="98" fill="white" transform="translate(0.0224609 0.27594)"/>
</clipPath>
</defs>
</svg>
