<svg width="72" height="129" viewBox="0 0 72 129" fill="none" xmlns="http://www.w3.org/2000/svg">
<g clip-path="url(#clip0_13_1920)">
<path d="M61.5743 102.175C61.5743 110.046 62.9721 128.999 64.6956 128.999C66.4191 128.999 67.8168 110.046 67.8168 102.175C67.8168 94.3034 66.4191 94.3612 64.6956 94.3612C62.9721 94.3612 61.5743 94.3034 61.5743 102.175Z" fill="url(#paint0_radial_13_1920)"/>
<path style="mix-blend-mode:color-dodge" d="M63.2183 100.541C63.2183 106.766 63.8794 121.757 64.6956 121.757C65.5118 121.757 66.1729 106.766 66.1729 100.541C66.1729 94.3159 65.5118 94.3612 64.6956 94.3612C63.8794 94.3612 63.2183 94.3159 63.2183 100.541Z" fill="url(#paint1_radial_13_1920)"/>
<path d="M32.7918 102.175C32.7918 110.046 34.1896 128.999 35.9131 128.999C37.6366 128.999 39.0344 110.046 39.0344 102.175C39.0344 94.3034 37.6366 94.3612 35.9131 94.3612C34.1896 94.3612 32.7918 94.3034 32.7918 102.175Z" fill="url(#paint2_radial_13_1920)"/>
<path style="mix-blend-mode:color-dodge" d="M34.4368 100.541C34.4368 106.766 35.0979 121.757 35.9141 121.757C36.7303 121.757 37.3914 106.766 37.3914 100.541C37.3914 94.3159 36.7303 94.3612 35.9141 94.3612C35.0979 94.3612 34.4368 94.3159 34.4368 100.541Z" fill="url(#paint3_radial_13_1920)"/>
<path d="M4.01029 102.175C4.01029 110.046 5.40807 128.999 7.13155 128.999C8.85503 128.999 10.2528 110.046 10.2528 102.175C10.2528 94.3034 8.85503 94.3612 7.13155 94.3612C5.40807 94.3612 4.01029 94.3034 4.01029 102.175Z" fill="url(#paint4_radial_13_1920)"/>
<path style="mix-blend-mode:color-dodge" d="M5.65428 100.541C5.65428 106.766 6.31538 121.757 7.13156 121.757C7.94774 121.757 8.60883 106.766 8.60883 100.541C8.60883 94.3159 7.94774 94.3612 7.13156 94.3612C6.31538 94.3612 5.65428 94.3159 5.65428 100.541Z" fill="url(#paint5_radial_13_1920)"/>
<path d="M64.2235 51.3628L39.4541 66.0417V77.1H65.8917L64.2235 51.3628Z" fill="#65C8D0"/>
<path style="mix-blend-mode:multiply" d="M64.2235 51.3628L39.4541 66.0417V77.1H65.8917L64.2235 51.3628Z" fill="url(#paint6_linear_13_1920)"/>
<path d="M60.9888 86.2493H68.1522V93.5627H60.9888V86.2493Z" fill="#333333"/>
<path d="M60.9888 89.446H68.1522V89.9989H60.9888V89.446Z" fill="#999999"/>
<path d="M60.9888 90.4179H68.1522V90.9708H60.9888V90.4179Z" fill="#999999"/>
<path d="M60.9888 91.3888H68.1522V91.9417H60.9888V91.3888Z" fill="#999999"/>
<g style="mix-blend-mode:multiply">
<path d="M60.9888 86.2493H64.5705V93.5627H60.9888V86.2493Z" fill="#B3B3B3"/>
</g>
<path d="M68.3713 92.4136L71.4141 96.1074H57.7261L60.7698 92.4136H68.3713Z" fill="#B3B3B3"/>
<path d="M65.3043 92.4136L65.8917 96.1074H63.4315L63.9375 92.4136H65.3043Z" fill="#666666"/>
<path d="M67.2517 92.4136L69.3988 96.1074H68.2026L66.5877 92.4136H67.2517Z" fill="#E6E7E8"/>
<path d="M62.4457 92.4136L60.7446 96.1074H58.9619L61.456 92.4136H62.4457Z" fill="#808080"/>
<path d="M64.2235 92.4136L63.9463 96.1074H61.7091L62.9818 92.4136H64.2235Z" fill="#4D4D4D"/>
<path d="M68.3713 92.4136L71.4141 96.1074H69.8331L67.4931 92.4136H68.3713Z" fill="#CCCCCC"/>
<path d="M59.5513 88.8992H69.5898V61.3445C69.5898 59.2312 67.3429 44.5504 64.5706 44.5504C61.7983 44.5504 59.5513 59.2312 59.5513 61.3445V88.8992Z" fill="#F15A24"/>
<g style="mix-blend-mode:multiply">
<path d="M59.5513 61.3443C59.5513 59.677 60.9491 50.1935 62.9004 46.2608C63.0661 45.9266 63.7175 61.2017 63.7175 61.5591V88.899H59.5513V61.3443Z" fill="#B3B3B3"/>
</g>
<path opacity="0.5" d="M67.3622 60.5516C67.3622 58.7976 66.17 49.186 64.4756 44.557C64.5066 44.5531 64.5386 44.5493 64.5706 44.5493C67.3429 44.5493 69.5898 59.2301 69.5898 61.3433V88.898H67.3632V60.5516H67.3622Z" fill="white"/>
<g style="mix-blend-mode:multiply">
<path d="M56.6491 62.1466C55.9551 66.3846 48.6618 72.1309 39.4541 72.8418V66.0417L56.3341 56.0381C56.4843 58.1195 56.5909 60.1634 56.6491 62.1466Z" fill="#808080"/>
</g>
<path d="M7.60361 51.3628L32.374 66.0417V77.1H5.93538L7.60361 51.3628Z" fill="#65C8D0"/>
<path style="mix-blend-mode:multiply" d="M7.60361 51.3628L32.374 66.0417V77.1H5.93538L7.60361 51.3628Z" fill="url(#paint7_linear_13_1920)"/>
<path d="M3.67584 86.2493H10.8392V93.5627H3.67584V86.2493Z" fill="#333333"/>
<path d="M3.67584 89.446H10.8392V89.9989H3.67584V89.446Z" fill="#999999"/>
<path d="M3.67584 90.4179H10.8392V90.9708H3.67584V90.4179Z" fill="#999999"/>
<path d="M3.67584 91.3888H10.8392V91.9417H3.67584V91.3888Z" fill="#999999"/>
<g style="mix-blend-mode:multiply">
<path d="M3.67581 86.2493H7.25751V93.5627H3.67581L3.67581 86.2493Z" fill="#B3B3B3"/>
</g>
<path d="M11.0583 92.4136L14.1011 96.1074H0.414046L3.45679 92.4136H11.0583Z" fill="#B3B3B3"/>
<path d="M7.99138 92.4136L8.5788 96.1074H6.11862L6.62558 92.4136H7.99138Z" fill="#666666"/>
<path d="M9.93873 92.4136L12.0858 96.1074H10.8897L9.27474 92.4136H9.93873Z" fill="#E6E7E8"/>
<path d="M5.13275 92.4136L3.43254 96.1074H1.64993L4.14306 92.4136H5.13275Z" fill="#808080"/>
<path d="M6.91052 92.4136L6.63329 96.1074H4.39606L5.6688 92.4136H6.91052Z" fill="#4D4D4D"/>
<path d="M11.0583 92.4136L14.1011 96.1074H12.5201L10.1801 92.4136H11.0583Z" fill="#CCCCCC"/>
<path d="M2.23835 88.8992H12.2768L12.2768 61.3445C12.2768 59.2312 10.0299 44.5504 7.25757 44.5504C4.48527 44.5504 2.23835 59.2312 2.23835 61.3445L2.23835 88.8992Z" fill="#F15A24"/>
<g style="mix-blend-mode:multiply">
<path d="M2.23833 61.3443C2.23833 59.677 3.63611 50.1935 5.58739 46.2608C5.75314 45.9266 6.40454 61.2017 6.40454 61.5591L6.40454 88.899H2.23833L2.23833 61.3443Z" fill="#B3B3B3"/>
</g>
<path opacity="0.5" d="M10.0493 60.5516C10.0493 58.7976 8.85698 49.186 7.16258 44.557C7.19359 44.5531 7.22559 44.5493 7.25757 44.5493C10.0299 44.5493 12.2768 59.2301 12.2768 61.3433L12.2768 88.898H10.0502L10.0502 60.5516H10.0493Z" fill="white"/>
<g style="mix-blend-mode:multiply">
<path d="M15.178 62.1466C15.872 66.3846 23.1653 72.1309 32.373 72.8418V66.0417L15.493 56.0381C15.3428 58.1195 15.2362 60.1634 15.178 62.1466Z" fill="#808080"/>
</g>
<path d="M35.9141 0.00012207C45.9981 0.00012207 54.2607 34.5524 55.0023 59.5855C54.2607 64.1095 45.9981 70.3539 35.9141 70.3539C25.8301 70.3539 17.5675 64.1095 16.8259 59.5855C17.5675 34.5524 25.8301 0.00012207 35.9141 0.00012207Z" fill="#E6E6E6"/>
<path d="M35.9141 19.5046C31.3155 19.5046 26.8808 20.0131 22.7078 20.957C26.1432 8.9086 30.7931 0.00012207 35.9141 0.00012207C41.0351 0.00012207 45.685 8.9086 49.1203 20.957C44.9473 20.0131 40.5126 19.5046 35.9141 19.5046Z" fill="#F15A24"/>
<path d="M52.3676 59.5855C51.8762 63.0654 47.5452 67.5616 41.6177 69.4513C44.4956 67.1484 46.4818 63.4574 46.7493 60.4812C46.3907 38.3839 42.9369 9.13203 38.3859 0.929565C45.9225 6.59115 51.7909 36.9719 52.3686 59.5855H52.3676Z" fill="url(#paint8_linear_13_1920)"/>
<g style="mix-blend-mode:multiply">
<path d="M33.4423 0.929565C28.8903 9.13203 25.4375 38.3839 25.0788 60.4812C25.3454 63.4574 27.3325 67.1484 30.2105 69.4513C24.282 67.5606 19.952 63.0654 19.4606 59.5855C20.0383 36.9719 25.9057 6.59115 33.4432 0.929565H33.4423Z" fill="#CCCCCC"/>
</g>
<path opacity="0.5" d="M30.8028 2.95709C23.716 12.2846 18.4341 39.2565 17.8641 59.8542C18.246 62.345 20.7372 65.3511 24.4662 67.5732C20.1595 65.3492 17.2524 62.1832 16.8269 59.5855C17.4385 38.9474 23.1615 11.8396 30.8037 2.95709H30.8028ZM55.0013 59.5855C54.5757 62.1832 51.6687 65.3492 47.3619 67.5732C51.091 65.3511 53.5822 62.345 53.9641 59.8542C53.3932 39.2565 48.1122 12.2855 41.0254 2.95709C48.6667 11.8386 54.3906 38.9464 55.0023 59.5855H55.0013Z" fill="white"/>
<g style="mix-blend-mode:multiply">
<path d="M35.9141 70.3538C45.9981 70.3538 54.2607 64.1095 55.0023 59.5854H16.8269C17.5684 64.1095 25.8311 70.3538 35.9151 70.3538H35.9141Z" fill="#B3B3B3"/>
</g>
<path style="mix-blend-mode:multiply" d="M35.9141 70.3538C45.9981 70.3538 54.2607 64.1095 55.0023 59.5854H16.8269C17.5684 64.1095 25.8311 70.3538 35.9151 70.3538H35.9141Z" fill="url(#paint9_linear_13_1920)"/>
<g style="mix-blend-mode:multiply">
<path d="M43.7648 33.7385C43.7648 35.6726 43.3625 37.5026 42.6442 39.1362C41.544 41.6385 38.6195 43.2605 35.4178 43.2605H32.8404C29.6386 43.2605 26.7141 41.6385 25.614 39.1362C24.8957 37.5026 24.4934 35.6716 24.4934 33.7385C24.4934 31.8054 24.8957 29.9744 25.614 28.3408C26.7141 25.8385 29.6386 24.2165 32.8404 24.2165H35.4178C38.6195 24.2165 41.544 25.8385 42.6442 28.3408C43.3625 29.9744 43.7648 31.8054 43.7648 33.7385Z" fill="#666666"/>
</g>
<g style="mix-blend-mode:multiply">
<path d="M47.3339 33.7385C47.3339 35.6726 46.9316 37.5026 46.2133 39.1362C45.1131 41.6385 42.1886 43.2605 38.9869 43.2605H36.4094C33.2087 43.2605 30.2832 41.6385 29.183 39.1362C28.4648 37.5026 28.0625 35.6716 28.0625 33.7385C28.0625 31.8054 28.4648 29.9744 29.183 28.3408C30.2832 25.8385 33.2077 24.2165 36.4094 24.2165H38.9869C42.1886 24.2165 45.1131 25.8385 46.2133 28.3408C46.9316 29.9744 47.3339 31.8054 47.3339 33.7385Z" fill="#CCCCCC"/>
</g>
<path d="M45.5493 32.2205C45.5493 34.1546 45.147 35.9846 44.4288 37.6182C43.3286 40.1205 40.4041 41.7425 37.2024 41.7425H34.6249C31.4241 41.7425 28.4987 40.1205 27.3985 37.6182C26.6802 35.9846 26.2779 34.1536 26.2779 32.2205C26.2779 30.2874 26.6802 28.4564 27.3985 26.8228C28.4987 24.3205 31.4232 22.6985 34.6249 22.6985H37.2024C40.4041 22.6985 43.3286 24.3205 44.4288 26.8228C45.147 28.4564 45.5493 30.2874 45.5493 32.2205Z" fill="url(#paint10_linear_13_1920)"/>
<path d="M45.0617 32.2205C45.0617 34.0564 44.6798 35.7939 43.9974 37.3456C42.9534 39.7218 40.1763 41.2619 37.1374 41.2619H34.6908C31.6519 41.2619 28.8748 39.7218 27.8308 37.3456C27.1494 35.7949 26.7665 34.0564 26.7665 32.2205C26.7665 30.3847 27.1484 28.6471 27.8308 27.0954C28.8748 24.7193 31.6519 23.1791 34.6908 23.1791H37.1374C40.1763 23.1791 42.9534 24.7193 43.9984 27.0954C44.6798 28.6462 45.0627 30.3847 45.0627 32.2205H45.0617Z" fill="url(#paint11_linear_13_1920)"/>
<path d="M44.168 32.2205C44.168 33.8772 43.8229 35.4453 43.2084 36.8448C42.2662 38.9888 39.7605 40.3787 37.0182 40.3787H34.8101C32.0678 40.3787 29.5621 38.9888 28.6199 36.8448C28.0043 35.4453 27.6602 33.8772 27.6602 32.2205C27.6602 30.5639 28.0053 28.9958 28.6199 27.5963C29.5621 25.4523 32.0678 24.0624 34.8101 24.0624H37.0182C39.7605 24.0624 42.2662 25.4523 43.2084 27.5963C43.8239 28.9958 44.168 30.5639 44.168 32.2205Z" fill="black"/>
<path d="M43.6542 32.2205C43.6542 33.7741 43.3305 35.2439 42.7537 36.5568C41.8697 38.5669 39.52 39.8701 36.9493 39.8701H34.8788C32.3072 39.8701 29.9575 38.5669 29.0744 36.5568C28.4977 35.2439 28.1739 33.7741 28.1739 32.2205C28.1739 30.6669 28.4977 29.1971 29.0744 27.8843C29.9585 25.8741 32.3082 24.5709 34.8788 24.5709H36.9493C39.521 24.5709 41.8707 25.8741 42.7537 27.8843C43.3305 29.1971 43.6542 30.6669 43.6542 32.2205Z" fill="#007F76"/>
<path opacity="0.3" d="M37.4941 30.4791H34.3331C32.0416 30.4791 29.8684 30.9481 28.1856 31.7572C28.2428 30.375 28.5549 29.0651 29.0735 27.8833C29.9566 25.8731 32.3072 24.5699 34.8789 24.5699H36.9494C39.521 24.5699 41.8707 25.8731 42.7538 27.8833C43.2733 29.0642 43.5845 30.3741 43.6417 31.7572C41.9589 30.9481 39.7856 30.4791 37.4941 30.4791Z" fill="white"/>
<path opacity="0.3" d="M42.1721 35.353C42.1721 33.7994 41.7854 32.3295 41.0942 31.0167C40.0367 29.0066 37.2237 27.7034 34.145 27.7034H31.6665C30.7427 27.7034 29.8451 27.8228 29.0095 28.0415C29.0308 27.9894 29.0512 27.9365 29.0735 27.8845C29.9565 25.8743 32.3072 24.5711 34.8788 24.5711H36.9493C39.521 24.5711 41.8707 25.8743 42.7537 27.8845C43.3305 29.1973 43.6542 30.6671 43.6542 32.2207C43.6542 33.7743 43.3305 35.2441 42.7537 36.5569C42.525 37.078 42.1964 37.55 41.7921 37.9651C42.0384 37.132 42.1731 36.2574 42.1731 35.353H42.1721Z" fill="white"/>
<path style="mix-blend-mode:multiply" d="M35.6204 70.3509C30.3957 70.2883 25.6789 68.5594 22.2707 66.2815C29.025 58.158 35.9344 53.8998 35.9344 53.8998L35.6214 70.3509H35.6204Z" fill="url(#paint12_linear_13_1920)"/>
<path d="M32.3323 86.2493H39.4957V93.5627H32.3323V86.2493Z" fill="#333333"/>
<path d="M32.3323 89.446H39.4957V89.9989H32.3323V89.446Z" fill="#999999"/>
<path d="M32.3323 90.4179H39.4957V90.9708H32.3323V90.4179Z" fill="#999999"/>
<path d="M32.3323 91.3888H39.4957V91.9417H32.3323V91.3888Z" fill="#999999"/>
<g style="mix-blend-mode:multiply">
<path d="M32.3323 86.2493H35.914V93.5627H32.3323V86.2493Z" fill="#B3B3B3"/>
</g>
<path d="M39.7148 92.4136L42.7576 96.1074H29.0696L32.1133 92.4136H39.7148Z" fill="#B3B3B3"/>
<path d="M36.6478 92.4136L37.2352 96.1074H34.7751L35.281 92.4136H36.6478Z" fill="#666666"/>
<path d="M38.5952 92.4136L40.7423 96.1074H39.5461L37.9312 92.4136H38.5952Z" fill="#E6E7E8"/>
<path d="M33.7892 92.4136L32.089 96.1074H30.3064L32.7996 92.4136H33.7892Z" fill="#808080"/>
<path d="M35.567 92.4136L35.2898 96.1074H33.0526L34.3253 92.4136H35.567Z" fill="#4D4D4D"/>
<path d="M39.7148 92.4136L42.7576 96.1074H41.1766L38.8366 92.4136H39.7148Z" fill="#CCCCCC"/>
<path d="M30.8948 88.8992H40.9333V61.3445C40.9333 59.2312 38.6864 44.5504 35.9141 44.5504C33.1418 44.5504 30.8948 59.2312 30.8948 61.3445V88.8992Z" fill="#F15A24"/>
<g style="mix-blend-mode:multiply">
<path d="M30.8948 61.3443C30.8948 59.677 32.2926 50.1935 34.2439 46.2608C34.4096 45.9266 35.061 61.2017 35.061 61.5591V88.899H30.8948V61.3443Z" fill="#B3B3B3"/>
</g>
<path opacity="0.5" d="M38.7058 60.5516C38.7058 58.7976 37.5135 49.186 35.8191 44.557C35.8501 44.5531 35.8821 44.5493 35.9141 44.5493C38.6864 44.5493 40.9333 59.2301 40.9333 61.3433V88.898H38.7067V60.5516H38.7058Z" fill="white"/>
</g>
<defs>
<radialGradient id="paint0_radial_13_1920" cx="0" cy="0" r="1" gradientUnits="userSpaceOnUse" gradientTransform="translate(64.8332 112.334) rotate(180) scale(3.46977 15.8362)">
<stop stop-color="#C1272D"/>
<stop offset="0.15" stop-color="#C32B2D"/>
<stop offset="0.33" stop-color="#C9392E"/>
<stop offset="0.51" stop-color="#D25131"/>
<stop offset="0.71" stop-color="#E07234"/>
<stop offset="0.91" stop-color="#F29B38"/>
<stop offset="1" stop-color="#FBB03B"/>
</radialGradient>
<radialGradient id="paint1_radial_13_1920" cx="0" cy="0" r="1" gradientUnits="userSpaceOnUse" gradientTransform="translate(63.0245 108.696) rotate(180) scale(1.65756 12.5262)">
<stop stop-color="white"/>
<stop offset="0.13" stop-color="#FBFBFB"/>
<stop offset="0.26" stop-color="#EFEFEF"/>
<stop offset="0.38" stop-color="#DBDBDB"/>
<stop offset="0.5" stop-color="#C0C0C0"/>
<stop offset="0.63" stop-color="#9D9D9D"/>
<stop offset="0.75" stop-color="#717171"/>
<stop offset="0.87" stop-color="#3E3E3E"/>
<stop offset="0.99" stop-color="#040404"/>
<stop offset="1"/>
</radialGradient>
<radialGradient id="paint2_radial_13_1920" cx="0" cy="0" r="1" gradientUnits="userSpaceOnUse" gradientTransform="translate(36.0857 524.955) rotate(180) scale(3.46977 15.8362)">
<stop stop-color="#C1272D"/>
<stop offset="0.15" stop-color="#C32B2D"/>
<stop offset="0.33" stop-color="#C9392E"/>
<stop offset="0.51" stop-color="#D25131"/>
<stop offset="0.71" stop-color="#E07234"/>
<stop offset="0.91" stop-color="#F29B38"/>
<stop offset="1" stop-color="#FBB03B"/>
</radialGradient>
<radialGradient id="paint3_radial_13_1920" cx="0" cy="0" r="1" gradientUnits="userSpaceOnUse" gradientTransform="translate(34.0057 582.35) rotate(180) scale(1.65757 12.5262)">
<stop stop-color="white"/>
<stop offset="0.13" stop-color="#FBFBFB"/>
<stop offset="0.26" stop-color="#EFEFEF"/>
<stop offset="0.38" stop-color="#DBDBDB"/>
<stop offset="0.5" stop-color="#C0C0C0"/>
<stop offset="0.63" stop-color="#9D9D9D"/>
<stop offset="0.75" stop-color="#717171"/>
<stop offset="0.87" stop-color="#3E3E3E"/>
<stop offset="0.99" stop-color="#040404"/>
<stop offset="1"/>
</radialGradient>
<radialGradient id="paint4_radial_13_1920" cx="0" cy="0" r="1" gradientUnits="userSpaceOnUse" gradientTransform="translate(7.33758 524.955) rotate(180) scale(0.0285954 0.130511)">
<stop stop-color="#C1272D"/>
<stop offset="0.15" stop-color="#C32B2D"/>
<stop offset="0.33" stop-color="#C9392E"/>
<stop offset="0.51" stop-color="#D25131"/>
<stop offset="0.71" stop-color="#E07234"/>
<stop offset="0.91" stop-color="#F29B38"/>
<stop offset="1" stop-color="#FBB03B"/>
</radialGradient>
<radialGradient id="paint5_radial_13_1920" cx="0" cy="0" r="1" gradientUnits="userSpaceOnUse" gradientTransform="translate(4.9869 582.35) rotate(180) scale(1.65757 12.5262)">
<stop stop-color="white"/>
<stop offset="0.13" stop-color="#FBFBFB"/>
<stop offset="0.26" stop-color="#EFEFEF"/>
<stop offset="0.38" stop-color="#DBDBDB"/>
<stop offset="0.5" stop-color="#C0C0C0"/>
<stop offset="0.63" stop-color="#9D9D9D"/>
<stop offset="0.75" stop-color="#717171"/>
<stop offset="0.87" stop-color="#3E3E3E"/>
<stop offset="0.99" stop-color="#040404"/>
<stop offset="1"/>
</radialGradient>
<linearGradient id="paint6_linear_13_1920" x1="65.8917" y1="64.2309" x2="39.4541" y2="64.2309" gradientUnits="userSpaceOnUse">
<stop/>
<stop offset="0.09" stop-color="#060606"/>
<stop offset="0.22" stop-color="#171717"/>
<stop offset="0.36" stop-color="#343434"/>
<stop offset="0.52" stop-color="#5D5D5D"/>
<stop offset="0.7" stop-color="#919191"/>
<stop offset="0.88" stop-color="#CFCFCF"/>
<stop offset="1" stop-color="white"/>
</linearGradient>
<linearGradient id="paint7_linear_13_1920" x1="5.93635" y1="64.2309" x2="32.374" y2="64.2309" gradientUnits="userSpaceOnUse">
<stop stop-color="white"/>
<stop offset="0.12" stop-color="#CFCFCF"/>
<stop offset="0.3" stop-color="#919191"/>
<stop offset="0.48" stop-color="#5D5D5D"/>
<stop offset="0.64" stop-color="#343434"/>
<stop offset="0.78" stop-color="#171717"/>
<stop offset="0.91" stop-color="#060606"/>
<stop offset="1"/>
</linearGradient>
<linearGradient id="paint8_linear_13_1920" x1="45.3768" y1="69.4513" x2="45.3768" y2="0.929565" gradientUnits="userSpaceOnUse">
<stop stop-color="white"/>
<stop offset="1" stop-color="white"/>
</linearGradient>
<linearGradient id="paint9_linear_13_1920" x1="35.9141" y1="70.3538" x2="35.9141" y2="59.5854" gradientUnits="userSpaceOnUse">
<stop/>
<stop offset="0.09" stop-color="#060606"/>
<stop offset="0.22" stop-color="#181818"/>
<stop offset="0.36" stop-color="#373737"/>
<stop offset="0.53" stop-color="#606060"/>
<stop offset="0.71" stop-color="#969696"/>
<stop offset="0.9" stop-color="#D7D7D7"/>
<stop offset="1" stop-color="white"/>
</linearGradient>
<linearGradient id="paint10_linear_13_1920" x1="35.9141" y1="41.7425" x2="35.9141" y2="22.6975" gradientUnits="userSpaceOnUse">
<stop stop-color="#808285"/>
<stop offset="0.24" stop-color="#87898C"/>
<stop offset="0.6" stop-color="#9C9EA1"/>
<stop offset="1" stop-color="#BCBEC0"/>
</linearGradient>
<linearGradient id="paint11_linear_13_1920" x1="35.9141" y1="41.261" x2="35.9141" y2="23.1801" gradientUnits="userSpaceOnUse">
<stop stop-color="#BCBEC0"/>
<stop offset="0.4" stop-color="#9C9EA1"/>
<stop offset="0.76" stop-color="#87898C"/>
<stop offset="1" stop-color="#808285"/>
</linearGradient>
<linearGradient id="paint12_linear_13_1920" x1="35.9344" y1="62.1254" x2="22.2707" y2="62.1254" gradientUnits="userSpaceOnUse">
<stop/>
<stop offset="0.09" stop-color="#060606"/>
<stop offset="0.22" stop-color="#181818"/>
<stop offset="0.36" stop-color="#353535"/>
<stop offset="0.52" stop-color="#5D5D5D"/>
<stop offset="0.7" stop-color="#929292"/>
<stop offset="0.88" stop-color="#D0D0D0"/>
<stop offset="1" stop-color="white"/>
</linearGradient>
<clipPath id="clip0_13_1920">
<rect width="71" height="129" fill="white" transform="matrix(-1 0 0 1 71.4141 0.00012207)"/>
</clipPath>
</defs>
</svg>
