<svg width="76" height="133" viewBox="0 0 76 133" fill="none" xmlns="http://www.w3.org/2000/svg">
<g clip-path="url(#clip0_13_1699)">
<path style="mix-blend-mode:screen" d="M38.9075 132.399C16.5285 122.233 29.6822 108.476 29.6822 108.476L45.9778 108.677C59.1314 120.638 38.9113 132.399 38.9113 132.399H38.9075Z" fill="url(#paint0_radial_13_1699)"/>
<path d="M44.9154 110.423L30.8202 110.253C30.8202 110.253 19.4398 121.968 38.8017 130.626C38.8017 130.626 56.2958 120.611 44.9154 110.423Z" fill="#F9BD00"/>
<g style="mix-blend-mode:multiply">
<path d="M44.9154 110.423L30.8202 110.253C30.8202 110.253 19.4398 121.968 38.8017 130.626C38.8017 130.626 56.2958 120.611 44.9154 110.423Z" fill="#F9BD00"/>
</g>
<g style="mix-blend-mode:multiply">
<path d="M42.1288 114.534L33.8222 114.436C33.8222 114.436 27.1149 121.341 38.5256 126.443C38.5256 126.443 48.8361 120.54 42.1288 114.538V114.534Z" fill="#F9BD00"/>
</g>
<path d="M42.1591 110.374L33.7882 110.253C33.7882 110.253 27.0318 118.635 38.5294 124.833C38.5294 124.833 48.9193 117.664 42.1591 110.374Z" fill="#F9BD00"/>
<g style="mix-blend-mode:multiply">
<path d="M40.4463 110.4L35.6294 110.317C35.6294 110.317 31.7427 116.05 38.3555 120.286C38.3555 120.286 44.333 115.385 40.4425 110.4H40.4463Z" fill="#F9BD00"/>
</g>
<g style="mix-blend-mode:screen">
<path d="M39.9397 110.4L36.1777 110.317C36.1777 110.317 33.1416 116.05 38.3063 120.286C38.3063 120.286 42.9757 115.385 39.9359 110.4H39.9397Z" fill="#F9BD00"/>
</g>
<g style="mix-blend-mode:multiply">
<path d="M44.9153 110.423L30.8202 110.253C30.8202 110.253 29.5233 111.591 28.5479 113.696L40.813 113.843C47.4825 119.81 44.2347 125.721 40.4047 129.591C44.4465 126.779 54.1179 118.658 44.9191 110.423H44.9153Z" fill="#F9BD00"/>
</g>
<g style="mix-blend-mode:screen" opacity="0.4">
<path d="M33.773 115.347C31.3457 115.347 29.1414 116.243 27.5081 117.705C27.3077 121.632 29.5271 126.477 38.7978 130.622C38.7978 130.622 39.7166 130.097 40.9945 129.164C42.1741 127.716 42.8812 125.902 42.8812 123.933C42.8812 119.19 38.8054 115.347 33.773 115.347Z" fill="#F9BD00"/>
</g>
<path d="M16.3281 68.0769C16.3281 68.0769 4.60359 72.2605 1.08738 91.3454C-2.42884 110.43 13.8176 118.631 13.8176 118.631C13.8176 118.631 11.137 103.061 24.5364 101.889C24.5364 101.889 16.0786 67.8237 16.3281 68.0731V68.0769Z" fill="url(#paint1_radial_13_1699)"/>
<path style="mix-blend-mode:multiply" opacity="0.25" d="M24.5326 101.893C24.5326 101.893 16.0748 67.8275 16.3244 68.0769C16.3244 68.0769 13.4509 69.1049 10.1237 72.4532C11.5756 72.8652 13.655 74.3806 14.1503 79.6072C14.9368 87.8534 10.4186 96.2924 9.8288 105.128C9.43559 111.054 5.24259 109.119 1.93054 104.716C5.29552 114.334 13.8101 118.635 13.8101 118.635C13.8101 118.635 11.1294 103.065 24.5289 101.893H24.5326Z" fill="url(#paint2_radial_13_1699)"/>
<path style="mix-blend-mode:multiply" opacity="0.25" d="M24.5326 101.893C24.5326 101.893 16.0747 67.8275 16.3243 68.0769C16.3243 68.0769 14.8233 68.6173 12.7362 70.1782C13.1559 70.6846 14.0747 72.0526 14.7477 74.8454C15.6399 78.5642 17.5758 96.5644 17.1296 98.9453C16.6835 101.326 12.0708 104.452 11.1747 113.673C11.1747 113.673 9.5603 114.655 6.33521 112.388C9.90436 116.655 13.8138 118.631 13.8138 118.631C13.8138 118.631 11.1331 103.061 24.5326 101.889V101.893Z" fill="url(#paint3_radial_13_1699)"/>
<path style="mix-blend-mode:screen" d="M3.64322 103.824C3.64322 103.824 0.584488 96.742 3.47308 86.8632C6.36167 76.9844 10.3807 74.5166 11.1105 76.1303C11.8402 77.7441 5.25387 84.9699 3.64322 103.824Z" fill="url(#paint4_radial_13_1699)"/>
<path style="mix-blend-mode:screen" d="M7.03096 81.1982C7.56785 81.3872 7.54516 82.8195 6.98559 84.3916C6.42602 85.9638 5.53751 87.0862 5.00063 86.8935C4.46374 86.7045 4.48643 85.2722 5.046 83.7001C5.60557 82.1279 6.49408 81.0055 7.03096 81.1982ZM3.40132 90.3892C3.17068 91.3983 3.26521 92.2826 3.60927 92.362C3.95333 92.4413 4.41837 91.6855 4.64901 90.6727C4.87964 89.6636 4.78512 88.7793 4.44106 88.6999C4.097 88.6206 3.63195 89.3764 3.40132 90.3892Z" fill="url(#paint5_radial_13_1699)"/>
<path d="M59.933 68.0769C59.933 68.0769 71.6575 72.2605 75.1737 91.3454C78.69 110.43 62.4435 118.631 62.4435 118.631C62.4435 118.631 65.1242 103.061 51.7247 101.889C51.7247 101.889 60.1826 67.8237 59.933 68.0731V68.0769Z" fill="url(#paint6_radial_13_1699)"/>
<path style="mix-blend-mode:multiply" opacity="0.25" d="M51.7247 101.894C51.7247 101.894 60.1826 67.828 59.933 68.0775C59.933 68.0775 62.8065 69.1054 66.1337 72.4538C64.6818 72.8657 62.6023 74.3812 62.107 79.6078C61.3206 87.854 65.8388 96.2929 66.4286 105.129C66.8256 111.054 71.0148 109.119 74.3268 104.717C70.9618 114.335 62.4473 118.635 62.4473 118.635C62.4473 118.635 65.1279 103.065 51.7285 101.894H51.7247Z" fill="url(#paint7_radial_13_1699)"/>
<path style="mix-blend-mode:multiply" opacity="0.25" d="M51.7247 101.894C51.7247 101.894 60.1826 67.828 59.933 68.0775C59.933 68.0775 61.434 68.6179 63.5211 70.1787C63.1014 70.6851 62.1826 72.0532 61.5097 74.846C60.6174 78.5647 58.6816 96.565 59.1277 98.9459C59.5738 101.327 64.1865 104.452 65.0826 113.673C65.0826 113.673 66.697 114.656 69.9221 112.388C66.353 116.655 62.4435 118.632 62.4435 118.632C62.4435 118.632 65.1242 103.061 51.7247 101.89V101.894Z" fill="url(#paint8_radial_13_1699)"/>
<path style="mix-blend-mode:screen" d="M72.6179 103.824C72.6179 103.824 75.6767 96.742 72.7881 86.8632C69.8995 76.9844 65.8804 74.5166 65.1507 76.1303C64.421 77.7441 71.0073 84.9699 72.6179 103.824Z" fill="url(#paint9_radial_13_1699)"/>
<path style="mix-blend-mode:screen" d="M71.2114 83.7038C71.7709 85.276 71.7898 86.7045 71.2567 86.8973C70.7236 87.09 69.8314 85.9676 69.2718 84.3954C68.7122 82.8233 68.6933 81.3948 69.2264 81.202C69.7595 81.0093 70.6518 82.1317 71.2114 83.7038ZM71.8163 88.7037C71.4723 88.7831 71.3815 89.6636 71.6084 90.6764C71.839 91.6855 72.304 92.4413 72.6481 92.3657C72.9922 92.2864 73.0829 91.4058 72.8561 90.393C72.6254 89.384 72.1604 88.6281 71.8163 88.7037Z" fill="url(#paint10_radial_13_1699)"/>
<path d="M55.4376 44.4117C52.7342 23.1235 41.66 9.81699 41.66 9.81699L38.1627 5.93199V5.91687L38.1552 5.92443L38.1476 5.91687V5.93199L34.6503 9.81699C34.6503 9.81699 23.5761 23.1235 20.8728 44.4117C18.1732 65.6998 25.4665 108.28 25.4665 108.28H25.4817C25.6745 109.659 31.274 110.763 38.1552 110.763C45.0364 110.763 50.6359 109.656 50.8287 108.28H50.8438C50.8438 108.28 58.1371 65.6998 55.4376 44.4117Z" fill="#D30059"/>
<path style="mix-blend-mode:multiply" opacity="0.25" d="M55.5926 45.7873C55.5434 45.3225 55.4943 44.8614 55.4376 44.4117C52.738 23.1235 41.66 9.81699 41.66 9.81699L38.1627 5.93199V5.91687L38.1552 5.92443L38.1476 5.91687V5.93199L34.6503 9.81699C34.6503 9.81699 23.5761 23.1235 20.8728 44.4117C19.8103 52.775 20.2943 64.4225 21.2698 75.4842C22.801 91.8783 25.304 106.504 25.304 106.504H25.3191C25.5119 107.883 31.1114 108.987 37.9926 108.987C40.6619 108.987 43.1346 108.82 45.1763 108.537C45.0023 108.956 44.6885 109.452 44.0987 109.814C42.9153 110.547 30.0565 110.789 25.4892 108.322C25.7841 109.682 31.3382 110.767 38.1514 110.767C44.9645 110.767 50.6321 109.659 50.8249 108.284H50.84C50.84 108.284 51.0328 107.161 51.3429 105.196L50.8627 105.4C51.9176 98.9529 57.1276 65.6545 55.5888 45.7911L55.5926 45.7873Z" fill="url(#paint11_radial_13_1699)"/>
<path d="M58.0994 41.2295C54.9575 19.9414 42.0685 6.63486 42.0685 6.63486L38.0002 2.74986V2.73474L37.9927 2.7423L37.9851 2.73474V2.74986L33.9169 6.63486C33.9169 6.63486 21.0316 19.9414 17.8859 41.2295C14.744 62.5177 23.2283 105.098 23.2283 105.098H23.2472C23.4703 106.477 29.9848 107.581 37.9927 107.581C46.0006 107.581 52.515 106.473 52.7381 105.098H52.757C52.757 105.098 61.2413 62.5177 58.0994 41.2295Z" fill="#F9BD00"/>
<g style="mix-blend-mode:multiply" opacity="0.5">
<path d="M58.0009 40.6135C54.704 19.6844 42.0721 6.63108 42.0721 6.63108L38.0039 2.74607V2.73096L37.9963 2.73852L37.9887 2.73096V2.74607L33.9205 6.63108C33.9205 6.63108 21.0315 19.9414 17.8858 41.2295C16.1504 52.979 17.9576 71.2136 19.9275 85.1966C21.4398 95.5969 22.9597 103.216 22.9597 103.216H22.9787C23.2017 104.595 29.7162 105.699 37.7241 105.699C40.7753 105.699 43.6071 105.536 45.9588 105.264C45.8757 105.672 45.7093 106.126 45.3804 106.319C44.7376 106.704 28.4571 108.015 23.2131 105.015L23.2282 105.098H23.2471C23.4702 106.477 29.9846 107.581 37.9925 107.581C46.0004 107.581 52.5149 106.473 52.7379 105.098H52.7569C52.7569 105.098 53.1274 103.231 53.687 100.09L53.0064 100.48C54.7607 90.9712 60.2354 58.9124 58.0009 40.6135Z" fill="#F9BD00"/>
</g>
<path d="M60.262 38.5993C56.7684 17.4698 42.4389 4.26155 42.4389 4.26155L37.9132 0.406779V0.391663L37.9056 0.399221L37.8981 0.391663V0.406779L33.3724 4.26155C33.3724 4.26155 19.0428 17.4698 15.5493 38.5993C12.0558 59.7287 21.4891 101.991 21.4891 101.991H21.508C21.7575 103.359 28.9979 104.459 37.9056 104.459C46.8134 104.459 54.0538 103.363 54.3033 101.991H54.3222C54.3222 101.991 63.7593 59.7287 60.262 38.5993Z" fill="#FBE6C4"/>
<g style="mix-blend-mode:screen" opacity="0.5">
<g style="mix-blend-mode:screen" opacity="0.5">
<path d="M40.0116 2.50042L43.3804 5.36883C43.3426 5.33103 43.3161 5.30836 43.3161 5.30836L40.0154 2.49664V2.5042L40.0116 2.50042Z" fill="#FBE6C4"/>
</g>
<g style="mix-blend-mode:screen" opacity="0.5">
<path d="M39.9927 2.48531L40.0003 2.49287L38.7829 1.45359V1.43848L38.7753 1.44603L38.7677 1.43848V1.45359L34.242 5.30837C34.242 5.30837 19.9163 18.5166 16.419 39.6461C13.1069 59.672 21.4059 98.6694 22.2831 102.694C22.5705 102.834 22.9334 102.966 23.3644 103.095C21.9844 96.6476 14.4567 59.9252 17.6364 40.6929C21.1375 19.5635 35.467 6.3552 35.467 6.3552L39.9927 2.50043V2.48531Z" fill="#FBE6C4"/>
</g>
</g>
<g style="mix-blend-mode:screen" opacity="0.5">
<path d="M32.6729 104.304C29.5688 88.5903 20.1242 31.9365 38.3594 2.10364C38.3594 2.10364 22.612 17.7986 20.1204 40.9839C17.9048 61.5956 23.5686 95.9862 24.8503 103.371C26.7634 103.794 29.4856 104.123 32.6729 104.304Z" fill="#FBE6C4"/>
</g>
<path style="mix-blend-mode:multiply" opacity="0.25" d="M46.0119 103.9C49.116 88.186 58.5606 31.5322 40.3254 1.69928C40.3254 1.69928 56.0728 17.3943 58.5644 40.5796C60.78 61.1913 55.1162 95.5819 53.8345 102.966C51.9214 103.39 49.1992 103.718 46.0119 103.9Z" fill="url(#paint12_radial_13_1699)"/>
<path style="mix-blend-mode:multiply" opacity="0.25" d="M42.4389 4.26155L37.9132 0.406779V0.391663L37.9057 0.399221L37.8981 0.391663V0.406779L37.6297 0.633531C48.995 10.5917 58.9916 48.1342 54.0538 69.6755C50.4847 85.2458 40.7867 95.7368 28.6803 88.9872C20.8917 84.6449 17.4209 73.2695 15.7006 66.0853C17.5418 84.301 21.4929 101.991 21.4929 101.991H21.5118C21.7613 103.359 29.0017 104.459 37.9094 104.459C46.8172 104.459 54.0576 103.363 54.3071 101.991H54.326C54.326 101.991 63.7631 59.7287 60.2658 38.5993C56.7685 17.4698 42.4389 4.26155 42.4389 4.26155Z" fill="url(#paint13_radial_13_1699)"/>
<path style="mix-blend-mode:multiply" opacity="0.25" d="M37.7469 24.9111C43.9967 24.9111 50.065 24.6087 55.8838 24.0532C53.4753 18.5998 50.6057 14.1366 48.133 10.8336C45.01 7.06952 42.628 5.02498 42.628 5.02498L37.7582 1.17021V1.15509L37.7469 1.16265L37.7355 1.15509V1.17021L32.8658 5.02498C32.8658 5.02498 31.9432 5.81483 30.5027 7.31139C27.686 10.569 23.3304 16.3361 19.9163 24.0796C25.6405 24.6163 31.6067 24.9111 37.7507 24.9111H37.7469Z" fill="url(#paint14_radial_13_1699)"/>
<path d="M38.0039 23.9511C44.0798 23.9511 49.9742 23.6223 55.6039 23.0139C50.1254 11.0603 42.5372 4.06123 42.5372 4.06123L38.0153 0.206462V0.191345L38.0077 0.198904L38.0001 0.191345V0.206462L33.4744 4.06123C33.4744 4.06123 25.89 11.0603 20.4077 23.0139C26.0374 23.6223 31.9318 23.9511 38.0077 23.9511H38.0039Z" fill="#F9BD00"/>
<g style="mix-blend-mode:screen">
<path d="M37.7771 20.9655C43.4711 20.9655 48.9609 20.6405 54.1445 20.0396C51.9554 15.8372 49.5848 12.3679 47.562 9.75267C44.802 6.64618 42.7943 4.96822 42.7943 4.96822L37.7884 1.11344V1.09833L37.7771 1.10589L37.7658 1.09833V1.11344L32.7599 4.96822C32.7599 4.96822 32.2608 5.38393 31.4252 6.18134C29.1227 8.73229 25.2548 13.5092 21.8369 20.0887C26.8957 20.6556 32.2419 20.9655 37.7771 20.9655Z" fill="#F9BD00"/>
</g>
<path d="M38.004 20.0585C43.4484 20.0585 48.6925 19.6957 53.6114 19.0306C48.4543 9.52216 42.5372 4.06123 42.5372 4.06123L38.0153 0.206462V0.191345L38.0077 0.198904L38.0002 0.191345V0.206462L33.4745 4.06123C33.4745 4.06123 27.5574 9.52216 22.4003 19.0306C27.323 19.6957 32.5633 20.0585 38.0077 20.0585H38.004Z" fill="url(#paint15_radial_13_1699)"/>
<path style="mix-blend-mode:multiply" opacity="0.25" d="M54.084 64.2032C54.084 69.8494 51.0782 74.7925 46.5827 77.5249C45.94 77.9141 45.267 78.2618 44.5675 78.5566C44.1025 78.7531 43.6223 78.927 43.1346 79.0819C41.6714 79.5354 40.1137 79.7811 38.4992 79.7811C38.2421 79.7811 37.9888 79.7735 37.7355 79.7622C37.6523 79.7584 37.5691 79.7508 37.4859 79.7433C37.3158 79.7319 37.1457 79.7206 36.9793 79.7055C36.881 79.6941 36.7827 79.6828 36.6844 79.6715C36.5332 79.6526 36.3819 79.6375 36.2345 79.6148C36.1324 79.5997 36.0265 79.5808 35.9244 79.5656C35.7808 79.543 35.6409 79.5165 35.4972 79.4901C35.3913 79.4712 35.2893 79.4485 35.1834 79.4258C35.0473 79.3956 34.9074 79.3653 34.7713 79.3313C34.6654 79.3049 34.5633 79.2784 34.4612 79.252C34.3251 79.2142 34.1928 79.1764 34.0605 79.1386C33.9584 79.1084 33.8563 79.0781 33.7542 79.0441C33.6219 79.0025 33.4896 78.9572 33.3572 78.9081C33.2589 78.8741 33.1606 78.84 33.0661 78.806C32.93 78.7569 32.7939 78.7002 32.6615 78.6473C32.5708 78.6095 32.4801 78.5755 32.3931 78.5377C32.2381 78.4697 32.0831 78.3979 31.9281 78.3261C31.8638 78.2958 31.7995 78.2694 31.7352 78.2392C31.5235 78.1371 31.3156 78.0313 31.1114 77.9179C31.0244 77.8688 30.9375 77.8197 30.8505 77.7705C30.7295 77.7025 30.6123 77.6345 30.4913 77.5665C30.393 77.506 30.2985 77.4455 30.204 77.3851C30.0981 77.317 29.9922 77.2528 29.8902 77.1848C29.7919 77.1205 29.6936 77.0525 29.5953 76.9845C29.4969 76.9164 29.4024 76.8484 29.3079 76.7804C29.2096 76.7086 29.1113 76.633 29.0168 76.5612C28.926 76.4932 28.8353 76.4214 28.7483 76.3496C28.65 76.2702 28.5555 76.1908 28.4572 76.1115C28.374 76.0397 28.2908 75.9679 28.2077 75.8961C28.1094 75.8091 28.0148 75.726 27.9203 75.6391C27.8447 75.5673 27.7691 75.4955 27.6935 75.4199C27.5989 75.3292 27.5006 75.2347 27.4099 75.1402C27.3418 75.0722 27.2738 75.0004 27.2095 74.9286C27.1112 74.8265 27.0167 74.7245 26.9222 74.6225C26.8692 74.5658 26.8201 74.5053 26.7672 74.4448C26.4042 74.0291 26.0601 73.5907 25.7425 73.1372C25.7085 73.0881 25.6745 73.0428 25.6405 72.9974C25.5497 72.8651 25.4665 72.7329 25.3796 72.6006C25.338 72.5364 25.2964 72.4721 25.2548 72.4041C25.1754 72.2718 25.096 72.1395 25.0204 72.0073C24.9788 71.9355 24.9372 71.8637 24.8956 71.7919C24.82 71.6596 24.7482 71.5235 24.6801 71.3875C24.6423 71.3119 24.6045 71.2401 24.5667 71.1645C24.4986 71.0285 24.4306 70.8886 24.3663 70.7488C24.3323 70.6732 24.2982 70.5976 24.2642 70.522C24.1999 70.3784 24.1394 70.2348 24.0789 70.0912C24.0487 70.0194 24.0222 69.9476 23.992 69.872C23.9315 69.7209 23.8748 69.5697 23.8218 69.4185C23.7992 69.3543 23.7765 69.2863 23.7538 69.222C23.6971 69.0595 23.6441 68.897 23.595 68.7307C23.5837 68.6929 23.5723 68.6513 23.561 68.6136C23.4022 68.0694 23.2698 67.5138 23.1715 66.9469C23.1602 66.8789 23.1451 66.8109 23.1337 66.7429C23.1337 66.7202 23.1262 66.7013 23.1224 66.6786C23.1035 66.5652 23.0884 66.4519 23.0732 66.3385C23.0581 66.2251 23.043 66.1155 23.0316 66.0021C23.0203 65.8888 23.0052 65.7716 22.9938 65.6545C22.9787 65.5071 22.9711 65.3635 22.9598 65.2161C22.9522 65.1254 22.9485 65.0347 22.9409 64.944C22.9296 64.7021 22.922 64.4564 22.922 64.2108C22.922 63.4058 22.9825 62.6122 23.0997 61.8375C23.6139 58.4853 25.1943 55.4847 27.4855 53.1945C27.8371 52.843 28.2077 52.5067 28.5933 52.1892C28.979 51.8717 29.3797 51.5732 29.7919 51.2935C32.2797 49.6156 35.2779 48.633 38.503 48.633C38.7525 48.633 38.9983 48.6405 39.2441 48.6519C39.3235 48.6519 39.4029 48.6632 39.4823 48.667C39.6486 48.6783 39.815 48.6897 39.9813 48.7048C40.0721 48.7123 40.1628 48.7237 40.2536 48.735C40.4086 48.7539 40.5636 48.7728 40.7148 48.7955C40.8056 48.8068 40.8963 48.8219 40.987 48.8371C41.1458 48.8635 41.3009 48.89 41.4597 48.9202C41.539 48.9353 41.6222 48.9504 41.7016 48.9656C41.9134 49.0109 42.1213 49.0563 42.3255 49.1092C42.3595 49.1167 42.3935 49.1243 42.4276 49.1356C42.6431 49.1923 42.8586 49.2528 43.0703 49.317C43.1535 49.3435 43.2367 49.3699 43.3236 49.4002C43.4635 49.4455 43.6034 49.4909 43.7433 49.54C43.8378 49.574 43.9323 49.608 44.0269 49.6458C44.1516 49.6949 44.2764 49.7441 44.4012 49.7932C44.4995 49.831 44.594 49.8726 44.6885 49.9141C44.8095 49.967 44.9305 50.0199 45.0477 50.0766C45.1422 50.1182 45.2368 50.1636 45.3275 50.2089C45.456 50.2732 45.5846 50.3374 45.7131 50.4054C45.8606 50.4848 46.008 50.5642 46.1555 50.6435C46.2727 50.7115 46.3937 50.7758 46.5071 50.8476C46.613 50.9118 46.7151 50.9761 46.8172 51.0403C46.9079 51.097 46.9986 51.1537 47.0856 51.2142C47.1915 51.286 47.2973 51.3578 47.4032 51.4296C47.4826 51.4863 47.562 51.543 47.6414 51.5996C47.751 51.679 47.8569 51.7584 47.9628 51.8377C48.0308 51.8906 48.0989 51.9473 48.1707 52.0002C48.2841 52.0872 48.3938 52.1779 48.5034 52.2686C48.545 52.3026 48.5828 52.3366 48.6206 52.3706C49.0328 52.7221 49.4222 53.0924 49.7965 53.4855C49.8343 53.5233 49.8683 53.5611 49.9061 53.5988C50.0196 53.7198 50.1292 53.8407 50.2351 53.9654C50.2729 54.007 50.3069 54.0486 50.3447 54.0901C50.4544 54.2186 50.5602 54.3471 50.6661 54.4794C50.6926 54.5134 50.7152 54.5436 50.7417 54.5777C51.237 55.205 51.6832 55.8701 52.0801 56.5693C52.0839 56.5768 52.0877 56.5844 52.0953 56.592C52.1898 56.7582 52.2805 56.9283 52.3675 57.1021C52.3788 57.1248 52.3902 57.1513 52.4053 57.174C52.4923 57.344 52.5754 57.5179 52.6586 57.6955C52.6662 57.7068 52.67 57.7219 52.6775 57.7371C53.0254 58.4929 53.3127 59.2827 53.5358 60.099C53.5812 60.2691 53.6227 60.4392 53.6643 60.6092C53.7286 60.8851 53.7891 61.1648 53.8383 61.4482C53.842 61.4747 53.8458 61.4973 53.8534 61.5238C53.8987 61.777 53.9366 62.0302 53.9668 62.2872C53.9744 62.3363 53.9819 62.3855 53.9857 62.4384C54.0122 62.6727 54.0349 62.9108 54.05 63.1451C54.0538 63.2093 54.0613 63.2698 54.0651 63.334C54.0802 63.625 54.0916 63.916 54.0916 64.2108L54.084 64.2032ZM47.5771 91.8518C47.5771 91.814 47.5696 91.78 47.5696 91.7422C47.562 91.6024 47.5469 91.4663 47.5317 91.3265C47.5317 91.2962 47.5242 91.2698 47.5204 91.2396C47.5015 91.0884 47.4788 90.941 47.4523 90.7936L47.4448 90.7483C47.3087 89.9849 47.078 89.2555 46.7642 88.5752V88.5677C46.6584 88.3447 46.5487 88.1293 46.4277 87.9177C46.1933 87.4944 45.9249 87.0938 45.6262 86.7197L45.6073 86.6932C45.4598 86.5118 45.3086 86.3342 45.1498 86.1641C45.1422 86.1566 45.1309 86.1452 45.1233 86.1377C44.8057 85.8013 44.4617 85.4876 44.0949 85.2004C44.076 85.1853 44.0571 85.1702 44.042 85.1588C43.8643 85.0228 43.6828 84.8943 43.4975 84.7696C43.4749 84.7545 43.4522 84.7431 43.4333 84.728C43.0552 84.4824 42.6544 84.267 42.2423 84.078C42.212 84.0629 42.1818 84.0478 42.1478 84.0364C41.9474 83.9495 41.747 83.8701 41.539 83.7946C41.505 83.7832 41.4672 83.7719 41.4332 83.7605C41.0059 83.6169 40.5674 83.5036 40.1174 83.4204C40.0759 83.4129 40.038 83.4053 39.9965 83.3977C39.7809 83.3637 39.5579 83.3335 39.3386 83.3146C39.297 83.3108 39.2554 83.307 39.21 83.3033C38.9794 83.2844 38.745 83.273 38.5106 83.273C36.1589 83.273 34.0113 84.1687 32.3969 85.635C32.1814 85.8315 31.9772 86.0356 31.7806 86.251C31.2929 86.7877 30.8656 87.3848 30.5178 88.031C29.8183 89.3197 29.4213 90.7936 29.4213 92.362C29.4213 92.5963 29.4327 92.8268 29.4516 93.0573C29.4516 93.0951 29.4554 93.1329 29.4591 93.1707C29.478 93.3824 29.5045 93.594 29.5348 93.8018C29.5348 93.8018 29.5423 93.8359 29.5423 93.851C29.5423 93.8661 29.5499 93.885 29.5499 93.9001C29.6331 94.3801 29.7503 94.8449 29.9053 95.2984C29.9053 95.2984 29.9166 95.3286 29.9204 95.3475C29.9242 95.3626 29.9317 95.3778 29.9355 95.3929C30.0187 95.6272 30.1132 95.8577 30.2115 96.0845C30.2229 96.1072 30.2304 96.1298 30.2418 96.1487C30.3439 96.3717 30.4535 96.5909 30.5745 96.8025C30.5858 96.8214 30.5972 96.8403 30.6085 96.8592C30.7333 97.0746 30.8618 97.2863 31.0017 97.4903C31.0055 97.4979 31.0093 97.5017 31.0131 97.5092C31.3004 97.9287 31.6218 98.318 31.9734 98.6808C31.9885 98.6959 32.0037 98.711 32.0188 98.7261C32.1852 98.8962 32.3591 99.0587 32.5368 99.2136C32.5595 99.2363 32.5859 99.2552 32.6086 99.2741C32.7863 99.4253 32.9716 99.5727 33.1606 99.7087C33.1871 99.7276 33.2136 99.7465 33.24 99.7654C33.4328 99.9015 33.6332 100.034 33.8374 100.158C33.8563 100.17 33.8752 100.181 33.8941 100.189C34.1096 100.313 34.3251 100.434 34.552 100.544C34.7751 100.654 35.0019 100.748 35.2325 100.839C35.259 100.85 35.2855 100.861 35.3157 100.873C35.535 100.956 35.7619 101.028 35.9887 101.096C36.0265 101.107 36.0643 101.118 36.1021 101.13C36.329 101.19 36.5596 101.243 36.7903 101.288C36.8281 101.296 36.8697 101.304 36.9075 101.311C37.1457 101.353 37.3839 101.387 37.6296 101.409C37.6599 101.409 37.6901 101.413 37.7204 101.417C37.9775 101.44 38.2383 101.451 38.4992 101.451C39.9095 101.451 41.2479 101.13 42.4389 100.555C42.8359 100.363 43.2178 100.143 43.5807 99.8977C44.4276 99.327 45.1725 98.6165 45.7812 97.8002C45.9551 97.5659 46.1177 97.324 46.2727 97.0746C46.3483 96.9499 46.4202 96.8214 46.492 96.6929C47.1915 95.4042 47.5885 93.9303 47.5885 92.362C47.5885 92.1881 47.5809 92.0181 47.5733 91.848L47.5771 91.8518ZM29.4478 36.8533C29.4667 37.0649 29.4932 37.2765 29.5234 37.4844C29.5234 37.4844 29.531 37.5184 29.531 37.5335C29.531 37.5486 29.5385 37.5675 29.5385 37.5826C29.6217 38.0626 29.7389 38.5274 29.8939 38.9809C29.8939 38.9809 29.9053 39.0112 29.9091 39.0301C29.9128 39.0452 29.9204 39.0603 29.9242 39.0754C30.0074 39.3097 30.1019 39.5403 30.2002 39.767C30.2115 39.7897 30.2191 39.8124 30.2304 39.8313C30.3325 40.0542 30.4422 40.2734 30.5632 40.4851C30.5745 40.504 30.5858 40.5228 30.5972 40.5417C30.722 40.7572 30.8505 40.9688 30.9904 41.1729C30.9942 41.1804 30.998 41.1842 31.0017 41.1918C31.2891 41.6113 31.6105 42.0005 31.9659 42.3671C31.981 42.3822 31.9961 42.3973 32.0112 42.4124C32.1776 42.5825 32.3515 42.745 32.533 42.9C32.5557 42.9226 32.5821 42.9415 32.6048 42.9604C32.7825 43.1116 32.9678 43.259 33.1568 43.395C33.1833 43.4139 33.2098 43.4328 33.2362 43.4517C33.4291 43.5916 33.6294 43.72 33.8336 43.8448C33.8525 43.8561 33.8714 43.8674 33.8865 43.875C34.1021 43.9997 34.3213 44.1206 34.5444 44.2302C34.7675 44.3398 34.9943 44.4343 35.225 44.525C35.2514 44.5363 35.2779 44.5477 35.3044 44.5552C35.5237 44.6384 35.7505 44.7102 35.9812 44.7782C36.019 44.7896 36.0568 44.8009 36.0946 44.8122C36.3214 44.8727 36.5521 44.9294 36.7865 44.971C36.8243 44.9785 36.8659 44.9861 36.9037 44.9936C37.1419 45.0352 37.3839 45.0692 37.6258 45.0919C37.6561 45.0919 37.6863 45.0957 37.7166 45.0994C37.9737 45.1221 38.2346 45.1335 38.4954 45.1335C42.1024 45.1335 45.2216 43.0322 46.6886 39.9862C46.7529 39.8539 46.8134 39.7179 46.8701 39.5818C46.9835 39.3097 47.0856 39.0301 47.1763 38.7466C47.441 37.8925 47.5847 36.9855 47.5847 36.0445C47.5847 35.8707 47.5771 35.7006 47.5696 35.5305C47.5696 35.4928 47.562 35.4587 47.562 35.4209C47.5506 35.2811 47.5393 35.1451 47.5242 35.0052C47.5242 34.975 47.5166 34.9485 47.5128 34.9183C47.4939 34.7671 47.4713 34.6198 47.4448 34.4724L47.4372 34.427C47.3011 33.6636 47.0705 32.938 46.7567 32.254V32.2464C46.6508 32.0272 46.5412 31.808 46.4202 31.5964C46.1858 31.1731 45.9173 30.7725 45.6186 30.3984L45.5997 30.3719C45.4523 30.1905 45.301 30.0129 45.1422 29.8429C45.1347 29.8353 45.1233 29.824 45.1158 29.8164C44.7982 29.4801 44.4541 29.1664 44.0874 28.8792C44.0685 28.8641 44.0496 28.8489 44.0344 28.8376C43.8567 28.7015 43.6752 28.5731 43.49 28.4483C43.4673 28.4332 43.4446 28.4219 43.4257 28.4068C43.0476 28.1611 42.6468 27.9457 42.2347 27.7568C42.2045 27.7416 42.1742 27.7265 42.1402 27.7152C41.9398 27.6283 41.7394 27.5489 41.5315 27.4733C41.4975 27.462 41.4597 27.4506 41.4256 27.4393C40.9984 27.2957 40.5598 27.1823 40.1099 27.0992C40.0683 27.0916 40.0305 27.0841 39.9889 27.0765C39.7734 27.0425 39.5503 27.0122 39.331 26.9934C39.2894 26.9896 39.2478 26.9858 39.2025 26.982C38.9718 26.9631 38.7374 26.9518 38.503 26.9518C33.482 26.9518 29.4138 31.0182 29.4138 36.037C29.4138 36.2713 29.4251 36.5018 29.444 36.7323C29.444 36.7701 29.4478 36.8079 29.4516 36.8457L29.4478 36.8533Z" fill="url(#paint16_radial_13_1699)"/>
<path d="M49.136 74.0588C55.2208 67.9768 55.2208 58.1159 49.136 52.0338C43.0513 45.9518 33.1859 45.9518 27.1012 52.0338C21.0164 58.1159 21.0164 67.9768 27.1012 74.0588C33.1859 80.1409 43.0513 80.1409 49.136 74.0588Z" fill="url(#paint17_radial_13_1699)"/>
<path style="mix-blend-mode:screen" d="M22.8162 63.9614C22.8162 55.3599 29.7919 48.3873 38.3972 48.3873C45.2406 48.3873 51.0518 52.8014 53.1426 58.9313C51.3353 52.329 45.2935 47.4728 38.1136 47.4728C29.5083 47.4728 22.5326 54.4454 22.5326 63.0468C22.5326 64.8079 22.8275 66.4972 23.3682 68.0769C23.009 66.7655 22.8124 65.3861 22.8124 63.9614H22.8162Z" fill="url(#paint18_radial_13_1699)"/>
<path style="mix-blend-mode:multiply" opacity="0.5" d="M53.2711 59.4377C53.3996 60.2426 53.4677 61.0627 53.4677 61.9017C53.4677 70.5031 46.492 77.4757 37.8867 77.4757C30.5253 77.4757 24.3587 72.3701 22.7291 65.5071C23.9125 72.9369 30.3476 78.6171 38.1135 78.6171C46.7188 78.6171 53.6945 71.6445 53.6945 63.043C53.6945 61.7997 53.5433 60.5941 53.2711 59.4339V59.4377Z" fill="url(#paint19_radial_13_1699)"/>
<path style="mix-blend-mode:screen" d="M50.8543 65.5941C51.9528 58.6381 47.2017 52.109 40.2426 51.011C33.2834 49.913 26.7514 54.6619 25.6529 61.6179C24.5544 68.574 29.3055 75.1031 36.2646 76.201C43.2238 77.299 49.7558 72.5502 50.8543 65.5941Z" fill="url(#paint20_radial_13_1699)"/>
<path style="mix-blend-mode:multiply" opacity="0.5" d="M37.9774 75.1024C45.0227 75.1024 50.7341 69.3936 50.7341 62.3514C50.7341 55.3093 45.0227 49.6005 37.9774 49.6005C30.9321 49.6005 25.2207 55.3093 25.2207 62.3514C25.2207 69.3936 30.9321 75.1024 37.9774 75.1024Z" fill="url(#paint21_radial_13_1699)"/>
<path d="M47.1389 72.0626C52.1207 67.0831 52.1207 59.0096 47.1389 54.03C42.1571 49.0505 34.08 49.0504 29.0982 54.03C24.1164 59.0096 24.1164 67.0831 29.0982 72.0626C34.08 77.0422 42.1571 77.0422 47.1389 72.0626Z" fill="url(#paint22_radial_13_1699)"/>
<path style="mix-blend-mode:screen" d="M38.4311 59.2903C40.3253 59.2903 42.2082 59.7627 43.8756 60.6621C45.3085 61.4369 47.0704 64.0143 48.8285 63.6666C51.4751 63.1413 48.6811 56.66 46.6848 54.6079C44.3293 52.1816 41.4369 50.8362 38.053 50.8362C31.7163 50.8362 26.5024 55.5829 26.5024 61.9168C26.5024 62.8049 27.1149 64.2183 28.1622 64.2826C29.3683 64.3544 29.9884 62.9145 30.8278 62.17C32.9148 60.322 35.6408 59.2903 38.4273 59.2903H38.4311Z" fill="url(#paint23_radial_13_1699)"/>
<path style="mix-blend-mode:screen" d="M47.0364 58.8973C47.0364 57.0115 46.5109 55.2466 45.6035 53.7425C43.5542 52.0343 40.919 51.0026 38.0379 51.0026C33.0888 51.0026 28.8542 54.0448 27.0961 58.3569C27.0885 58.5345 27.0809 58.7121 27.0809 58.8935C27.0809 64.4036 31.5499 68.8668 37.0587 68.8668C42.5674 68.8668 47.0364 64.3998 47.0364 58.8935V58.8973Z" fill="url(#paint24_radial_13_1699)"/>
<path style="mix-blend-mode:multiply" d="M50.4619 59.8345C50.5111 60.288 50.5375 60.749 50.5375 61.2177C50.5375 68.2583 44.8284 73.9686 37.7808 73.9686C31.8449 73.9686 26.8579 69.9173 25.4325 64.43C26.1206 70.8206 31.5348 75.7978 38.1136 75.7978C45.1573 75.7978 50.8703 70.0912 50.8703 63.0468C50.8703 61.9395 50.7266 60.8624 50.4619 59.8382V59.8345Z" fill="url(#paint25_radial_13_1699)"/>
<path d="M45.006 54.0297C44.851 54.4983 43.6903 54.5398 42.4085 54.1204C41.1306 53.7009 40.2156 52.979 40.3706 52.5104C40.5257 52.0418 41.6864 52.0002 42.9681 52.4197C44.246 52.8392 45.1572 53.561 45.006 54.0297Z" fill="white"/>
<path d="M39.089 52.4122C39.0701 52.7636 38.2761 53.0131 37.3157 52.9602C36.3554 52.9073 35.5879 52.5823 35.6068 52.2308C35.6257 51.8793 36.4197 51.6299 37.38 51.6828C38.3404 51.7319 39.1079 52.0607 39.089 52.4122Z" fill="white"/>
<path opacity="0.5" d="M35.7959 67.3702C35.7959 67.3702 36.1778 68.2546 36.4009 68.4776C36.6239 68.7005 37.5087 69.0822 37.5087 69.0822C37.5087 69.0822 36.6239 69.4639 36.4009 69.6869C36.1778 69.9099 35.7959 70.7942 35.7959 70.7942C35.7959 70.7942 35.4141 69.9099 35.191 69.6869C34.9679 69.4639 34.0832 69.0822 34.0832 69.0822C34.0832 69.0822 34.9679 68.7005 35.191 68.4776C35.4141 68.2546 35.7959 67.3702 35.7959 67.3702ZM37.0739 62.6311C36.9491 62.7559 36.4614 62.9637 36.4614 62.9637C36.4614 62.9637 36.9491 63.1753 37.0739 63.2963C37.1986 63.421 37.4066 63.9085 37.4066 63.9085C37.4066 63.9085 37.6183 63.421 37.7393 63.2963C37.8603 63.1716 38.3518 62.9637 38.3518 62.9637C38.3518 62.9637 37.8641 62.7521 37.7393 62.6311C37.6145 62.5064 37.4066 62.0189 37.4066 62.0189C37.4066 62.0189 37.1948 62.5064 37.0739 62.6311ZM38.7942 57.3592C38.6694 57.4839 38.1817 57.6917 38.1817 57.6917C38.1817 57.6917 38.6694 57.9034 38.7942 58.0243C38.9189 58.149 39.1269 58.6365 39.1269 58.6365C39.1269 58.6365 39.3386 58.149 39.4596 58.0243C39.5844 57.8996 40.0721 57.6917 40.0721 57.6917C40.0721 57.6917 39.5844 57.4801 39.4596 57.3592C39.3348 57.2382 39.1269 56.7469 39.1269 56.7469C39.1269 56.7469 38.9151 57.2345 38.7942 57.3592ZM43.422 69.4753C43.3085 69.5886 42.8662 69.7814 42.8662 69.7814C42.8662 69.7814 43.3123 69.9741 43.422 70.0875C43.5316 70.2009 43.7282 70.643 43.7282 70.643C43.7282 70.643 43.921 70.1971 44.0345 70.0875C44.1479 69.9741 44.5902 69.7814 44.5902 69.7814C44.5902 69.7814 44.1441 69.5886 44.0345 69.4753C43.9248 69.3619 43.7282 68.9197 43.7282 68.9197C43.7282 68.9197 43.5354 69.3657 43.422 69.4753ZM30.5065 63.7196C30.393 63.8329 29.9507 64.0257 29.9507 64.0257C29.9507 64.0257 30.3968 64.2184 30.5065 64.3318C30.6199 64.4452 30.8127 64.8873 30.8127 64.8873C30.8127 64.8873 31.0055 64.4414 31.119 64.3318C31.2324 64.2184 31.6748 64.0257 31.6748 64.0257C31.6748 64.0257 31.2286 63.8329 31.119 63.7196C31.0055 63.6062 30.8127 63.164 30.8127 63.164C30.8127 63.164 30.6199 63.61 30.5065 63.7196ZM45.1536 59.8005C44.9872 59.9668 44.318 60.2578 44.318 60.2578C44.318 60.2578 44.9835 60.545 45.1536 60.7151C45.3237 60.8852 45.6111 61.5503 45.6111 61.5503C45.6111 61.5503 45.8984 60.8852 46.0686 60.7151C46.2349 60.5488 46.9041 60.2578 46.9041 60.2578C46.9041 60.2578 46.2387 59.9706 46.0686 59.8005C45.9022 59.6342 45.6111 58.9653 45.6111 58.9653C45.6111 58.9653 45.3237 59.6305 45.1536 59.8005Z" fill="white"/>
<path d="M45.1206 96.9978C48.3197 93.1311 47.7771 87.4043 43.9087 84.2066C40.0403 81.009 34.3109 81.5513 31.1118 85.418C27.9127 89.2847 28.4553 95.0115 32.3237 98.2091C36.1921 101.407 41.9215 100.864 45.1206 96.9978Z" fill="url(#paint26_radial_13_1699)"/>
<path style="mix-blend-mode:screen" d="M29.1908 91.7384C29.1908 86.7196 33.259 82.6532 38.28 82.6532C42.2726 82.6532 45.6603 85.2269 46.8815 88.8057C45.8266 84.9548 42.3029 82.1204 38.1136 82.1204C33.0926 82.1204 29.0244 86.1868 29.0244 91.2055C29.0244 92.2335 29.1983 93.2198 29.5121 94.142C29.3042 93.3786 29.1908 92.5736 29.1908 91.7422V91.7384Z" fill="url(#paint27_radial_13_1699)"/>
<path style="mix-blend-mode:multiply" opacity="0.5" d="M46.9571 89.1005C47.0327 89.5691 47.0705 90.0491 47.0705 90.5404C47.0705 95.5592 43.0023 99.6256 37.9813 99.6256C33.6862 99.6256 30.0906 96.6476 29.1378 92.6454C29.8259 96.9801 33.5841 100.294 38.1136 100.294C43.1346 100.294 47.2029 96.2281 47.2029 91.2093C47.2029 90.4837 47.1159 89.7808 46.9533 89.1043L46.9571 89.1005Z" fill="url(#paint28_radial_13_1699)"/>
<path style="mix-blend-mode:screen" d="M38.1968 98.9642C42.3062 98.9642 45.6375 95.6343 45.6375 91.5267C45.6375 87.4191 42.3062 84.0893 38.1968 84.0893C34.0873 84.0893 30.756 87.4191 30.756 91.5267C30.756 95.6343 34.0873 98.9642 38.1968 98.9642Z" fill="url(#paint29_radial_13_1699)"/>
<path style="mix-blend-mode:multiply" opacity="0.5" d="M38.0342 98.2348C42.1436 98.2348 45.4749 94.905 45.4749 90.7974C45.4749 86.6898 42.1436 83.3599 38.0342 83.3599C33.9247 83.3599 30.5934 86.6898 30.5934 90.7974C30.5934 94.905 33.9247 98.2348 38.0342 98.2348Z" fill="url(#paint30_radial_13_1699)"/>
<path d="M38.1174 98.643C42.2268 98.643 45.5582 95.3131 45.5582 91.2055C45.5582 87.0979 42.2268 83.7681 38.1174 83.7681C34.008 83.7681 30.6766 87.0979 30.6766 91.2055C30.6766 95.3131 34.008 98.643 38.1174 98.643Z" fill="url(#paint31_radial_13_1699)"/>
<path style="mix-blend-mode:screen" d="M38.2989 89.0136C39.4029 89.0136 40.5031 89.2895 41.4748 89.8148C42.3104 90.2645 43.3388 91.7724 44.3634 91.5684C45.906 91.2622 44.2764 87.4831 43.1119 86.2851C41.7395 84.8716 40.0494 84.0856 38.0758 84.0856C34.3781 84.0856 31.3383 86.8557 31.3383 90.548C31.3383 91.0657 31.6974 91.8896 32.3062 91.9274C33.0094 91.969 33.3724 91.13 33.8601 90.6954C35.0775 89.6183 36.6693 89.0174 38.2951 89.0174L38.2989 89.0136Z" fill="url(#paint32_radial_13_1699)"/>
<path style="mix-blend-mode:screen" d="M43.3199 88.783C43.3199 87.6833 43.0137 86.6554 42.4843 85.7786C41.2896 84.7809 39.7508 84.18 38.0721 84.18C35.1835 84.18 32.7145 85.9562 31.6861 88.4694C31.6824 88.5714 31.6786 88.6772 31.6786 88.783C31.6786 91.9954 34.2836 94.603 37.5011 94.603C40.7187 94.603 43.3237 91.9991 43.3237 88.783H43.3199Z" fill="url(#paint33_radial_13_1699)"/>
<path style="mix-blend-mode:multiply" d="M45.32 89.331C45.3503 89.5956 45.3654 89.8639 45.3654 90.136C45.3654 94.244 42.0344 97.5735 37.9246 97.5735C34.4613 97.5735 31.5538 95.2077 30.722 92.0067C31.1228 95.7368 34.2836 98.6392 38.1174 98.6392C42.2273 98.6392 45.5582 95.3097 45.5582 91.2018C45.5582 90.5555 45.475 89.9282 45.32 89.3273V89.331Z" fill="url(#paint34_radial_13_1699)"/>
<path d="M42.1364 85.9449C42.0456 86.2208 41.3688 86.2435 40.6202 85.9978C39.8754 85.7522 39.3423 85.3327 39.433 85.0568C39.5238 84.7809 40.2006 84.7582 40.9492 85.0039C41.694 85.2495 42.2271 85.669 42.1364 85.9449Z" fill="white"/>
<path d="M38.6845 85.0001C38.6731 85.208 38.2119 85.3516 37.6485 85.3213C37.0889 85.2911 36.6428 85.1021 36.6504 84.8943C36.6617 84.6864 37.123 84.5428 37.6863 84.573C38.2459 84.6033 38.692 84.7922 38.6845 85.0001Z" fill="white"/>
<path opacity="0.5" d="M36.7601 93.7263C36.7601 93.7263 36.9832 94.2402 37.1117 94.3725C37.2403 94.501 37.7582 94.724 37.7582 94.724C37.7582 94.724 37.244 94.9469 37.1117 95.0754C36.9832 95.2039 36.7601 95.7217 36.7601 95.7217C36.7601 95.7217 36.537 95.2077 36.4085 95.0754C36.2799 94.9469 35.7619 94.724 35.7619 94.724C35.7619 94.724 36.2761 94.501 36.4085 94.3725C36.537 94.244 36.7601 93.7263 36.7601 93.7263ZM37.5049 90.9637C37.4331 91.0355 37.1495 91.1602 37.1495 91.1602C37.1495 91.1602 37.4331 91.2849 37.5049 91.3567C37.5768 91.4285 37.7015 91.7119 37.7015 91.7119C37.7015 91.7119 37.8263 91.4285 37.8981 91.3567C37.97 91.2849 38.2535 91.1602 38.2535 91.1602C38.2535 91.1602 37.97 91.0355 37.8981 90.9637C37.8263 90.8919 37.7015 90.6084 37.7015 90.6084C37.7015 90.6084 37.5768 90.8919 37.5049 90.9637ZM38.5068 87.8874C38.435 87.9592 38.1514 88.0839 38.1514 88.0839C38.1514 88.0839 38.435 88.2086 38.5068 88.2804C38.5787 88.3522 38.7035 88.6357 38.7035 88.6357C38.7035 88.6357 38.8282 88.3522 38.9001 88.2804C38.9719 88.2086 39.2555 88.0839 39.2555 88.0839C39.2555 88.0839 38.9719 87.9592 38.9001 87.8874C38.8282 87.8156 38.7035 87.5322 38.7035 87.5322C38.7035 87.5322 38.5787 87.8156 38.5068 87.8874ZM41.2064 94.9545C41.1421 95.0187 40.8812 95.1321 40.8812 95.1321C40.8812 95.1321 41.1421 95.2455 41.2064 95.3097C41.2707 95.374 41.3841 95.6347 41.3841 95.6347C41.3841 95.6347 41.4975 95.374 41.5618 95.3097C41.6261 95.2455 41.887 95.1321 41.887 95.1321C41.887 95.1321 41.6261 95.0187 41.5618 94.9545C41.4975 94.8902 41.3841 94.6295 41.3841 94.6295C41.3841 94.6295 41.2707 94.8902 41.2064 94.9545ZM33.6711 91.5986C33.6068 91.6628 33.3459 91.7762 33.3459 91.7762C33.3459 91.7762 33.6068 91.8896 33.6711 91.9538C33.7354 92.0181 33.8488 92.2788 33.8488 92.2788C33.8488 92.2788 33.9622 92.0181 34.0265 91.9538C34.0908 91.8896 34.3517 91.7762 34.3517 91.7762C34.3517 91.7762 34.0908 91.6628 34.0265 91.5986C33.9622 91.5343 33.8488 91.2736 33.8488 91.2736C33.8488 91.2736 33.7354 91.5343 33.6711 91.5986ZM42.2159 89.3122C42.1176 89.4104 41.7282 89.5767 41.7282 89.5767C41.7282 89.5767 42.1176 89.743 42.2159 89.8412C42.3142 89.9395 42.4806 90.3288 42.4806 90.3288C42.4806 90.3288 42.6469 89.9395 42.7452 89.8412C42.8435 89.743 43.2329 89.5767 43.2329 89.5767C43.2329 89.5767 42.8435 89.4066 42.7452 89.3122C42.6469 89.2139 42.4806 88.8246 42.4806 88.8246C42.4806 88.8246 42.3142 89.2139 42.2159 89.3122Z" fill="white"/>
<path d="M46.9183 37.158C48.1726 32.2996 45.2491 27.3447 40.3885 26.0909C35.5279 24.8372 30.5708 27.7593 29.3164 32.6178C28.0621 37.4762 30.9856 42.4311 35.8462 43.6849C40.7068 44.9386 45.6639 42.0165 46.9183 37.158Z" fill="url(#paint35_radial_13_1699)"/>
<path style="mix-blend-mode:screen" d="M29.1907 35.421C29.1907 30.4022 33.2589 26.3358 38.2799 26.3358C42.2725 26.3358 45.6602 28.9094 46.8814 32.4883C45.8265 28.6373 42.3027 25.8029 38.1135 25.8029C33.0925 25.8029 29.0243 29.8693 29.0243 34.8881C29.0243 35.916 29.1982 36.9024 29.512 37.8245C29.3041 37.0611 29.1907 36.2562 29.1907 35.4247V35.421Z" fill="url(#paint36_radial_13_1699)"/>
<path style="mix-blend-mode:multiply" opacity="0.5" d="M46.957 32.7831C47.0326 33.2517 47.0704 33.7317 47.0704 34.223C47.0704 39.2417 43.0022 43.3081 37.9812 43.3081C33.6861 43.3081 30.0905 40.3301 29.1377 36.328C29.8258 40.6627 33.584 43.977 38.1135 43.977C43.1345 43.977 47.2027 39.9106 47.2027 34.8919C47.2027 34.1663 47.1158 33.4633 46.9532 32.7869L46.957 32.7831Z" fill="url(#paint37_radial_13_1699)"/>
<path style="mix-blend-mode:screen" d="M38.1968 42.6506C42.3062 42.6506 45.6375 39.3207 45.6375 35.2131C45.6375 31.1056 42.3062 27.7757 38.1968 27.7757C34.0873 27.7757 30.756 31.1056 30.756 35.2131C30.756 39.3207 34.0873 42.6506 38.1968 42.6506Z" fill="url(#paint38_radial_13_1699)"/>
<path style="mix-blend-mode:multiply" opacity="0.5" d="M38.0342 41.9174C42.1436 41.9174 45.4749 38.5875 45.4749 34.4799C45.4749 30.3723 42.1436 27.0425 38.0342 27.0425C33.9247 27.0425 30.5934 30.3723 30.5934 34.4799C30.5934 38.5875 33.9247 41.9174 38.0342 41.9174Z" fill="url(#paint39_radial_13_1699)"/>
<path d="M38.1173 42.3256C42.2267 42.3256 45.5581 38.9957 45.5581 34.8881C45.5581 30.7805 42.2267 27.4507 38.1173 27.4507C34.0079 27.4507 30.6765 30.7805 30.6765 34.8881C30.6765 38.9957 34.0079 42.3256 38.1173 42.3256Z" fill="url(#paint40_radial_13_1699)"/>
<path style="mix-blend-mode:screen" d="M38.2989 32.6962C39.4029 32.6962 40.5031 32.9721 41.4748 33.4974C42.3104 33.9471 43.3388 35.455 44.3634 35.2509C45.906 34.9448 44.2764 31.1656 43.1119 29.9676C41.7395 28.5542 40.0494 27.7681 38.0758 27.7681C34.3781 27.7681 31.3383 30.5383 31.3383 34.2305C31.3383 34.7483 31.6974 35.5722 32.3062 35.6099C33.0094 35.6515 33.3724 34.8125 33.8601 34.3779C35.0775 33.3009 36.6693 32.7 38.2951 32.7L38.2989 32.6962Z" fill="url(#paint41_radial_13_1699)"/>
<path style="mix-blend-mode:screen" d="M43.3198 32.4694C43.3198 31.3697 43.0135 30.3418 42.4842 29.465C41.2895 28.4673 39.7506 27.8664 38.0719 27.8664C35.1833 27.8664 32.7144 29.6426 31.686 32.1558C31.6822 32.2578 31.6785 32.3636 31.6785 32.4694C31.6785 35.6818 34.2835 38.2894 37.501 38.2894C40.7185 38.2894 43.3236 35.6855 43.3236 32.4694H43.3198Z" fill="url(#paint42_radial_13_1699)"/>
<path style="mix-blend-mode:multiply" d="M45.3199 33.0136C45.3501 33.2781 45.3653 33.5465 45.3653 33.8186C45.3653 37.9266 42.0343 41.256 37.9245 41.256C34.4612 41.256 31.5537 38.8902 30.7219 35.6893C31.1227 39.4193 34.2835 42.3217 38.1173 42.3217C42.2271 42.3217 45.5581 38.9923 45.5581 34.8843C45.5581 34.2381 45.4749 33.6107 45.3199 33.0098V33.0136Z" fill="url(#paint43_radial_13_1699)"/>
<path d="M42.1364 29.6275C42.0456 29.9033 41.3688 29.926 40.6202 29.6804C39.8754 29.4347 39.3423 29.0152 39.433 28.7393C39.5238 28.4635 40.2006 28.4408 40.9492 28.6864C41.694 28.9321 42.2271 29.3516 42.1364 29.6275Z" fill="white"/>
<path d="M38.6845 28.6827C38.6731 28.8905 38.2119 29.0341 37.6485 29.0039C37.0852 28.9736 36.6428 28.7847 36.6504 28.5768C36.6617 28.369 37.123 28.2254 37.6863 28.2556C38.2459 28.2858 38.692 28.4748 38.6845 28.6827Z" fill="white"/>
<path opacity="0.5" d="M36.76 37.4088C36.76 37.4088 36.983 37.9228 37.1116 38.0551C37.2401 38.1835 37.7581 38.4065 37.7581 38.4065C37.7581 38.4065 37.2439 38.6295 37.1116 38.758C36.9793 38.8865 36.76 39.4042 36.76 39.4042C36.76 39.4042 36.5369 38.8903 36.4083 38.758C36.2798 38.6295 35.7618 38.4065 35.7618 38.4065C35.7618 38.4065 36.276 38.1835 36.4083 38.0551C36.5407 37.9266 36.76 37.4088 36.76 37.4088ZM37.5048 34.6462C37.433 34.718 37.1494 34.8427 37.1494 34.8427C37.1494 34.8427 37.433 34.9675 37.5048 35.0393C37.5766 35.1111 37.7014 35.3945 37.7014 35.3945C37.7014 35.3945 37.8262 35.1111 37.898 35.0393C37.9698 34.9675 38.2534 34.8427 38.2534 34.8427C38.2534 34.8427 37.9698 34.718 37.898 34.6462C37.8262 34.5744 37.7014 34.291 37.7014 34.291C37.7014 34.291 37.5766 34.5744 37.5048 34.6462ZM38.5067 31.57C38.4349 31.6418 38.1513 31.7665 38.1513 31.7665C38.1513 31.7665 38.4349 31.8912 38.5067 31.963C38.5786 32.0348 38.7033 32.3182 38.7033 32.3182C38.7033 32.3182 38.8281 32.0348 38.8999 31.963C38.9718 31.8912 39.2553 31.7665 39.2553 31.7665C39.2553 31.7665 38.9718 31.6418 38.8999 31.57C38.8281 31.4982 38.7033 31.2147 38.7033 31.2147C38.7033 31.2147 38.5786 31.4982 38.5067 31.57ZM41.2063 38.637C41.142 38.7013 40.8811 38.8147 40.8811 38.8147C40.8811 38.8147 41.142 38.928 41.2063 38.9923C41.2705 39.0565 41.384 39.3173 41.384 39.3173C41.384 39.3173 41.4974 39.0565 41.5617 38.9923C41.626 38.928 41.8868 38.8147 41.8868 38.8147C41.8868 38.8147 41.626 38.7013 41.5617 38.637C41.4974 38.5728 41.384 38.312 41.384 38.312C41.384 38.312 41.2705 38.5728 41.2063 38.637ZM33.671 35.2811C33.6067 35.3454 33.3458 35.4588 33.3458 35.4588C33.3458 35.4588 33.6067 35.5721 33.671 35.6364C33.7353 35.7006 33.8487 35.9614 33.8487 35.9614C33.8487 35.9614 33.9621 35.7006 34.0264 35.6364C34.0907 35.5721 34.3515 35.4588 34.3515 35.4588C34.3515 35.4588 34.0907 35.3454 34.0264 35.2811C33.9621 35.2169 33.8487 34.9561 33.8487 34.9561C33.8487 34.9561 33.7353 35.2169 33.671 35.2811ZM42.2158 32.9947C42.1175 33.093 41.728 33.2593 41.728 33.2593C41.728 33.2593 42.1175 33.4255 42.2158 33.5238C42.3141 33.6221 42.4804 34.0113 42.4804 34.0113C42.4804 34.0113 42.6468 33.6221 42.7451 33.5238C42.8434 33.4255 43.2328 33.2593 43.2328 33.2593C43.2328 33.2593 42.8434 33.093 42.7451 32.9947C42.6468 32.8965 42.4804 32.5072 42.4804 32.5072C42.4804 32.5072 42.3141 32.8965 42.2158 32.9947Z" fill="white"/>
<path style="mix-blend-mode:multiply" opacity="0.25" d="M42.5372 4.06123L38.0153 0.206462V0.191345L38.0077 0.198904L38.0002 0.191345V0.206462C43.6299 5.2668 44.1555 16.0753 34.2306 17.005C27.3154 17.6512 26.0677 14.8244 26.0564 13.0481C24.8541 14.8092 23.6064 16.8084 22.4041 19.0268C27.3268 19.692 32.5671 20.0548 38.0115 20.0548C43.456 20.0548 48.7001 19.692 53.619 19.0268C48.4619 9.51838 42.5448 4.05745 42.5448 4.05745L42.5372 4.06123Z" fill="url(#paint44_radial_13_1699)"/>
<path style="mix-blend-mode:multiply" opacity="0.25" d="M45.6376 7.38311C45.7132 13.2938 42.3066 18.6753 34.0265 19.4501C28.117 20.0018 24.9864 18.8567 23.3833 17.277C23.0544 17.8439 22.7254 18.4259 22.4003 19.0268C27.323 19.6919 32.5633 20.0547 38.0077 20.0547C43.4522 20.0547 48.6963 19.6919 53.6152 19.0268C50.8249 13.8871 47.8191 9.93029 45.6413 7.37933L45.6376 7.38311Z" fill="url(#paint45_radial_13_1699)"/>
<path style="mix-blend-mode:screen" d="M36.5936 4.00836C37.0511 4.34471 36.6239 5.70899 35.6333 7.05438C34.6465 8.39978 33.4706 9.21986 33.0131 8.88351C32.5556 8.54716 32.9829 7.18288 33.9735 5.83749C34.9641 4.49209 36.1361 3.67201 36.5936 4.00836Z" fill="url(#paint46_radial_13_1699)"/>
<path style="mix-blend-mode:screen" d="M31.3648 10.3422C31.6559 10.5312 31.4442 11.3777 30.8921 12.2356C30.3401 13.0935 29.652 13.6339 29.3609 13.4449C29.0698 13.256 29.2815 12.4094 29.8335 11.5516C30.3855 10.6937 31.0736 10.1533 31.3648 10.3422Z" fill="url(#paint47_radial_13_1699)"/>
<path style="mix-blend-mode:screen" d="M26.4836 19.503C28.0149 19.6542 29.5726 19.7713 31.153 19.862C32.8317 13.3656 35.1721 7.3227 38.3632 2.10364C38.3632 2.10364 31.8071 8.63785 26.4874 19.503H26.4836Z" fill="url(#paint48_radial_13_1699)"/>
<path style="mix-blend-mode:screen" d="M37.2667 2.73474L34.2457 5.30837C34.2457 5.30837 28.771 10.3574 23.7651 19.2044C24.3323 19.2725 24.9032 19.3405 25.4779 19.401C28.858 13.6226 32.3629 9.58263 34.1852 7.65147C35.0284 5.9017 36.0265 4.23508 37.2667 2.73852V2.73474Z" fill="url(#paint49_radial_13_1699)"/>
<path style="mix-blend-mode:multiply" opacity="0.25" d="M48.5602 19.5937C50.2086 19.4463 51.8306 19.2687 53.4186 19.0571C48.2842 9.65823 42.4389 4.26533 42.4389 4.26533L37.9132 0.406779V0.391663L37.9056 0.399221L37.8981 0.391663V0.406779L37.6296 0.633531C41.6449 4.15196 45.4863 11.1094 48.5602 19.5899V19.5937Z" fill="url(#paint50_radial_13_1699)"/>
<path style="mix-blend-mode:multiply" opacity="0.25" d="M42.2235 3.79288L40.8964 2.6629C43.8303 7.71568 46.0119 13.4903 47.5923 19.6768C49.1727 19.5483 50.7304 19.3896 52.2579 19.2044C48.6963 11.903 44.5714 6.54791 42.2235 3.79288Z" fill="url(#paint51_radial_13_1699)"/>
<g style="mix-blend-mode:multiply" opacity="0.5">
<path d="M20.4039 23.0139C26.0337 23.6223 31.9281 23.9511 38.0039 23.9511C44.0798 23.9511 49.9742 23.6223 55.6039 23.0139C55.12 21.9595 54.6209 20.9467 54.1143 19.9754C53.3543 22.704 44.0004 23.0177 38.1514 22.874C31.7466 22.7191 25.9656 22.5604 23.1526 21.9368C21.8709 21.6534 21.5306 21.1394 21.542 20.667C21.1563 21.4266 20.7782 22.2089 20.4077 23.0139H20.4039Z" fill="#F9BD00"/>
</g>
<g style="mix-blend-mode:screen">
<path d="M22.3662 21.0411C22.3662 21.0411 23.8143 22.0275 31.4895 22.258C39.1647 22.4886 40.4048 21.6912 40.4048 21.6912C40.4048 21.6912 28.5933 21.6307 22.37 21.0411H22.3662Z" fill="#F9BD00"/>
</g>
<g style="mix-blend-mode:screen">
<path d="M24.0525 104.761C24.0525 104.761 24.1243 104.799 24.268 104.845C24.4079 104.898 24.6196 104.962 24.8881 105.037C25.1565 105.117 25.4892 105.192 25.8673 105.283C26.2492 105.355 26.6802 105.445 27.1528 105.521C27.6216 105.608 28.1396 105.665 28.6841 105.74C29.2323 105.793 29.8032 105.861 30.4006 105.907C30.998 105.956 31.6142 106.005 32.2419 106.024C32.5557 106.039 32.8733 106.05 33.1909 106.065C33.5085 106.069 33.8298 106.073 34.1474 106.08C34.7864 106.103 35.4254 106.107 36.053 106.099C36.3668 106.099 36.6806 106.099 36.9869 106.099L37.8981 106.073C38.4955 106.046 39.0777 106.054 39.6259 106.024C40.1742 106.001 40.6959 105.978 41.1761 105.956C42.1364 105.914 42.9342 105.857 43.4938 105.827L44.3747 105.786C44.3747 105.786 44.0571 105.827 43.5013 105.903C43.2215 105.937 42.885 105.978 42.4956 106.027C42.1062 106.077 41.6714 106.133 41.1912 106.167C40.711 106.209 40.1931 106.25 39.6411 106.3C39.0928 106.353 38.5106 106.371 37.9094 106.402C37.6069 106.413 37.3045 106.428 36.9944 106.439C36.6844 106.443 36.3706 106.447 36.053 106.455C35.4216 106.466 34.7788 106.477 34.1361 106.458C33.8147 106.451 33.4933 106.439 33.172 106.432C32.8506 106.413 32.533 106.394 32.2192 106.379C31.5878 106.349 30.9677 106.292 30.3666 106.235C29.7654 106.19 29.1907 106.088 28.6425 106.016C28.098 105.918 27.5801 105.839 27.1112 105.733C26.6386 105.642 26.2114 105.521 25.8333 105.423C25.459 105.309 25.13 105.211 24.8654 105.113C24.6007 105.022 24.3965 104.932 24.2604 104.867C24.1243 104.807 24.0563 104.765 24.0563 104.765L24.0525 104.761Z" fill="#F9BD00"/>
</g>
<path style="mix-blend-mode:screen" d="M26.0488 107.883C26.0488 107.883 34.3668 110.449 43.9135 108.945C43.9135 108.945 33.6975 111.791 26.0488 107.883Z" fill="url(#paint52_radial_13_1699)"/>
</g>
<defs>
<radialGradient id="paint0_radial_13_1699" cx="0" cy="0" r="1" gradientUnits="userSpaceOnUse" gradientTransform="translate(39.2138 108.435) scale(29.4077 29.3945)">
<stop offset="0.06" stop-color="#4B0057"/>
<stop offset="0.88" stop-color="#4B00B3" stop-opacity="0"/>
</radialGradient>
<radialGradient id="paint1_radial_13_1699" cx="0" cy="0" r="1" gradientUnits="userSpaceOnUse" gradientTransform="translate(15.7005 77.6609) scale(93.7583 93.7163)">
<stop stop-color="#D30059"/>
<stop offset="1" stop-color="#682980"/>
</radialGradient>
<radialGradient id="paint2_radial_13_1699" cx="0" cy="0" r="1" gradientUnits="userSpaceOnUse" gradientTransform="translate(25.9391 122.796) scale(45.3214 45.3011)">
<stop stop-color="#D30059"/>
<stop offset="1" stop-color="#682980"/>
</radialGradient>
<radialGradient id="paint3_radial_13_1699" cx="0" cy="0" r="1" gradientUnits="userSpaceOnUse" gradientTransform="translate(25.6668 122.796) scale(44.4972 44.4773)">
<stop stop-color="#D30059"/>
<stop offset="1" stop-color="#682980"/>
</radialGradient>
<radialGradient id="paint4_radial_13_1699" cx="0" cy="0" r="1" gradientUnits="userSpaceOnUse" gradientTransform="translate(15.8493 75.4708) rotate(22.4609) scale(26.2603 24.6768)">
<stop stop-color="#D30059"/>
<stop offset="1" stop-color="#682980"/>
</radialGradient>
<radialGradient id="paint5_radial_13_1699" cx="0" cy="0" r="1" gradientUnits="userSpaceOnUse" gradientTransform="translate(7.67749 93.2879) scale(9.8681 9.86368)">
<stop offset="0.06" stop-color="#2C70DD" stop-opacity="0"/>
<stop offset="0.89" stop-color="#51DFFF"/>
</radialGradient>
<radialGradient id="paint6_radial_13_1699" cx="0" cy="0" r="1" gradientUnits="userSpaceOnUse" gradientTransform="translate(60.5569 0.380326) rotate(-180) scale(93.7583 93.7163)">
<stop stop-color="#D30059"/>
<stop offset="1" stop-color="#682980"/>
</radialGradient>
<radialGradient id="paint7_radial_13_1699" cx="0" cy="0" r="1" gradientUnits="userSpaceOnUse" gradientTransform="translate(50.3182 122.796) rotate(-180) scale(45.3214 45.3011)">
<stop stop-color="#D30059"/>
<stop offset="1" stop-color="#682980"/>
</radialGradient>
<radialGradient id="paint8_radial_13_1699" cx="0" cy="0" r="1" gradientUnits="userSpaceOnUse" gradientTransform="translate(50.5942 122.796) rotate(180) scale(44.4972 44.4773)">
<stop stop-color="#D30059"/>
<stop offset="1" stop-color="#682980"/>
</radialGradient>
<radialGradient id="paint9_radial_13_1699" cx="0" cy="0" r="1" gradientUnits="userSpaceOnUse" gradientTransform="translate(60.4312 75.5042) rotate(157.539) scale(26.2603 24.6768)">
<stop stop-color="#D30059"/>
<stop offset="1" stop-color="#682980"/>
</radialGradient>
<radialGradient id="paint10_radial_13_1699" cx="0" cy="0" r="1" gradientUnits="userSpaceOnUse" gradientTransform="translate(68.5799 0.38031) rotate(-180) scale(9.8681 9.86368)">
<stop offset="0.06" stop-color="#2C70DD" stop-opacity="0"/>
<stop offset="0.89" stop-color="#51DFFF"/>
</radialGradient>
<radialGradient id="paint11_radial_13_1699" cx="0" cy="0" r="1" gradientUnits="userSpaceOnUse" gradientTransform="translate(38.0758 58.3418) scale(39.1661 39.1486)">
<stop stop-color="#D30059"/>
<stop offset="1" stop-color="#682980"/>
</radialGradient>
<radialGradient id="paint12_radial_13_1699" cx="0" cy="0" r="1" gradientUnits="userSpaceOnUse" gradientTransform="translate(49.702 52.7977) scale(36.7539 36.7375)">
<stop stop-color="#D30059"/>
<stop offset="1" stop-color="#682980" stop-opacity="0.6"/>
</radialGradient>
<radialGradient id="paint13_radial_13_1699" cx="0" cy="0" r="1" gradientUnits="userSpaceOnUse" gradientTransform="translate(38.3669 52.4235) scale(40.1492 40.1312)">
<stop stop-color="#D30059"/>
<stop offset="1" stop-color="#682980" stop-opacity="0.6"/>
</radialGradient>
<radialGradient id="paint14_radial_13_1699" cx="0" cy="0" r="1" gradientUnits="userSpaceOnUse" gradientTransform="translate(37.8981 13.0331) scale(15.2445 15.2377)">
<stop stop-color="#D30059"/>
<stop offset="1" stop-color="#682980" stop-opacity="0.6"/>
</radialGradient>
<radialGradient id="paint15_radial_13_1699" cx="0" cy="0" r="1" gradientUnits="userSpaceOnUse" gradientTransform="translate(41.4181 2.40973) scale(90.8016 90.761)">
<stop stop-color="#D30059"/>
<stop offset="1" stop-color="#682980"/>
</radialGradient>
<radialGradient id="paint16_radial_13_1699" cx="0" cy="0" r="1" gradientUnits="userSpaceOnUse" gradientTransform="translate(38.503 64.2032) scale(28.557 28.5442)">
<stop stop-color="#D30059"/>
<stop offset="1" stop-color="#682980"/>
</radialGradient>
<radialGradient id="paint17_radial_13_1699" cx="0" cy="0" r="1" gradientUnits="userSpaceOnUse" gradientTransform="translate(31.2841 48.6104) scale(36.0809 36.0648)">
<stop offset="0.06" stop-color="#2C70DD"/>
<stop offset="1" stop-color="#682980"/>
</radialGradient>
<radialGradient id="paint18_radial_13_1699" cx="0" cy="0" r="1" gradientUnits="userSpaceOnUse" gradientTransform="translate(31.1265 48.2248) scale(28.5532 28.5404)">
<stop offset="0.06" stop-color="#2C70DD"/>
<stop offset="1" stop-color="#682980"/>
</radialGradient>
<radialGradient id="paint19_radial_13_1699" cx="0" cy="0" r="1" gradientUnits="userSpaceOnUse" gradientTransform="translate(31.4214 60.1406) scale(27.8764 27.864)">
<stop offset="0.06" stop-color="#2C70DD"/>
<stop offset="1" stop-color="#682980"/>
</radialGradient>
<radialGradient id="paint20_radial_13_1699" cx="0" cy="0" r="1" gradientUnits="userSpaceOnUse" gradientTransform="translate(49.6014 83.2601) scale(38.1566 38.1396)">
<stop offset="0.06" stop-color="#2C70DD"/>
<stop offset="1" stop-color="#682980"/>
</radialGradient>
<radialGradient id="paint21_radial_13_1699" cx="0" cy="0" r="1" gradientUnits="userSpaceOnUse" gradientTransform="translate(49.32 82.0032) scale(38.1566 38.1396)">
<stop offset="0.06" stop-color="#2C70DD"/>
<stop offset="1" stop-color="#682980"/>
</radialGradient>
<radialGradient id="paint22_radial_13_1699" cx="0" cy="0" r="1" gradientUnits="userSpaceOnUse" gradientTransform="translate(49.4625 82.6986) scale(38.1566 38.1396)">
<stop offset="0.06" stop-color="#2C70DD"/>
<stop offset="0.89" stop-color="#51DFFF"/>
</radialGradient>
<radialGradient id="paint23_radial_13_1699" cx="0" cy="0" r="1" gradientUnits="userSpaceOnUse" gradientTransform="translate(41.3726 62.7331) scale(29.1279 29.1149)">
<stop offset="0.11" stop-color="#51DFFF"/>
<stop offset="0.94" stop-color="#2C70DD" stop-opacity="0"/>
</radialGradient>
<radialGradient id="paint24_radial_13_1699" cx="0" cy="0" r="1" gradientUnits="userSpaceOnUse" gradientTransform="translate(45.9324 73.7079) scale(26.8632 26.8511)">
<stop offset="0.06" stop-color="#2C70DD" stop-opacity="0"/>
<stop offset="0.89" stop-color="#51DFFF"/>
</radialGradient>
<radialGradient id="paint25_radial_13_1699" cx="0" cy="0" r="1" gradientUnits="userSpaceOnUse" gradientTransform="translate(49.4638 80.1174) scale(24.606 24.595)">
<stop offset="0.06" stop-color="#2C70DD"/>
<stop offset="0.89" stop-color="#51DFFF"/>
</radialGradient>
<radialGradient id="paint26_radial_13_1699" cx="0" cy="0" r="1" gradientUnits="userSpaceOnUse" gradientTransform="translate(34.1324 82.7843) scale(21.0482 21.0387)">
<stop offset="0.06" stop-color="#2C70DD"/>
<stop offset="1" stop-color="#682980"/>
</radialGradient>
<radialGradient id="paint27_radial_13_1699" cx="0" cy="0" r="1" gradientUnits="userSpaceOnUse" gradientTransform="translate(34.0379 82.5587) scale(16.6586 16.6511)">
<stop offset="0.06" stop-color="#2C70DD"/>
<stop offset="1" stop-color="#682980"/>
</radialGradient>
<radialGradient id="paint28_radial_13_1699" cx="0" cy="0" r="1" gradientUnits="userSpaceOnUse" gradientTransform="translate(34.2118 89.5087) scale(16.2616 16.2543)">
<stop offset="0.06" stop-color="#2C70DD"/>
<stop offset="1" stop-color="#682980"/>
</radialGradient>
<radialGradient id="paint29_radial_13_1699" cx="0" cy="0" r="1" gradientUnits="userSpaceOnUse" gradientTransform="translate(44.8171 102.993) scale(22.2618 22.2519)">
<stop offset="0.06" stop-color="#2C70DD"/>
<stop offset="1" stop-color="#682980"/>
</radialGradient>
<radialGradient id="paint30_radial_13_1699" cx="0" cy="0" r="1" gradientUnits="userSpaceOnUse" gradientTransform="translate(44.6545 102.263) scale(22.2618 22.2519)">
<stop offset="0.06" stop-color="#2C70DD"/>
<stop offset="1" stop-color="#682980"/>
</radialGradient>
<radialGradient id="paint31_radial_13_1699" cx="0" cy="0" r="1" gradientUnits="userSpaceOnUse" gradientTransform="translate(44.7339 102.668) scale(22.2618 22.2519)">
<stop offset="0.06" stop-color="#2C70DD"/>
<stop offset="0.89" stop-color="#51DFFF"/>
</radialGradient>
<radialGradient id="paint32_radial_13_1699" cx="0" cy="0" r="1" gradientUnits="userSpaceOnUse" gradientTransform="translate(40.0154 91.0242) scale(16.9951 16.9875)">
<stop offset="0.11" stop-color="#51DFFF"/>
<stop offset="0.94" stop-color="#2C70DD" stop-opacity="0"/>
</radialGradient>
<radialGradient id="paint33_radial_13_1699" cx="0" cy="0" r="1" gradientUnits="userSpaceOnUse" gradientTransform="translate(42.6772 97.4223) scale(15.6717 15.6647)">
<stop offset="0.06" stop-color="#2C70DD" stop-opacity="0"/>
<stop offset="0.89" stop-color="#51DFFF"/>
</radialGradient>
<radialGradient id="paint34_radial_13_1699" cx="0" cy="0" r="1" gradientUnits="userSpaceOnUse" gradientTransform="translate(44.7378 101.164) scale(14.356 14.3496)">
<stop offset="0.06" stop-color="#2C70DD"/>
<stop offset="0.89" stop-color="#51DFFF"/>
</radialGradient>
<radialGradient id="paint35_radial_13_1699" cx="0" cy="0" r="1" gradientUnits="userSpaceOnUse" gradientTransform="translate(34.1298 26.4663) scale(21.0482 21.0387)">
<stop offset="0.06" stop-color="#2C70DD"/>
<stop offset="1" stop-color="#682980"/>
</radialGradient>
<radialGradient id="paint36_radial_13_1699" cx="0" cy="0" r="1" gradientUnits="userSpaceOnUse" gradientTransform="translate(34.0377 26.2413) scale(16.6586 16.6511)">
<stop offset="0.06" stop-color="#2C70DD"/>
<stop offset="1" stop-color="#682980"/>
</radialGradient>
<radialGradient id="paint37_radial_13_1699" cx="0" cy="0" r="1" gradientUnits="userSpaceOnUse" gradientTransform="translate(34.2116 33.1912) scale(16.2616 16.2543)">
<stop offset="0.06" stop-color="#2C70DD"/>
<stop offset="1" stop-color="#682980"/>
</radialGradient>
<radialGradient id="paint38_radial_13_1699" cx="0" cy="0" r="1" gradientUnits="userSpaceOnUse" gradientTransform="translate(44.8171 46.6792) scale(22.2618 22.2519)">
<stop offset="0.06" stop-color="#2C70DD"/>
<stop offset="1" stop-color="#682980"/>
</radialGradient>
<radialGradient id="paint39_radial_13_1699" cx="0" cy="0" r="1" gradientUnits="userSpaceOnUse" gradientTransform="translate(44.6545 45.946) scale(22.2618 22.2519)">
<stop offset="0.06" stop-color="#2C70DD"/>
<stop offset="1" stop-color="#682980"/>
</radialGradient>
<radialGradient id="paint40_radial_13_1699" cx="0" cy="0" r="1" gradientUnits="userSpaceOnUse" gradientTransform="translate(44.7338 46.3542) scale(22.2618 22.2519)">
<stop offset="0.06" stop-color="#2C70DD"/>
<stop offset="0.89" stop-color="#51DFFF"/>
</radialGradient>
<radialGradient id="paint41_radial_13_1699" cx="0" cy="0" r="1" gradientUnits="userSpaceOnUse" gradientTransform="translate(40.0154 34.7067) scale(16.9951 16.9875)">
<stop offset="0.11" stop-color="#51DFFF"/>
<stop offset="0.94" stop-color="#2C70DD" stop-opacity="0"/>
</radialGradient>
<radialGradient id="paint42_radial_13_1699" cx="0" cy="0" r="1" gradientUnits="userSpaceOnUse" gradientTransform="translate(42.677 41.1087) scale(15.6717 15.6647)">
<stop offset="0.06" stop-color="#2C70DD" stop-opacity="0"/>
<stop offset="0.89" stop-color="#51DFFF"/>
</radialGradient>
<radialGradient id="paint43_radial_13_1699" cx="0" cy="0" r="1" gradientUnits="userSpaceOnUse" gradientTransform="translate(44.7376 44.8462) scale(14.356 14.3496)">
<stop offset="0.06" stop-color="#2C70DD"/>
<stop offset="0.89" stop-color="#51DFFF"/>
</radialGradient>
<radialGradient id="paint44_radial_13_1699" cx="0" cy="0" r="1" gradientUnits="userSpaceOnUse" gradientTransform="translate(49.891 22.7002) scale(22.9726 22.9623)">
<stop stop-color="#D30059"/>
<stop offset="1" stop-color="#682980"/>
</radialGradient>
<radialGradient id="paint45_radial_13_1699" cx="0" cy="0" r="1" gradientUnits="userSpaceOnUse" gradientTransform="translate(49.891 21.744) scale(20.5642 20.555)">
<stop stop-color="#D30059"/>
<stop offset="1" stop-color="#682980"/>
</radialGradient>
<radialGradient id="paint46_radial_13_1699" cx="0" cy="0" r="1" gradientUnits="userSpaceOnUse" gradientTransform="translate(33.6532 9.95905) rotate(36.2678) scale(5.29996 5.29925)">
<stop offset="0.06" stop-color="#2C70DD" stop-opacity="0"/>
<stop offset="0.89" stop-color="#51DFFF"/>
</radialGradient>
<radialGradient id="paint47_radial_13_1699" cx="0" cy="0" r="1" gradientUnits="userSpaceOnUse" gradientTransform="translate(29.7956 14.0739) rotate(32.8583) scale(3.23601 3.23541)">
<stop offset="0.06" stop-color="#2C70DD" stop-opacity="0"/>
<stop offset="0.89" stop-color="#51DFFF"/>
</radialGradient>
<radialGradient id="paint48_radial_13_1699" cx="0" cy="0" r="1" gradientUnits="userSpaceOnUse" gradientTransform="translate(32.4234 10.9847) scale(7.5542 7.55082)">
<stop stop-color="#D30059"/>
<stop offset="1" stop-color="#682980"/>
</radialGradient>
<radialGradient id="paint49_radial_13_1699" cx="0" cy="0" r="1" gradientUnits="userSpaceOnUse" gradientTransform="translate(31.8827 10.4178) scale(8.56369 8.55986)">
<stop stop-color="#D30059"/>
<stop offset="1" stop-color="#682980"/>
</radialGradient>
<radialGradient id="paint50_radial_13_1699" cx="0" cy="0" r="1" gradientUnits="userSpaceOnUse" gradientTransform="translate(45.5241 9.9908) scale(8.79054 8.78661)">
<stop stop-color="#D30059"/>
<stop offset="1" stop-color="#682980"/>
</radialGradient>
<radialGradient id="paint51_radial_13_1699" cx="0" cy="0" r="1" gradientUnits="userSpaceOnUse" gradientTransform="translate(46.5752 11.1699) scale(7.2366 7.23337)">
<stop stop-color="#D30059"/>
<stop offset="1" stop-color="#682980"/>
</radialGradient>
<radialGradient id="paint52_radial_13_1699" cx="0" cy="0" r="1" gradientUnits="userSpaceOnUse" gradientTransform="translate(34.983 108.915) scale(6.35944 6.35659)">
<stop stop-color="#D30059"/>
<stop offset="1" stop-color="#682980"/>
</radialGradient>
<clipPath id="clip0_13_1699">
<rect width="75.0807" height="132.207" fill="white" transform="translate(0.588257 0.191345)"/>
</clipPath>
</defs>
</svg>
