<svg width="61" height="114" viewBox="0 0 61 114" fill="none" xmlns="http://www.w3.org/2000/svg">
<path d="M34.0771 51.8267C34.0771 51.8267 0.376343 74.3279 0.376343 92.7709V113.189H6.04089C6.04089 113.189 18.7488 91.5895 34.0778 91.5895V51.8267H34.0771Z" fill="#F7931E"/>
<path opacity="0.5" d="M1.57603 93.4148C1.57603 77.0608 28.0752 57.5165 34.0771 53.2988V51.8267C34.0771 51.8267 0.376343 74.3279 0.376343 92.7709V113.189H1.57603V93.4141V93.4148Z" fill="white"/>
<path style="mix-blend-mode:multiply" d="M2.70183 113.189H6.04088C6.04088 113.189 18.7488 91.5895 34.0778 91.5895V58.3015C25.9093 65.9768 0.759038 91.9583 2.70183 113.189Z" fill="url(#paint0_linear_13_1530)"/>
<g style="mix-blend-mode:multiply">
<path d="M16.0379 100.638C20.9356 95.881 27.2457 91.5895 34.0778 91.5895V51.8267C34.0778 51.8267 21.2138 60.416 11.3806 71.3305C11.9941 78.6477 13.734 92.4908 16.0379 100.638Z" fill="#999999"/>
</g>
<path d="M26.6921 51.8267C26.6921 51.8267 60.3929 74.3279 60.3929 92.7709V113.189H54.7291C54.7291 113.189 42.0211 91.5895 26.6921 91.5895V51.8267Z" fill="#FBB03B"/>
<path opacity="0.5" d="M59.1932 93.4148C59.1932 77.0608 32.6941 57.5165 26.6921 53.2988V51.8267C26.6921 51.8267 60.3929 74.3279 60.3929 92.7709V113.189H59.1932V93.4141V93.4148Z" fill="white"/>
<path style="mix-blend-mode:multiply" d="M58.0681 113.189H54.7291C54.7291 113.189 42.0211 91.5895 26.6921 91.5895V58.3015C34.8599 65.9768 60.0102 91.9575 58.0681 113.189Z" fill="url(#paint1_linear_13_1530)"/>
<g style="mix-blend-mode:multiply">
<path d="M44.7321 100.638C39.8344 95.881 33.5243 91.5895 26.6921 91.5895V51.8267C26.6921 51.8267 39.5562 60.416 49.3894 71.3305C48.7759 78.6477 47.036 92.4908 44.7321 100.638Z" fill="#999999"/>
</g>
<path d="M30.3847 107.222C7.73768 98.8337 18.6534 40.6278 16.1836 22.1061C16.1857 14.1301 22.5432 0.322449 30.3847 0.322449C38.2263 0.322449 44.5837 14.1301 44.5837 22.1068C42.0798 40.7356 53.0589 98.7366 30.3847 107.222Z" fill="#E6E6E6"/>
<path d="M44.5837 22.1067C41.2307 -7.6812 18.2602 -5.61842 16.1857 23.1732H44.5837V22.1067Z" fill="#FBB03B"/>
<path d="M44.5837 54.4595H16.1857V75.2851H44.5837V54.4595Z" fill="#FBB03B"/>
<path d="M16.1857 75.2852C15.3387 84.4028 21.1915 106.367 30.3847 107.222C39.5863 106.354 45.4195 84.4177 44.5837 75.2852H16.1857Z" fill="#4D4D4D"/>
<g style="mix-blend-mode:multiply">
<path d="M30.3846 107.222C9.55213 98.3877 19.8237 40.1782 17.4571 22.1061C17.4599 14.1301 23.2464 0.322449 30.3846 0.322449C37.5228 0.322449 43.3094 14.1301 43.3094 22.1068C40.9114 40.291 51.2416 98.2841 30.3846 107.222Z" fill="#CCCCCC"/>
</g>
<g style="mix-blend-mode:multiply">
<path d="M32.432 0.837952C35.2099 6.0775 37.0028 13.4961 37.0028 18.6868C35.778 37.9204 41.0187 89.4714 31.1647 107.118C47.7401 95.4612 39.2948 40.0555 41.2753 22.1068C41.2732 15.0434 37.4643 3.40986 32.4313 0.837952H32.432Z" fill="#E6E6E6"/>
</g>
<path d="M28.3373 0.837952C25.5594 6.0775 23.7665 13.4961 23.7665 18.6868C24.9913 37.9204 19.7506 89.4714 29.6046 107.118C13.0292 95.4612 21.4745 40.0555 19.494 22.1068C19.4961 15.0434 23.305 3.40986 28.338 0.837952H28.3373Z" fill="url(#paint2_linear_13_1530)"/>
<g style="mix-blend-mode:multiply">
<path d="M24.7389 39.8506C24.7654 44.9604 27.5224 47.2933 32.5951 46.8608C36.6968 46.9111 38.6869 43.5358 38.5977 39.8499C38.6869 36.1661 36.6982 32.7872 32.5951 32.8397C27.5238 32.4086 24.7654 34.7394 24.7396 39.8506H24.7389Z" fill="#666666"/>
</g>
<path d="M23.4556 38.733C23.4821 43.8428 26.239 46.1758 31.3118 45.7432C35.4134 45.7936 37.4036 42.4182 37.3144 38.7323C37.4036 35.0486 35.4148 31.6697 31.3118 31.7222C26.2404 31.291 23.4821 33.6218 23.4563 38.733H23.4556Z" fill="url(#paint3_linear_13_1530)"/>
<path d="M23.8062 38.7331C23.8312 43.5847 26.4488 45.7985 31.2643 45.3887C35.1583 45.4369 37.0481 42.2318 36.963 38.7331C37.0474 35.2358 35.1596 32.0278 31.2643 32.0774C26.4495 31.6683 23.8306 33.8807 23.8062 38.7331Z" fill="url(#paint4_linear_13_1530)"/>
<path d="M24.4489 38.7331C24.4719 43.1111 26.833 45.1086 31.1786 44.7384C34.6927 44.7817 36.3977 41.89 36.3204 38.7323C36.3963 35.5761 34.6927 32.6816 31.1779 32.727C26.8337 32.3575 24.4699 34.3544 24.4482 38.7331H24.4489Z" fill="black"/>
<path d="M24.8184 38.733C24.84 42.838 27.0539 44.7115 31.1291 44.3647C34.4242 44.4051 36.0227 41.6935 35.9509 38.733C36.022 35.774 34.4249 33.0595 31.1291 33.1014C27.0553 32.7546 24.8393 34.6273 24.8184 38.733Z" fill="#0071BC"/>
<path opacity="0.3" d="M29.2484 37.451C31.3676 37.3942 34.211 37.4276 35.9426 38.3919C35.7934 34.4295 33.5306 32.7822 29.6402 33.1013C26.4942 33.0638 24.8533 35.5513 24.8268 38.3919C26.0369 37.7963 27.5998 37.451 29.2477 37.451H29.2484Z" fill="white"/>
<path opacity="0.3" d="M25.8842 41.0392C25.9128 35.4905 30.7583 34.8182 35.35 35.6564C34.5804 33.4922 31.8534 32.8987 29.6409 33.1022C26.3457 33.0611 24.7473 35.7734 24.8191 38.7339C24.8658 40.2918 25.1384 41.8263 26.1582 42.963C25.9811 42.3496 25.8842 41.7057 25.8842 41.0399V41.0392Z" fill="white"/>
<path d="M18.1982 38.733C18.1717 47.9315 14.4478 47.9315 14.4207 38.733C14.4471 29.5346 18.171 29.5346 18.1982 38.733Z" fill="url(#paint5_linear_13_1530)"/>
<path d="M16.9734 38.733C16.9148 46.5417 14.1557 46.6899 14.3349 38.733C14.1557 30.7762 16.9148 30.9244 16.9734 38.733Z" fill="#0071BC"/>
<path opacity="0.3" d="M14.9901 40.254C15.0766 36.8829 15.2216 33.6033 16.5349 34.4323C14.0972 27.3101 13.7249 44.5065 15.3164 44.6738C15.0975 43.5762 14.9901 42.0027 14.9901 40.254Z" fill="white"/>
<path d="M15.2997 44.8717C15.1296 44.871 15.1296 44.6051 15.2997 44.6051C16.0449 44.6051 16.8423 42.2452 16.8423 38.7323C16.8423 35.2194 16.0449 32.8595 15.2997 32.8595C15.1296 32.8652 15.1296 32.5879 15.2997 32.5929C17.6761 32.661 17.6761 44.8036 15.2997 44.871V44.8717Z" fill="black"/>
<path d="M42.5719 38.733C42.5984 47.9315 46.3222 47.9315 46.3494 38.733C46.3229 29.5346 42.5991 29.5346 42.5719 38.733Z" fill="url(#paint6_linear_13_1530)"/>
<path d="M43.7966 38.733C43.8552 46.5417 46.6143 46.6899 46.4351 38.733C46.6143 30.7762 43.8552 30.9244 43.7966 38.733Z" fill="#0071BC"/>
<path opacity="0.3" d="M45.7799 40.254C45.6934 36.8829 45.5484 33.6033 44.2351 34.4323C46.6728 27.3101 47.0451 44.5065 45.4536 44.6738C45.6725 43.5762 45.7799 42.0027 45.7799 40.254Z" fill="white"/>
<path d="M45.4704 44.8717C45.6405 44.871 45.6405 44.6051 45.4704 44.6051C44.7252 44.6051 43.9277 42.2452 43.9277 38.7323C43.9277 35.2194 44.7252 32.8595 45.4704 32.8595C45.6405 32.8652 45.6405 32.5879 45.4704 32.5929C43.094 32.661 43.094 44.8036 45.4704 44.871V44.8717Z" fill="black"/>
<g style="mix-blend-mode:multiply">
<path d="M24.6323 78.6413C31.8597 78.6413 38.657 79.1157 44.5837 79.951V75.6503H16.1857V78.8626C18.9134 78.7179 21.738 78.6413 24.6323 78.6413Z" fill="#B3B3B3"/>
</g>
<path d="M16.2093 73.8344H44.5599C44.983 73.8344 45.3274 74.1839 45.3274 74.6151V76.7303C45.3274 77.1608 44.9837 77.5111 44.5599 77.5111H16.2093C15.7861 77.5111 15.4418 77.1615 15.4418 76.7303V74.6151C15.4418 74.1846 15.7854 73.8344 16.2093 73.8344Z" fill="#333333"/>
<path d="M43.8517 73.8344H16.654C16.2448 73.8344 15.9116 74.1116 15.8635 74.4676H44.6429C44.5941 74.1109 44.2608 73.8344 43.8524 73.8344H43.8517Z" fill="url(#paint7_linear_13_1530)"/>
<g style="mix-blend-mode:multiply">
<path d="M24.5082 76.3063H15.4425C15.3861 76.9048 15.5129 77.494 16.2735 77.5111H44.4972C44.9559 77.5111 45.3281 77.1884 45.3281 76.7899V74.7704C42.6701 75.7163 36.9219 76.3063 24.5089 76.3063H24.5082Z" fill="#333333"/>
</g>
<g style="mix-blend-mode:multiply">
<path d="M24.6323 57.5711C31.8597 57.5711 38.657 58.0455 44.5837 58.8808V54.5801H16.1857V57.7923C18.9134 57.6477 21.738 57.5711 24.6323 57.5711Z" fill="#B3B3B3"/>
</g>
<path d="M16.2093 52.7641H44.5599C44.983 52.7641 45.3274 53.1137 45.3274 53.5448V55.6601C45.3274 56.0905 44.9837 56.4408 44.5599 56.4408H16.2093C15.7861 56.4408 15.4418 56.0912 15.4418 55.6601V53.5448C15.4418 53.1144 15.7854 52.7641 16.2093 52.7641Z" fill="#333333"/>
<path d="M43.8517 52.7641H16.654C16.2448 52.7641 15.9116 53.0414 15.8635 53.3973H44.6429C44.5941 53.0406 44.2608 52.7641 43.8524 52.7641H43.8517Z" fill="url(#paint8_linear_13_1530)"/>
<g style="mix-blend-mode:multiply">
<path d="M24.5082 55.2353H15.4425C15.3861 55.8338 15.5129 56.4231 16.2735 56.4401H44.4972C44.9559 56.4401 45.3281 56.1174 45.3281 55.7189V53.6994C42.6701 54.6453 36.9219 55.2353 24.5089 55.2353H24.5082Z" fill="#333333"/>
</g>
<g style="mix-blend-mode:multiply">
<path d="M24.6323 26.3096C31.8597 26.3096 38.657 26.784 44.5837 27.6193V23.3186H16.1857V26.5308C18.9134 26.3862 21.738 26.3096 24.6323 26.3096Z" fill="#B3B3B3"/>
</g>
<path d="M16.2093 21.5026H44.5599C44.983 21.5026 45.3274 21.8522 45.3274 22.2833V24.3986C45.3274 24.829 44.9837 25.1793 44.5599 25.1793H16.2093C15.7861 25.1793 15.4418 24.8297 15.4418 24.3986V22.2833C15.4418 21.8529 15.7854 21.5026 16.2093 21.5026Z" fill="#333333"/>
<path d="M43.8517 21.5026H16.654C16.2448 21.5026 15.9116 21.7799 15.8635 22.1359H44.6429C44.5941 21.7792 44.2608 21.5026 43.8524 21.5026H43.8517Z" fill="url(#paint9_linear_13_1530)"/>
<g style="mix-blend-mode:multiply">
<path d="M24.5082 23.9746H15.4425C15.3861 24.5731 15.5129 25.1623 16.2735 25.1793H44.4972C44.9559 25.1793 45.3281 24.8567 45.3281 24.4582V22.4387C42.6701 23.3846 36.9219 23.9746 24.5089 23.9746H24.5082Z" fill="#333333"/>
</g>
<path style="mix-blend-mode:multiply" d="M44.5836 79.2795V77.116L30.4724 62.6695L30.6167 107.212C38.3509 106.824 44.5829 87.1768 44.5829 79.2795H44.5836Z" fill="url(#paint10_linear_13_1530)"/>
<path d="M32.1971 113.189H28.5729C27.5551 46.9579 33.2274 47.4536 32.1971 113.189Z" fill="#FBB03B"/>
<g style="mix-blend-mode:multiply">
<path d="M32.197 79.8617C32.197 78.1513 31.6923 68.4217 30.9876 64.3862C30.5763 73.9435 30.7101 103.01 30.6927 113.19H32.197V79.8617Z" fill="#B3B3B3"/>
</g>
<defs>
<linearGradient id="paint0_linear_13_1530" x1="28.957" y1="99.6187" x2="6.54424" y2="71.183" gradientUnits="userSpaceOnUse">
<stop stop-color="white"/>
<stop offset="0.22" stop-color="#BBBBBB"/>
<stop offset="0.5" stop-color="#6C6C6C"/>
<stop offset="0.74" stop-color="#313131"/>
<stop offset="0.91" stop-color="#0D0D0D"/>
<stop offset="1"/>
</linearGradient>
<linearGradient id="paint1_linear_13_1530" x1="31.813" y1="99.6187" x2="54.2257" y2="71.183" gradientUnits="userSpaceOnUse">
<stop stop-color="white"/>
<stop offset="0.22" stop-color="#BBBBBB"/>
<stop offset="0.5" stop-color="#6C6C6C"/>
<stop offset="0.74" stop-color="#313131"/>
<stop offset="0.91" stop-color="#0D0D0D"/>
<stop offset="1"/>
</linearGradient>
<linearGradient id="paint2_linear_13_1530" x1="24.3305" y1="107.117" x2="24.3305" y2="0.837952" gradientUnits="userSpaceOnUse">
<stop stop-color="white"/>
<stop offset="1" stop-color="white"/>
</linearGradient>
<linearGradient id="paint3_linear_13_1530" x1="30.386" y1="45.7936" x2="30.386" y2="31.6718" gradientUnits="userSpaceOnUse">
<stop stop-color="#808285"/>
<stop offset="0.24" stop-color="#87898C"/>
<stop offset="0.6" stop-color="#9C9EA1"/>
<stop offset="1" stop-color="#BCBEC0"/>
</linearGradient>
<linearGradient id="paint4_linear_13_1530" x1="30.386" y1="45.4362" x2="30.386" y2="32.0292" gradientUnits="userSpaceOnUse">
<stop stop-color="#BCBEC0"/>
<stop offset="0.4" stop-color="#9C9EA1"/>
<stop offset="0.76" stop-color="#87898C"/>
<stop offset="1" stop-color="#808285"/>
</linearGradient>
<linearGradient id="paint5_linear_13_1530" x1="16.3091" y1="45.6319" x2="16.3091" y2="31.8342" gradientUnits="userSpaceOnUse">
<stop stop-color="#BCBEC0"/>
<stop offset="0.4" stop-color="#9C9EA1"/>
<stop offset="0.76" stop-color="#87898C"/>
<stop offset="1" stop-color="#808285"/>
</linearGradient>
<linearGradient id="paint6_linear_13_1530" x1="44.461" y1="45.6319" x2="44.461" y2="31.8342" gradientUnits="userSpaceOnUse">
<stop stop-color="#BCBEC0"/>
<stop offset="0.4" stop-color="#9C9EA1"/>
<stop offset="0.76" stop-color="#87898C"/>
<stop offset="1" stop-color="#808285"/>
</linearGradient>
<linearGradient id="paint7_linear_13_1530" x1="15.8635" y1="74.1506" x2="44.6422" y2="74.1506" gradientUnits="userSpaceOnUse">
<stop stop-color="white"/>
<stop offset="1" stop-color="white"/>
</linearGradient>
<linearGradient id="paint8_linear_13_1530" x1="0.376295" y1="53.0804" x2="0.446004" y2="53.0804" gradientUnits="userSpaceOnUse">
<stop stop-color="white"/>
<stop offset="1" stop-color="white"/>
</linearGradient>
<linearGradient id="paint9_linear_13_1530" x1="0.376295" y1="21.8189" x2="0.446004" y2="21.8189" gradientUnits="userSpaceOnUse">
<stop stop-color="white"/>
<stop offset="1" stop-color="white"/>
</linearGradient>
<linearGradient id="paint10_linear_13_1530" x1="30.4724" y1="84.941" x2="44.5836" y2="84.941" gradientUnits="userSpaceOnUse">
<stop/>
<stop offset="0.69" stop-color="#B3B3B3"/>
<stop offset="1" stop-color="white"/>
</linearGradient>
</defs>
</svg>
