<svg width="800" height="360" viewBox="0 0 800 360" fill="none" xmlns="http://www.w3.org/2000/svg">
<g opacity="0.8" clip-path="url(#clip0_17_2636)">
<path d="M575.807 1.18584C575.555 1.68592 576.096 2.16933 576.656 1.94429C576.777 1.89428 576.871 1.81094 576.927 1.70258C577.188 1.2025 576.637 0.719089 576.077 0.944127C575.956 0.994136 575.863 1.07748 575.807 1.18584Z" fill="white"/>
<path d="M471.913 15.2965C471.661 15.7966 472.202 16.28 472.762 16.055C472.883 16.005 472.977 15.9216 473.033 15.8133C473.294 15.3132 472.743 14.8298 472.184 15.0548C472.062 15.1048 471.969 15.1882 471.913 15.2965Z" fill="white"/>
<path d="M528.754 38.6255C528.493 39.1256 529.044 39.609 529.604 39.3839C529.725 39.3339 529.818 39.2506 529.874 39.1422C530.126 38.6421 529.585 38.1587 529.025 38.3838C528.904 38.4338 528.81 38.5171 528.754 38.6255Z" fill="white"/>
<path d="M651.993 53.603C651.742 54.1031 652.283 54.5865 652.843 54.3614C652.964 54.3114 653.057 54.2281 653.113 54.1197C653.375 53.6197 652.824 53.1362 652.264 53.3613C652.143 53.4113 652.049 53.4946 651.993 53.603Z" fill="white"/>
<path d="M670.415 40.0924C670.154 40.5925 670.704 41.0759 671.264 40.8508C671.386 40.8008 671.479 40.7175 671.535 40.6091C671.787 40.1091 671.246 39.6256 670.686 39.8507C670.564 39.9007 670.471 39.984 670.415 40.0924Z" fill="white"/>
<path d="M704.636 7.6786C704.374 8.17869 704.925 8.67043 705.485 8.43706C705.606 8.38705 705.7 8.3037 705.756 8.19535C706.008 7.69527 705.466 7.21186 704.906 7.43689C704.785 7.4869 704.692 7.57025 704.636 7.6786Z" fill="white"/>
<path d="M742.066 57.9954C741.815 58.4955 742.356 58.9789 742.916 58.7539C743.037 58.7039 743.13 58.6205 743.186 58.5121C743.448 58.0121 742.897 57.5287 742.337 57.7537C742.216 57.8037 742.122 57.887 742.066 57.9954Z" fill="white"/>
<path d="M735.861 62.0878C735.6 62.5878 736.15 63.0796 736.71 62.8462C736.831 62.7962 736.925 62.7129 736.981 62.6045C737.233 62.1044 736.691 61.621 736.131 61.846C736.01 61.8961 735.917 61.9794 735.861 62.0878Z" fill="white"/>
<path d="M752.351 52.8028C752.089 53.3029 752.64 53.7863 753.2 53.5613C753.321 53.5113 753.414 53.4279 753.47 53.3196C753.722 52.8195 753.181 52.3361 752.621 52.5611C752.5 52.6111 752.407 52.6945 752.351 52.8028Z" fill="white"/>
<path d="M689.2 168.214C688.939 168.714 689.49 169.206 690.05 168.972C690.171 168.922 690.264 168.839 690.32 168.731C690.572 168.231 690.031 167.747 689.471 167.972C689.35 168.022 689.256 168.106 689.2 168.214Z" fill="white"/>
<path d="M685.533 146.569C685.281 147.069 685.822 147.552 686.382 147.327C686.503 147.277 686.597 147.194 686.653 147.085C686.905 146.585 686.363 146.102 685.803 146.327C685.682 146.377 685.589 146.46 685.533 146.569Z" fill="white"/>
<path d="M659.17 153.32C658.909 153.82 659.459 154.303 660.019 154.078C660.14 154.028 660.234 153.945 660.29 153.837C660.542 153.336 660.001 152.853 659.441 153.078C659.319 153.128 659.226 153.211 659.17 153.32Z" fill="white"/>
<path d="M591.531 118.114C591.279 118.614 591.82 119.097 592.38 118.872C592.502 118.822 592.595 118.739 592.651 118.631C592.903 118.131 592.362 117.647 591.802 117.872C591.68 117.922 591.587 118.005 591.531 118.114Z" fill="white"/>
<path d="M619.705 91.6844C619.453 92.1845 619.994 92.6679 620.554 92.4429C620.675 92.3928 620.769 92.3095 620.825 92.2012C621.086 91.7011 620.535 91.2177 619.975 91.4427C619.854 91.4927 619.761 91.576 619.705 91.6844Z" fill="white"/>
<path d="M615.664 89.7758C615.412 90.2759 615.953 90.7593 616.513 90.5342C616.634 90.4842 616.728 90.4009 616.784 90.2925C617.036 89.7924 616.494 89.309 615.935 89.5341C615.813 89.5841 615.72 89.6674 615.664 89.7758Z" fill="white"/>
<path d="M188.34 9.22883C188.088 9.72892 188.629 10.2123 189.189 9.98729C189.31 9.93728 189.404 9.85394 189.46 9.74558C189.721 9.2455 189.17 8.76209 188.61 8.98713C188.489 9.03713 188.396 9.12048 188.34 9.22883Z" fill="white"/>
<path d="M190.141 35.2999C189.879 35.8 190.43 36.2917 190.99 36.0584C191.111 36.0084 191.204 35.925 191.26 35.8167C191.512 35.3166 190.971 34.8332 190.411 35.0582C190.29 35.1082 190.197 35.1916 190.141 35.2999Z" fill="white"/>
<path d="M170.627 34.0997C170.366 34.5998 170.917 35.0916 171.477 34.8582C171.598 34.8082 171.691 34.7248 171.747 34.6165C171.999 34.1164 171.458 33.633 170.898 33.858C170.777 33.908 170.683 33.9914 170.627 34.0997Z" fill="white"/>
<path d="M170.627 27.0402C170.375 27.5403 170.917 28.0237 171.477 27.7986C171.598 27.7486 171.691 27.6653 171.747 27.5569C171.999 27.0568 171.458 26.5734 170.898 26.7985C170.777 26.8485 170.683 26.9318 170.627 27.0402Z" fill="white"/>
<path d="M80.3862 7.69526C80.1249 8.19535 80.6755 8.67877 81.2354 8.45373C81.3568 8.40372 81.4501 8.32037 81.5061 8.21202C81.758 7.71194 81.2168 7.22852 80.6569 7.45356C80.5355 7.50356 80.4422 7.58691 80.3862 7.69526Z" fill="white"/>
<path d="M67.6387 51.3026C67.3774 51.8027 67.928 52.2861 68.4879 52.0611C68.6092 52.011 68.7025 51.9277 68.7585 51.8193C69.0105 51.3193 68.4692 50.8358 67.9093 51.0609C67.788 51.1109 67.6947 51.1942 67.6387 51.3026Z" fill="white"/>
<path d="M80.6571 88.5005C80.4051 89.0006 80.9464 89.484 81.5063 89.259C81.6276 89.209 81.7209 89.1256 81.7769 89.0173C82.0382 88.5172 81.4876 88.0338 80.9277 88.2588C80.8064 88.3088 80.7131 88.3922 80.6571 88.5005Z" fill="white"/>
<path d="M132.972 104.837C132.721 105.337 133.262 105.82 133.822 105.595C133.943 105.545 134.036 105.462 134.092 105.353C134.344 104.853 133.803 104.37 133.243 104.595C133.122 104.645 133.028 104.728 132.972 104.837Z" fill="white"/>
<path d="M137.667 118.081C137.405 118.581 137.956 119.064 138.516 118.839C138.637 118.789 138.73 118.706 138.786 118.597C139.038 118.097 138.497 117.614 137.937 117.839C137.816 117.889 137.722 117.972 137.667 118.081Z" fill="white"/>
<path d="M74.5911 154.012C74.3298 154.512 74.8804 154.995 75.4403 154.77C75.5616 154.72 75.6549 154.637 75.7109 154.528C75.9629 154.028 75.4216 153.545 74.8617 153.77C74.7404 153.82 74.6471 153.903 74.5911 154.012Z" fill="white"/>
<path d="M65.5296 157.537C65.2777 158.037 65.8189 158.521 66.3788 158.296C66.5002 158.246 66.5935 158.162 66.6495 158.054C66.9108 157.554 66.3602 157.07 65.8003 157.295C65.6789 157.345 65.5856 157.429 65.5296 157.537Z" fill="white"/>
<path d="M155.78 107.304C155.519 107.804 156.069 108.287 156.629 108.062C156.751 108.012 156.844 107.929 156.9 107.82C157.152 107.32 156.611 106.837 156.051 107.062C155.929 107.112 155.836 107.195 155.78 107.304Z" fill="white"/>
<path d="M142.407 136.484C142.146 136.984 142.697 137.467 143.256 137.242C143.378 137.192 143.471 137.109 143.527 137C143.779 136.5 143.238 136.017 142.678 136.242C142.557 136.292 142.463 136.375 142.407 136.484Z" fill="white"/>
<path d="M135.539 147.627C135.278 148.127 135.828 148.611 136.388 148.386C136.509 148.336 136.603 148.252 136.659 148.144C136.911 147.644 136.369 147.16 135.809 147.385C135.688 147.435 135.595 147.519 135.539 147.627Z" fill="white"/>
<path d="M111.714 167.881C111.453 168.381 112.003 168.864 112.563 168.639C112.685 168.589 112.778 168.506 112.834 168.397C113.086 167.897 112.545 167.414 111.985 167.639C111.863 167.689 111.77 167.772 111.714 167.881Z" fill="white"/>
<path d="M104.678 169.214C104.426 169.714 104.967 170.198 105.527 169.973C105.648 169.923 105.741 169.839 105.797 169.731C106.059 169.231 105.508 168.747 104.948 168.972C104.827 169.022 104.734 169.106 104.678 169.214Z" fill="white"/>
<path d="M89.8958 157.787C89.6345 158.287 90.185 158.771 90.745 158.546C90.8663 158.496 90.9596 158.412 91.0156 158.304C91.2676 157.804 90.7263 157.32 90.1664 157.545C90.0451 157.595 89.9517 157.679 89.8958 157.787Z" fill="white"/>
<path d="M61.8155 129.349C61.5635 129.849 62.1048 130.333 62.6647 130.108C62.7861 130.058 62.8794 129.974 62.9354 129.866C63.1967 129.366 62.6461 128.882 62.0861 129.107C61.9648 129.157 61.8715 129.241 61.8155 129.349Z" fill="white"/>
<path d="M52.4835 113.096C52.2315 113.596 52.7728 114.08 53.3327 113.855C53.454 113.805 53.5473 113.721 53.6033 113.613C53.8553 113.113 53.314 112.63 52.7541 112.855C52.6328 112.905 52.5395 112.988 52.4835 113.096Z" fill="white"/>
<path d="M86.9561 174.407C86.7042 174.907 87.2454 175.39 87.8054 175.165C87.9267 175.115 88.02 175.032 88.076 174.923C88.3279 174.423 87.7867 173.94 87.2268 174.165C87.1055 174.215 87.0121 174.298 86.9561 174.407Z" fill="white"/>
<path d="M94.8883 190.134C94.6363 190.634 95.1776 191.118 95.7375 190.893C95.8588 190.843 95.9521 190.759 96.0081 190.651C96.2601 190.151 95.7188 189.668 95.1589 189.893C95.0376 189.943 94.9443 190.026 94.8883 190.134Z" fill="white"/>
<path d="M113.599 207.329C113.347 207.829 113.888 208.312 114.448 208.087C114.57 208.037 114.663 207.954 114.719 207.846C114.98 207.346 114.43 206.862 113.87 207.087C113.749 207.137 113.655 207.221 113.599 207.329Z" fill="white"/>
<path d="M85.1177 224.09C84.8564 224.59 85.407 225.074 85.9669 224.849C86.0882 224.799 86.1815 224.715 86.2375 224.607C86.4895 224.107 85.9482 223.623 85.3883 223.848C85.267 223.898 85.1737 223.982 85.1177 224.09Z" fill="white"/>
<path d="M63.9434 204.703C63.6821 205.204 64.2327 205.687 64.7926 205.462C64.9139 205.412 65.0072 205.329 65.0632 205.22C65.3152 204.72 64.7739 204.237 64.214 204.462C64.0927 204.512 63.9994 204.595 63.9434 204.703Z" fill="white"/>
<path d="M65.8097 146.577C65.5577 147.077 66.099 147.56 66.6589 147.335C66.7802 147.285 66.8735 147.202 66.9295 147.094C67.1908 146.594 66.6402 146.11 66.0803 146.335C65.959 146.385 65.8656 146.469 65.8097 146.577Z" fill="white"/>
<path d="M57.2708 102.878C57.0189 103.378 57.5601 103.861 58.1201 103.636C58.2414 103.586 58.3347 103.503 58.3907 103.395C58.652 102.895 58.1014 102.411 57.5415 102.636C57.4201 102.686 57.3268 102.77 57.2708 102.878Z" fill="white"/>
<path d="M49.5439 58.1621C49.2826 58.6622 49.8332 59.1456 50.3932 58.9205C50.5145 58.8705 50.6078 58.7872 50.6638 58.6788C50.9158 58.1788 50.3745 57.6953 49.8146 57.9204C49.6933 57.9704 49.5999 58.0537 49.5439 58.1621Z" fill="white"/>
<path d="M43.4967 19.2889C43.2447 19.789 43.786 20.2724 44.3459 20.0474C44.4672 19.9973 44.5605 19.914 44.6165 19.8056C44.8778 19.3056 44.3272 18.8221 43.7673 19.0472C43.646 19.0972 43.5527 19.1805 43.4967 19.2889Z" fill="white"/>
<path d="M251.434 4.56972C251.172 5.0698 251.723 5.55322 252.283 5.32818C252.404 5.27817 252.497 5.19482 252.553 5.08647C252.805 4.58639 252.264 4.10297 251.704 4.32801C251.583 4.37802 251.49 4.46136 251.434 4.56972Z" fill="white"/>
<path d="M419.215 31.4576C418.953 31.9577 419.504 32.4494 420.064 32.2161C420.185 32.166 420.278 32.0827 420.334 31.9743C420.586 31.4743 420.045 30.9908 419.485 31.2159C419.364 31.2659 419.271 31.3492 419.215 31.4576Z" fill="white"/>
<path d="M423.871 35.5916C423.619 36.0917 424.161 36.5751 424.721 36.3501C424.842 36.3001 424.935 36.2167 424.991 36.1084C425.243 35.6083 424.702 35.1249 424.142 35.3499C424.021 35.3999 423.927 35.4833 423.871 35.5916Z" fill="white"/>
<path d="M511.611 32.5661C511.359 33.0662 511.901 33.5496 512.461 33.3246C512.582 33.2746 512.675 33.1912 512.731 33.0829C512.993 32.5828 512.442 32.0994 511.882 32.3244C511.761 32.3744 511.667 32.4578 511.611 32.5661Z" fill="white"/>
<path d="M532.543 41.476C532.291 41.976 532.833 42.4595 533.393 42.2344C533.514 42.1844 533.607 42.1011 533.663 41.9927C533.924 41.4926 533.374 41.0092 532.814 41.2343C532.693 41.2843 532.599 41.3676 532.543 41.476Z" fill="white"/>
<path d="M685.477 107.487C685.216 107.987 685.766 108.471 686.326 108.246C686.448 108.196 686.541 108.112 686.597 108.004C686.849 107.504 686.308 107.02 685.748 107.245C685.626 107.295 685.533 107.379 685.477 107.487Z" fill="white"/>
<path d="M714.052 103.02C713.8 103.52 714.341 104.003 714.901 103.778C715.022 103.728 715.116 103.645 715.172 103.536C715.433 103.036 714.882 102.553 714.323 102.778C714.201 102.828 714.108 102.911 714.052 103.02Z" fill="white"/>
<path d="M745.743 87.7671C745.482 88.2672 746.033 88.7506 746.593 88.5256C746.714 88.4756 746.807 88.3922 746.863 88.2838C747.115 87.7838 746.574 87.3004 746.014 87.5254C745.893 87.5754 745.799 87.6587 745.743 87.7671Z" fill="white"/>
<path d="M748.926 42.6928C748.674 43.1929 749.215 43.6763 749.775 43.4513C749.896 43.4013 749.989 43.3179 750.045 43.2096C750.307 42.7095 749.756 42.2261 749.196 42.4511C749.075 42.5011 748.982 42.5845 748.926 42.6928Z" fill="white"/>
<path d="M749.122 3.03615C748.87 3.53623 749.411 4.01964 749.971 3.7946C750.092 3.7446 750.186 3.66125 750.242 3.5529C750.493 3.05281 749.952 2.5694 749.392 2.79444C749.271 2.84445 749.178 2.92779 749.122 3.03615Z" fill="white"/>
<path d="M637.436 87.642C637.174 88.1421 637.725 88.6255 638.285 88.4005C638.406 88.3505 638.499 88.2671 638.555 88.1588C638.807 87.6587 638.266 87.1753 637.706 87.4003C637.585 87.4503 637.492 87.5337 637.436 87.642Z" fill="white"/>
<path d="M488.617 113.238C488.356 113.738 488.906 114.23 489.466 113.997C489.588 113.946 489.681 113.863 489.737 113.755C489.989 113.255 489.448 112.771 488.888 112.996C488.766 113.046 488.673 113.13 488.617 113.238Z" fill="white"/>
<path d="M426.848 116.555C426.596 117.055 427.138 117.539 427.697 117.314C427.819 117.264 427.912 117.18 427.968 117.072C428.22 116.572 427.679 116.089 427.119 116.314C426.998 116.364 426.904 116.447 426.848 116.555Z" fill="white"/>
<path d="M359.07 119.739C358.808 120.239 359.359 120.723 359.919 120.498C360.04 120.448 360.133 120.364 360.189 120.256C360.441 119.756 359.9 119.272 359.34 119.497C359.219 119.547 359.126 119.631 359.07 119.739Z" fill="white"/>
<path d="M291.58 113.955C291.319 114.455 291.869 114.938 292.429 114.713C292.551 114.663 292.644 114.58 292.7 114.472C292.952 113.972 292.411 113.488 291.851 113.713C291.729 113.763 291.636 113.846 291.58 113.955Z" fill="white"/>
<path d="M268.334 133.425C268.082 133.925 268.623 134.408 269.183 134.183C269.305 134.133 269.398 134.05 269.454 133.942C269.706 133.441 269.165 132.958 268.605 133.183C268.483 133.233 268.39 133.316 268.334 133.425Z" fill="white"/>
<path d="M248.149 173.065C247.897 173.565 248.438 174.048 248.998 173.823C249.119 173.773 249.213 173.69 249.269 173.582C249.53 173.082 248.979 172.598 248.419 172.823C248.298 172.873 248.205 172.956 248.149 173.065Z" fill="white"/>
<path d="M251.434 185.45C251.182 185.95 251.723 186.434 252.283 186.209C252.404 186.159 252.498 186.075 252.554 185.967C252.815 185.467 252.264 184.983 251.704 185.209C251.583 185.259 251.49 185.342 251.434 185.45Z" fill="white"/>
<path d="M442.554 192.36C442.293 192.86 442.843 193.343 443.403 193.118C443.525 193.068 443.618 192.985 443.674 192.876C443.926 192.376 443.385 191.893 442.825 192.118C442.703 192.168 442.61 192.251 442.554 192.36Z" fill="white"/>
<path d="M501.29 194.01C501.029 194.51 501.579 194.994 502.139 194.768C502.261 194.718 502.354 194.635 502.41 194.527C502.662 194.027 502.121 193.543 501.561 193.768C501.439 193.818 501.346 193.902 501.29 194.01Z" fill="white"/>
<path d="M529.202 195.377C528.941 195.877 529.492 196.36 530.052 196.135C530.173 196.085 530.266 196.002 530.322 195.894C530.574 195.394 530.033 194.91 529.473 195.135C529.352 195.185 529.258 195.268 529.202 195.377Z" fill="white"/>
<path d="M625.929 118.189C625.668 118.689 626.219 119.181 626.778 118.947C626.9 118.897 626.993 118.814 627.049 118.706C627.301 118.206 626.76 117.722 626.2 117.947C626.079 117.997 625.985 118.081 625.929 118.189Z" fill="white"/>
<path d="M612.538 149.136C612.276 149.636 612.827 150.119 613.387 149.894C613.508 149.844 613.601 149.761 613.657 149.653C613.909 149.152 613.368 148.669 612.808 148.894C612.687 148.944 612.594 149.027 612.538 149.136Z" fill="white"/>
<path d="M571.019 169.898C570.767 170.398 571.309 170.881 571.869 170.656C571.99 170.606 572.083 170.523 572.139 170.414C572.391 169.914 571.85 169.431 571.29 169.656C571.169 169.706 571.075 169.789 571.019 169.898Z" fill="white"/>
<path d="M527.625 179.016C527.364 179.516 527.915 179.999 528.474 179.774C528.596 179.724 528.689 179.641 528.745 179.533C528.997 179.032 528.456 178.549 527.896 178.774C527.775 178.824 527.681 178.907 527.625 179.016Z" fill="white"/>
<path d="M494.478 189.726C494.226 190.226 494.767 190.709 495.327 190.484C495.448 190.434 495.541 190.351 495.597 190.243C495.859 189.743 495.308 189.259 494.748 189.484C494.627 189.534 494.534 189.618 494.478 189.726Z" fill="white"/>
<path d="M485.967 224.49C485.706 224.99 486.256 225.474 486.816 225.249C486.937 225.199 487.031 225.115 487.087 225.007C487.339 224.507 486.797 224.023 486.237 224.248C486.116 224.298 486.023 224.382 485.967 224.49Z" fill="white"/>
<path d="M461.946 243.827C461.694 244.327 462.235 244.81 462.795 244.585C462.917 244.535 463.01 244.452 463.066 244.343C463.327 243.843 462.777 243.36 462.217 243.585C462.095 243.635 462.002 243.718 461.946 243.827Z" fill="white"/>
<path d="M409.584 256.754C409.323 257.254 409.873 257.737 410.433 257.512C410.555 257.462 410.648 257.379 410.704 257.271C410.956 256.771 410.415 256.287 409.855 256.512C409.733 256.562 409.64 256.646 409.584 256.754Z" fill="white"/>
<path d="M389.716 265.572C389.464 266.072 390.005 266.556 390.565 266.331C390.687 266.28 390.78 266.197 390.836 266.089C391.088 265.589 390.547 265.105 389.987 265.33C389.865 265.38 389.772 265.464 389.716 265.572Z" fill="white"/>
<path d="M351.184 236.142C350.932 236.642 351.473 237.126 352.033 236.901C352.154 236.851 352.248 236.767 352.304 236.659C352.556 236.159 352.014 235.675 351.455 235.9C351.333 235.95 351.24 236.034 351.184 236.142Z" fill="white"/>
<path d="M359.592 214.997C359.34 215.497 359.881 215.98 360.441 215.755C360.563 215.705 360.656 215.622 360.712 215.514C360.964 215.014 360.423 214.53 359.863 214.755C359.741 214.805 359.648 214.888 359.592 214.997Z" fill="white"/>
<path d="M355.971 198.469C355.719 198.969 356.261 199.453 356.82 199.228C356.942 199.178 357.035 199.094 357.091 198.986C357.352 198.486 356.802 198.002 356.242 198.227C356.121 198.277 356.027 198.361 355.971 198.469Z" fill="white"/>
<path d="M349.308 171.815C349.056 172.315 349.597 172.798 350.157 172.573C350.279 172.523 350.372 172.44 350.428 172.331C350.689 171.831 350.139 171.348 349.579 171.573C349.458 171.623 349.364 171.706 349.308 171.815Z" fill="white"/>
<path d="M456.842 168.089C456.59 168.589 457.131 169.072 457.691 168.847C457.812 168.797 457.905 168.714 457.961 168.606C458.223 168.106 457.672 167.622 457.112 167.847C456.991 167.897 456.898 167.981 456.842 168.089Z" fill="white"/>
<path d="M424.282 239.276C424.021 239.776 424.571 240.259 425.131 240.034C425.253 239.984 425.346 239.901 425.402 239.793C425.654 239.293 425.113 238.809 424.553 239.034C424.431 239.084 424.338 239.168 424.282 239.276Z" fill="white"/>
<path d="M539.02 262.205C538.768 262.705 539.309 263.188 539.869 262.963C539.99 262.913 540.083 262.83 540.139 262.722C540.401 262.221 539.85 261.738 539.29 261.963C539.169 262.013 539.076 262.096 539.02 262.205Z" fill="white"/>
<path d="M647.682 252.978C647.421 253.478 647.971 253.962 648.531 253.737C648.653 253.687 648.746 253.603 648.802 253.495C649.054 252.995 648.513 252.512 647.953 252.737C647.831 252.787 647.738 252.87 647.682 252.978Z" fill="white"/>
<path d="M597.271 161.046C597.009 161.546 597.56 162.03 598.12 161.805C598.241 161.755 598.334 161.671 598.39 161.563C598.642 161.063 598.101 160.579 597.541 160.804C597.42 160.854 597.327 160.938 597.271 161.046Z" fill="white"/>
<path d="M659.011 190.118C658.759 190.618 659.301 191.101 659.861 190.876C659.982 190.826 660.075 190.743 660.131 190.634C660.383 190.134 659.842 189.651 659.282 189.876C659.161 189.926 659.067 190.009 659.011 190.118Z" fill="white"/>
<path d="M658.899 257.271C658.638 257.771 659.189 258.254 659.749 258.029C659.87 257.979 659.963 257.896 660.019 257.787C660.271 257.287 659.73 256.804 659.17 257.029C659.049 257.079 658.955 257.162 658.899 257.271Z" fill="white"/>
<path d="M687.605 248.261C687.353 248.761 687.894 249.244 688.454 249.019C688.575 248.969 688.668 248.886 688.724 248.778C688.986 248.277 688.435 247.794 687.875 248.019C687.754 248.069 687.661 248.152 687.605 248.261Z" fill="white"/>
<path d="M685.346 255.654C685.085 256.154 685.636 256.637 686.196 256.412C686.317 256.362 686.41 256.279 686.466 256.17C686.718 255.67 686.177 255.187 685.617 255.412C685.496 255.462 685.402 255.545 685.346 255.654Z" fill="white"/>
<path d="M657.275 203.803C657.024 204.303 657.565 204.787 658.125 204.562C658.246 204.512 658.339 204.428 658.395 204.32C658.657 203.82 658.106 203.337 657.546 203.562C657.425 203.612 657.331 203.695 657.275 203.803Z" fill="white"/>
<path d="M699.167 273.207C698.915 273.707 699.456 274.19 700.016 273.965C700.138 273.915 700.231 273.832 700.287 273.723C700.548 273.223 699.998 272.74 699.438 272.965C699.316 273.015 699.223 273.098 699.167 273.207Z" fill="white"/>
<path d="M689.583 280.883C689.331 281.383 689.872 281.866 690.432 281.641C690.554 281.591 690.647 281.508 690.703 281.4C690.964 280.9 690.414 280.416 689.854 280.641C689.732 280.691 689.639 280.775 689.583 280.883Z" fill="white"/>
<path d="M723.757 148.036C723.505 148.536 724.046 149.019 724.606 148.794C724.727 148.744 724.821 148.661 724.877 148.552C725.129 148.052 724.587 147.569 724.028 147.794C723.906 147.844 723.813 147.927 723.757 148.036Z" fill="white"/>
<path d="M713.473 121.573C713.221 122.073 713.763 122.556 714.322 122.331C714.444 122.281 714.537 122.198 714.593 122.09C714.845 121.589 714.304 121.106 713.744 121.331C713.623 121.381 713.529 121.464 713.473 121.573Z" fill="white"/>
<path d="M721.247 209.613C720.995 210.113 721.536 210.596 722.096 210.371C722.217 210.321 722.311 210.238 722.367 210.129C722.618 209.629 722.077 209.146 721.517 209.371C721.396 209.421 721.303 209.504 721.247 209.613Z" fill="white"/>
<path d="M715.041 292.077C714.789 292.577 715.33 293.06 715.89 292.835C716.011 292.785 716.105 292.702 716.161 292.593C716.422 292.093 715.871 291.601 715.312 291.835C715.19 291.885 715.097 291.968 715.041 292.077Z" fill="white"/>
<path d="M686.149 321.94C685.897 322.44 686.438 322.923 686.998 322.698C687.12 322.648 687.213 322.565 687.269 322.457C687.53 321.957 686.98 321.473 686.42 321.698C686.298 321.748 686.205 321.832 686.149 321.94Z" fill="white"/>
<path d="M581.854 244.769C581.602 245.269 582.143 245.752 582.703 245.527C582.824 245.477 582.918 245.394 582.974 245.285C583.235 244.785 582.684 244.302 582.124 244.527C582.003 244.577 581.91 244.66 581.854 244.769Z" fill="white"/>
<path d="M574.519 228.599C574.258 229.099 574.808 229.583 575.368 229.358C575.489 229.308 575.583 229.224 575.639 229.116C575.891 228.616 575.349 228.132 574.789 228.357C574.668 228.407 574.575 228.491 574.519 228.599Z" fill="white"/>
<path d="M614.395 306.279C614.143 306.779 614.684 307.262 615.244 307.037C615.365 306.987 615.458 306.904 615.514 306.796C615.766 306.296 615.225 305.812 614.665 306.037C614.544 306.087 614.451 306.171 614.395 306.279Z" fill="white"/>
<path d="M665.842 326.499C665.581 326.999 666.132 327.483 666.691 327.258C666.813 327.207 666.906 327.124 666.962 327.016C667.214 326.516 666.673 326.032 666.113 326.257C665.992 326.307 665.898 326.391 665.842 326.499Z" fill="white"/>
<path d="M700.623 340.551C700.362 341.051 700.912 341.535 701.472 341.31C701.594 341.26 701.687 341.176 701.743 341.068C701.995 340.568 701.454 340.085 700.894 340.31C700.772 340.36 700.679 340.443 700.623 340.551Z" fill="white"/>
<path d="M641.364 334.05C641.112 334.55 641.654 335.034 642.214 334.809C642.335 334.759 642.428 334.675 642.484 334.567C642.736 334.067 642.195 333.584 641.635 333.809C641.514 333.859 641.42 333.942 641.364 334.05Z" fill="white"/>
<path d="M544.684 308.954C544.423 309.454 544.974 309.938 545.534 309.713C545.655 309.663 545.748 309.579 545.804 309.471C546.056 308.971 545.515 308.488 544.955 308.713C544.834 308.763 544.74 308.846 544.684 308.954Z" fill="white"/>
<path d="M552.98 328.266C552.719 328.766 553.27 329.249 553.83 329.024C553.951 328.974 554.044 328.891 554.1 328.783C554.352 328.283 553.811 327.799 553.251 328.024C553.13 328.074 553.036 328.158 552.98 328.266Z" fill="white"/>
<path d="M620.694 169.714C620.442 170.214 620.983 170.698 621.543 170.473C621.664 170.423 621.758 170.339 621.814 170.231C622.075 169.731 621.524 169.239 620.965 169.473C620.843 169.523 620.75 169.606 620.694 169.714Z" fill="white"/>
<path d="M566.008 190.993C565.756 191.493 566.297 191.976 566.857 191.751C566.978 191.701 567.072 191.618 567.128 191.51C567.389 191.009 566.838 190.526 566.279 190.751C566.157 190.801 566.064 190.884 566.008 190.993Z" fill="white"/>
<path d="M629.354 178.974C629.102 179.474 629.643 179.958 630.203 179.733C630.325 179.683 630.418 179.599 630.474 179.491C630.735 178.991 630.185 178.499 629.625 178.732C629.503 178.782 629.41 178.866 629.354 178.974Z" fill="white"/>
<path d="M730.607 159.971C730.355 160.471 730.896 160.954 731.456 160.729C731.577 160.679 731.671 160.596 731.727 160.488C731.988 159.988 731.437 159.504 730.877 159.729C730.756 159.779 730.663 159.863 730.607 159.971Z" fill="white"/>
<path d="M770.091 240.635C769.839 241.135 770.38 241.618 770.94 241.393C771.061 241.343 771.155 241.26 771.211 241.151C771.463 240.651 770.921 240.168 770.362 240.393C770.24 240.443 770.147 240.526 770.091 240.635Z" fill="white"/>
<path d="M748.291 287.617C748.03 288.118 748.58 288.601 749.14 288.376C749.262 288.326 749.355 288.243 749.411 288.134C749.663 287.634 749.122 287.151 748.562 287.376C748.44 287.426 748.347 287.509 748.291 287.617Z" fill="white"/>
<path d="M691.449 295.552C691.188 296.052 691.739 296.536 692.299 296.311C692.42 296.261 692.513 296.177 692.569 296.069C692.821 295.569 692.28 295.085 691.72 295.31C691.599 295.36 691.505 295.444 691.449 295.552Z" fill="white"/>
<path d="M681.175 253.637C680.923 254.137 681.464 254.62 682.024 254.395C682.145 254.345 682.239 254.262 682.295 254.153C682.547 253.653 682.005 253.17 681.445 253.395C681.324 253.445 681.231 253.528 681.175 253.637Z" fill="white"/>
<path d="M446.875 335.242C446.623 335.742 447.164 336.226 447.724 336.001C447.845 335.951 447.939 335.867 447.995 335.759C448.256 335.259 447.705 334.775 447.145 335C447.024 335.05 446.931 335.134 446.875 335.242Z" fill="white"/>
<path d="M404.955 300.078C404.703 300.578 405.245 301.061 405.805 300.836C405.926 300.786 406.019 300.703 406.075 300.595C406.327 300.095 405.786 299.611 405.226 299.836C405.105 299.886 405.011 299.97 404.955 300.078Z" fill="white"/>
<path d="M479.462 335.325C479.201 335.826 479.752 336.309 480.312 336.084C480.433 336.034 480.526 335.951 480.582 335.842C480.834 335.342 480.293 334.859 479.733 335.084C479.612 335.134 479.518 335.217 479.462 335.325Z" fill="white"/>
<path d="M451.952 274.599C451.69 275.099 452.241 275.582 452.801 275.357C452.922 275.307 453.016 275.224 453.072 275.115C453.323 274.615 452.782 274.132 452.222 274.357C452.101 274.407 452.008 274.49 451.952 274.599Z" fill="white"/>
<path d="M390.351 319.473C390.089 319.973 390.64 320.456 391.2 320.231C391.321 320.181 391.414 320.098 391.47 319.99C391.722 319.489 391.181 319.006 390.621 319.231C390.5 319.281 390.407 319.364 390.351 319.473Z" fill="white"/>
<path d="M465.259 285.209C465.007 285.709 465.548 286.192 466.108 285.967C466.23 285.917 466.323 285.834 466.379 285.725C466.631 285.225 466.09 284.742 465.53 284.967C465.408 285.017 465.315 285.1 465.259 285.209Z" fill="white"/>
<path d="M252.535 314.447C252.283 314.947 252.824 315.43 253.384 315.205C253.505 315.155 253.599 315.072 253.655 314.964C253.907 314.464 253.365 313.98 252.805 314.205C252.684 314.255 252.591 314.339 252.535 314.447Z" fill="white"/>
<path d="M326.827 314.83C326.575 315.33 327.117 315.814 327.676 315.589C327.798 315.539 327.891 315.455 327.947 315.347C328.199 314.847 327.658 314.364 327.098 314.589C326.977 314.639 326.883 314.722 326.827 314.83Z" fill="white"/>
<path d="M182.386 338.334C182.134 338.834 182.675 339.318 183.235 339.093C183.356 339.043 183.45 338.959 183.506 338.851C183.767 338.351 183.216 337.868 182.656 338.093C182.535 338.143 182.442 338.226 182.386 338.334Z" fill="white"/>
<path d="M220.302 268.398C220.05 268.898 220.591 269.381 221.151 269.156C221.272 269.106 221.366 269.023 221.422 268.914C221.674 268.414 221.132 267.931 220.572 268.156C220.451 268.206 220.358 268.289 220.302 268.398Z" fill="white"/>
<path d="M203.485 187.934C203.233 188.434 203.775 188.917 204.335 188.692C204.456 188.642 204.549 188.559 204.605 188.451C204.867 187.951 204.316 187.467 203.756 187.692C203.635 187.742 203.541 187.826 203.485 187.934Z" fill="white"/>
<path d="M96.8853 264.939C96.6334 265.439 97.1746 265.922 97.7346 265.697C97.8559 265.647 97.9492 265.564 98.0052 265.455C98.2665 264.955 97.7159 264.472 97.156 264.697C97.0347 264.747 96.9413 264.83 96.8853 264.939Z" fill="white"/>
<path d="M79.3785 330.225C79.1265 330.725 79.6678 331.208 80.2277 330.983C80.349 330.933 80.4424 330.85 80.4984 330.741C80.7503 330.241 80.2091 329.758 79.6491 329.983C79.5278 330.033 79.4345 330.116 79.3785 330.225Z" fill="white"/>
<path d="M59.8277 348.861C59.5758 349.361 60.117 349.845 60.6769 349.62C60.7983 349.57 60.8916 349.486 60.9476 349.378C61.2089 348.878 60.6583 348.386 60.0984 348.619C59.977 348.669 59.8837 348.753 59.8277 348.861Z" fill="white"/>
<path d="M45.8018 263.722C45.5499 264.222 46.0911 264.705 46.6511 264.48C46.7724 264.43 46.8657 264.347 46.9217 264.238C47.1737 263.738 46.6324 263.255 46.0725 263.48C45.9512 263.53 45.8578 263.613 45.8018 263.722Z" fill="white"/>
<path d="M71.8662 247.877C71.6049 248.378 72.1555 248.861 72.7154 248.636C72.8367 248.586 72.9301 248.503 72.9861 248.394C73.238 247.894 72.6968 247.411 72.1368 247.636C72.0155 247.686 71.9222 247.769 71.8662 247.877Z" fill="white"/>
<path d="M117.024 333.7C116.763 334.2 117.313 334.684 117.873 334.459C117.994 334.409 118.088 334.325 118.144 334.217C118.396 333.717 117.854 333.233 117.295 333.459C117.173 333.509 117.08 333.592 117.024 333.7Z" fill="white"/>
<path d="M206.77 272.015C206.518 272.515 207.06 272.998 207.62 272.773C207.741 272.723 207.834 272.64 207.89 272.532C208.151 272.031 207.601 271.548 207.041 271.773C206.92 271.823 206.826 271.906 206.77 272.015Z" fill="white"/>
<path d="M160.987 225.807C160.735 226.307 161.277 226.791 161.837 226.565C161.958 226.515 162.051 226.432 162.107 226.324C162.369 225.824 161.818 225.34 161.258 225.565C161.137 225.615 161.043 225.699 160.987 225.807Z" fill="white"/>
<path d="M157.954 92.1345C157.693 92.6346 158.244 93.118 158.804 92.8929C158.925 92.8429 159.018 92.7596 159.074 92.6512C159.326 92.1511 158.785 91.6677 158.225 91.8928C158.104 91.9428 158.01 92.0261 157.954 92.1345Z" fill="white"/>
<path d="M250.342 51.8027C250.09 52.3028 250.631 52.7862 251.191 52.5611C251.312 52.5111 251.406 52.4278 251.462 52.3194C251.723 51.8194 251.172 51.3359 250.612 51.561C250.491 51.611 250.398 51.6943 250.342 51.8027Z" fill="white"/>
<path d="M299.307 65.1049C299.046 65.605 299.596 66.0884 300.156 65.8634C300.278 65.8134 300.371 65.73 300.427 65.6217C300.679 65.1216 300.138 64.6382 299.578 64.8632C299.456 64.9132 299.363 64.9966 299.307 65.1049Z" fill="white"/>
<path d="M269.118 96.8519C268.866 97.352 269.407 97.8354 269.967 97.6104C270.088 97.5604 270.182 97.477 270.238 97.3687C270.499 96.8686 269.948 96.3852 269.388 96.6102C269.267 96.6602 269.174 96.7436 269.118 96.8519Z" fill="white"/>
<path d="M457 33.583C456.748 34.083 457.289 34.5665 457.849 34.3414C457.971 34.2914 458.064 34.2081 458.12 34.0997C458.381 33.5996 457.831 33.1162 457.271 33.3413C457.149 33.3913 457.056 33.4746 457 33.583Z" fill="white"/>
<path d="M535.408 95.9435C535.156 96.4435 535.698 96.927 536.258 96.7019C536.379 96.6519 536.472 96.5686 536.528 96.4602C536.78 95.9601 536.239 95.4767 535.679 95.7018C535.558 95.7518 535.464 95.8351 535.408 95.9435Z" fill="white"/>
<path d="M515.69 132.483C515.438 132.983 515.979 133.466 516.539 133.241C516.66 133.191 516.753 133.108 516.809 133C517.071 132.5 516.52 132.016 515.96 132.241C515.839 132.291 515.746 132.375 515.69 132.483Z" fill="white"/>
<path d="M391.48 30.5158C391.228 31.0158 391.769 31.4993 392.329 31.2742C392.45 31.2242 392.544 31.1409 392.6 31.0325C392.852 30.5324 392.31 30.049 391.75 30.2741C391.629 30.3241 391.536 30.4074 391.48 30.5158Z" fill="white"/>
<path d="M416.62 93.6347C416.368 94.1348 416.91 94.6182 417.47 94.3932C417.591 94.3432 417.684 94.2598 417.74 94.1515C418.002 93.6514 417.451 93.1597 416.891 93.393C416.77 93.443 416.676 93.5264 416.62 93.6347Z" fill="white"/>
<path d="M522.53 59.504C522.278 60.0041 522.819 60.4875 523.379 60.2624C523.5 60.2124 523.594 60.1291 523.65 60.0207C523.911 59.5207 523.36 59.0372 522.8 59.2623C522.679 59.3123 522.586 59.3956 522.53 59.504Z" fill="white"/>
<path d="M558.375 73.9981C558.113 74.4982 558.664 74.9816 559.224 74.7565C559.345 74.7065 559.438 74.6232 559.494 74.5148C559.746 74.0148 559.205 73.5313 558.645 73.7564C558.524 73.8064 558.431 73.8897 558.375 73.9981Z" fill="white"/>
<path d="M600.303 0.160658C600.051 0.660742 600.593 1.14416 601.153 0.919122C601.274 0.869114 601.367 0.785765 601.423 0.677414C601.675 0.17733 601.134 -0.306088 600.574 -0.0810504C600.453 -0.031042 600.359 0.0523062 600.303 0.160658Z" fill="white"/>
<path d="M570.581 13.5546C570.319 14.0547 570.87 14.5381 571.43 14.313C571.551 14.263 571.644 14.1797 571.7 14.0713C571.952 13.5713 571.411 13.0878 570.851 13.3129C570.73 13.3629 570.637 13.4462 570.581 13.5546Z" fill="white"/>
<path d="M609.869 48.7355C609.617 49.2356 610.158 49.719 610.718 49.4939C610.839 49.4439 610.933 49.3606 610.989 49.2522C611.241 48.7521 610.699 48.2687 610.139 48.4938C610.018 48.5438 609.925 48.6271 609.869 48.7355Z" fill="white"/>
<path d="M618.23 47.8854C617.978 48.3854 618.519 48.8689 619.079 48.6438C619.201 48.5938 619.294 48.5105 619.35 48.4021C619.602 47.902 619.061 47.4186 618.501 47.6437C618.379 47.6937 618.286 47.777 618.23 47.8854Z" fill="white"/>
<path d="M638.863 5.98664C638.611 6.48672 639.153 6.97014 639.713 6.74511C639.834 6.6951 639.927 6.61175 639.983 6.5034C640.235 6.00331 639.694 5.5199 639.134 5.74494C639.013 5.79495 638.919 5.87829 638.863 5.98664Z" fill="white"/>
<path d="M591.391 49.794C591.139 50.2941 591.681 50.7775 592.24 50.5525C592.362 50.5025 592.455 50.4191 592.511 50.3108C592.763 49.8107 592.222 49.3273 591.662 49.5523C591.541 49.6023 591.447 49.6857 591.391 49.794Z" fill="white"/>
<path d="M610.158 43.2679C609.906 43.768 610.447 44.2514 611.007 44.0264C611.128 43.9764 611.222 43.893 611.278 43.7847C611.539 43.2846 610.988 42.8012 610.428 43.0262C610.307 43.0762 610.214 43.1596 610.158 43.2679Z" fill="white"/>
<path d="M593.23 42.3011C592.978 42.8012 593.519 43.2846 594.079 43.0596C594.2 43.0095 594.293 42.9262 594.349 42.8178C594.611 42.3178 594.06 41.8344 593.5 42.0594C593.379 42.1094 593.286 42.1927 593.23 42.3011Z" fill="white"/>
<path d="M648.27 7.73692C648.009 8.23701 648.559 8.72042 649.119 8.49538C649.241 8.44537 649.334 8.36202 649.39 8.25367C649.642 7.75359 649.101 7.27018 648.541 7.49521C648.419 7.54522 648.326 7.62857 648.27 7.73692Z" fill="white"/>
<path d="M717.673 46.5351C717.411 47.0352 717.962 47.527 718.522 47.2936C718.643 47.2436 718.736 47.1602 718.792 47.0519C719.044 46.5518 718.503 46.0684 717.943 46.2934C717.822 46.3434 717.729 46.4268 717.673 46.5351Z" fill="white"/>
<path d="M673.131 77.1569C672.879 77.657 673.42 78.1404 673.98 77.9154C674.101 77.8654 674.195 77.782 674.251 77.6737C674.503 77.1736 673.961 76.6902 673.401 76.9152C673.28 76.9652 673.187 77.0486 673.131 77.1569Z" fill="white"/>
<path d="M663.416 45.2349C663.164 45.735 663.705 46.2184 664.265 45.9934C664.387 45.9434 664.48 45.86 664.536 45.7517C664.797 45.2516 664.247 44.7682 663.687 44.9932C663.565 45.0432 663.472 45.1266 663.416 45.2349Z" fill="white"/>
<path d="M673.224 35.825C672.972 36.3251 673.513 36.8085 674.073 36.5835C674.195 36.5335 674.288 36.4501 674.344 36.3418C674.596 35.8417 674.055 35.3582 673.495 35.5833C673.373 35.6333 673.28 35.7166 673.224 35.825Z" fill="white"/>
<path d="M674.866 67.672C674.605 68.1721 675.156 68.6555 675.716 68.4305C675.837 68.3805 675.93 68.2971 675.986 68.1888C676.238 67.6887 675.697 67.2053 675.137 67.4303C675.016 67.4803 674.922 67.5637 674.866 67.672Z" fill="white"/>
<path d="M720.93 56.4285C720.678 56.9285 721.219 57.412 721.779 57.1869C721.9 57.1369 721.993 57.0536 722.049 56.9452C722.311 56.4451 721.76 55.9534 721.2 56.1868C721.079 56.2368 720.986 56.3201 720.93 56.4285Z" fill="white"/>
<path d="M711.112 8.26201C710.86 8.76209 711.401 9.24551 711.961 9.02047C712.083 8.97046 712.176 8.88711 712.232 8.77876C712.493 8.27868 711.943 7.79526 711.383 8.0203C711.261 8.07031 711.168 8.15366 711.112 8.26201Z" fill="white"/>
<path d="M698.103 35.8333C697.851 36.3334 698.393 36.8168 698.953 36.5918C699.074 36.5418 699.167 36.4584 699.223 36.3501C699.475 35.85 698.934 35.3666 698.374 35.5916C698.253 35.6416 698.159 35.725 698.103 35.8333Z" fill="white"/>
<path d="M748.048 10.4374C747.787 10.9375 748.338 11.4209 748.898 11.1958C749.019 11.1458 749.112 11.0625 749.168 10.9541C749.42 10.4541 748.879 9.97065 748.319 10.1957C748.198 10.2457 748.104 10.329 748.048 10.4374Z" fill="white"/>
<path d="M741.348 13.5212C741.096 14.0213 741.637 14.5047 742.197 14.2797C742.319 14.2297 742.412 14.1463 742.468 14.038C742.729 13.5379 742.179 13.0545 741.619 13.2795C741.497 13.3295 741.404 13.4129 741.348 13.5212Z" fill="white"/>
<path d="M758.818 69.8641C758.566 70.3641 759.107 70.8476 759.667 70.6225C759.788 70.5725 759.882 70.4892 759.938 70.3808C760.19 69.8807 759.648 69.3973 759.088 69.6223C758.967 69.6724 758.874 69.7557 758.818 69.8641Z" fill="white"/>
<path d="M679.588 48.6355C679.336 49.1356 679.878 49.619 680.438 49.394C680.559 49.3439 680.652 49.2606 680.708 49.1522C680.97 48.6522 680.419 48.1687 679.859 48.3938C679.738 48.4438 679.644 48.5271 679.588 48.6355Z" fill="white"/>
<path d="M672.692 10.2123C672.431 10.7124 672.981 11.1959 673.541 10.9708C673.663 10.9208 673.756 10.8375 673.812 10.7291C674.064 10.229 673.523 9.74561 672.963 9.97065C672.841 10.0207 672.748 10.104 672.692 10.2123Z" fill="white"/>
<path d="M749.794 25.4399C749.542 25.94 750.083 26.4234 750.643 26.1984C750.764 26.1483 750.857 26.065 750.913 25.9566C751.175 25.4566 750.624 24.9731 750.064 25.1982C749.943 25.2482 749.85 25.3315 749.794 25.4399Z" fill="white"/>
<path d="M766.927 7.42021C766.666 7.92029 767.217 8.40371 767.776 8.17867C767.898 8.12867 767.991 8.04532 768.047 7.93697C768.299 7.43688 767.758 6.95346 767.198 7.1785C767.077 7.22851 766.983 7.31186 766.927 7.42021Z" fill="white"/>
<path d="M785.871 114.522C785.619 115.022 786.161 115.505 786.72 115.28C786.842 115.23 786.935 115.147 786.991 115.038C787.252 114.538 786.702 114.055 786.142 114.28C786.02 114.33 785.927 114.413 785.871 114.522Z" fill="white"/>
<path d="M779.189 129.574C778.928 130.074 779.479 130.558 780.039 130.333C780.16 130.283 780.253 130.199 780.309 130.091C780.571 129.591 780.02 129.107 779.46 129.332C779.339 129.382 779.245 129.466 779.189 129.574Z" fill="white"/>
<path d="M798.815 183.125C798.563 183.625 799.104 184.108 799.664 183.883C799.785 183.833 799.879 183.75 799.935 183.642C800.196 183.141 799.645 182.65 799.085 182.883C798.964 182.933 798.871 183.016 798.815 183.125Z" fill="white"/>
<path d="M790.761 201.103C790.5 201.603 791.051 202.086 791.61 201.861C791.732 201.811 791.825 201.728 791.881 201.62C792.133 201.12 791.592 200.636 791.032 200.861C790.911 200.911 790.817 200.995 790.761 201.103Z" fill="white"/>
<path d="M720.584 98.1355C720.332 98.6356 720.873 99.119 721.433 98.894C721.555 98.844 721.648 98.7606 721.704 98.6523C721.965 98.1522 721.415 97.6688 720.855 97.8938C720.733 97.9438 720.64 98.0272 720.584 98.1355Z" fill="white"/>
<path d="M715.396 130.974C715.134 131.474 715.685 131.958 716.245 131.733C716.366 131.683 716.459 131.599 716.515 131.491C716.767 130.991 716.226 130.508 715.666 130.733C715.545 130.783 715.451 130.866 715.396 130.974Z" fill="white"/>
<path d="M688.883 48.5438C688.622 49.0439 689.173 49.5356 689.732 49.3023C689.854 49.2523 689.947 49.1689 690.003 49.0606C690.255 48.5605 689.714 48.0771 689.154 48.3021C689.033 48.3521 688.939 48.4355 688.883 48.5438Z" fill="white"/>
<path d="M503.129 32.1077C502.867 32.6078 503.418 33.0912 503.978 32.8662C504.099 32.8162 504.193 32.7328 504.249 32.6245C504.5 32.1244 503.959 31.641 503.399 31.866C503.278 31.916 503.185 31.9994 503.129 32.1077Z" fill="white"/>
<path d="M522.381 15.5632C522.119 16.0633 522.67 16.5467 523.23 16.3217C523.351 16.2717 523.444 16.1883 523.5 16.08C523.752 15.5799 523.211 15.0965 522.651 15.3215C522.53 15.3715 522.437 15.4549 522.381 15.5632Z" fill="white"/>
<path d="M502.149 -0.622826C501.887 -0.122742 502.438 0.360676 502.998 0.135638C503.119 0.0856299 503.212 0.00228179 503.268 -0.10607C503.52 -0.606154 502.979 -1.08957 502.419 -0.864528C502.298 -0.814519 502.205 -0.731177 502.149 -0.622826Z" fill="white"/>
<path d="M453.697 4.16965C453.445 4.66974 453.986 5.15316 454.546 4.92812C454.667 4.87811 454.76 4.79476 454.816 4.68641C455.068 4.18633 454.527 3.70291 453.967 3.92795C453.846 3.97796 453.753 4.0613 453.697 4.16965Z" fill="white"/>
<path d="M357.717 19.0305C357.455 19.5306 358.006 20.014 358.566 19.789C358.687 19.739 358.78 19.6556 358.836 19.5473C359.088 19.0472 358.547 18.5638 357.987 18.7888C357.866 18.8388 357.773 18.9221 357.717 19.0305Z" fill="white"/>
<path d="M362.541 51.2109C362.289 51.711 362.83 52.1944 363.39 51.9694C363.512 51.9194 363.605 51.836 363.661 51.7277C363.913 51.2276 363.372 50.7442 362.812 50.9692C362.69 51.0192 362.597 51.1026 362.541 51.2109Z" fill="white"/>
<path d="M277.853 39.8507C277.601 40.3507 278.142 40.8342 278.702 40.6091C278.823 40.5591 278.916 40.4758 278.972 40.3674C279.234 39.8673 278.683 39.3839 278.123 39.609C278.002 39.659 277.909 39.7423 277.853 39.8507Z" fill="white"/>
<path d="M289.312 18.6054C289.06 19.1055 289.602 19.5889 290.162 19.3639C290.283 19.3139 290.376 19.2305 290.432 19.1222C290.684 18.6221 290.143 18.1387 289.583 18.3637C289.462 18.4137 289.368 18.4971 289.312 18.6054Z" fill="white"/>
<path d="M299.41 29.3656C299.158 29.8657 299.699 30.3491 300.259 30.124C300.38 30.074 300.474 29.9907 300.53 29.8823C300.782 29.3823 300.24 28.8988 299.68 29.1239C299.559 29.1739 299.466 29.2572 299.41 29.3656Z" fill="white"/>
<path d="M314.08 42.7762C313.828 43.2763 314.369 43.7597 314.929 43.5346C315.05 43.4846 315.144 43.4013 315.2 43.2929C315.461 42.7928 314.91 42.3094 314.35 42.5345C314.229 42.5845 314.136 42.6678 314.08 42.7762Z" fill="white"/>
<path d="M326.837 8.72877C326.585 9.22886 327.126 9.71228 327.686 9.48724C327.807 9.43723 327.901 9.35388 327.957 9.24553C328.218 8.74544 327.667 8.26203 327.107 8.48706C326.986 8.53707 326.893 8.62042 326.837 8.72877Z" fill="white"/>
<path d="M119.814 22.031C119.562 22.5311 120.104 23.0145 120.664 22.7895C120.785 22.7395 120.878 22.6561 120.934 22.5478C121.195 22.0477 120.645 21.5643 120.085 21.7893C119.964 21.8393 119.87 21.9227 119.814 22.031Z" fill="white"/>
<path d="M172.783 41.2843C172.531 41.7843 173.072 42.2678 173.632 42.0427C173.754 41.9927 173.847 41.9094 173.903 41.801C174.164 41.3009 173.614 40.8175 173.054 41.0425C172.932 41.0926 172.839 41.1759 172.783 41.2843Z" fill="white"/>
<path d="M98.2293 63.8714C97.9774 64.3715 98.5186 64.8549 99.0785 64.6299C99.1999 64.5798 99.2932 64.4965 99.3492 64.3881C99.6105 63.8881 99.0599 63.4046 98.5 63.6297C98.3786 63.6797 98.2853 63.763 98.2293 63.8714Z" fill="white"/>
<path d="M93.8057 86.0334C93.5538 86.5335 94.095 87.0169 94.655 86.7919C94.7763 86.7419 94.8696 86.6585 94.9256 86.5502C95.1869 86.0501 94.6363 85.5584 94.0764 85.7917C93.9551 85.8417 93.8617 85.9251 93.8057 86.0334Z" fill="white"/>
<path d="M114.514 32.8912C114.262 33.3913 114.803 33.8747 115.363 33.6496C115.484 33.5996 115.578 33.5163 115.634 33.4079C115.895 32.9079 115.344 32.4244 114.784 32.6495C114.663 32.6995 114.57 32.7828 114.514 32.8912Z" fill="white"/>
<path d="M119.572 49.1439C119.32 49.644 119.861 50.1274 120.421 49.9024C120.542 49.8524 120.635 49.769 120.691 49.6607C120.953 49.1606 120.402 48.6772 119.842 48.9022C119.721 48.9522 119.628 49.0356 119.572 49.1439Z" fill="white"/>
<path d="M96.6802 115.522C96.4189 116.022 96.9695 116.505 97.5294 116.28C97.6507 116.23 97.744 116.147 97.8 116.038C98.052 115.538 97.5107 115.055 96.9508 115.28C96.8295 115.33 96.7362 115.413 96.6802 115.522Z" fill="white"/>
<path d="M66.379 85.8418C66.127 86.3418 66.6683 86.8253 67.2282 86.6002C67.3495 86.5502 67.4428 86.4669 67.4988 86.3585C67.7601 85.8584 67.2095 85.375 66.6496 85.6C66.5283 85.65 66.435 85.7334 66.379 85.8418Z" fill="white"/>
<path d="M31.3838 1.5609C31.1225 2.06098 31.6731 2.5444 32.233 2.31936C32.3543 2.26935 32.4476 2.186 32.5036 2.07765C32.7556 1.57757 32.2143 1.09415 31.6544 1.31919C31.5331 1.3692 31.4398 1.45254 31.3838 1.5609Z" fill="white"/>
<path d="M23.5167 82.5079C23.2647 83.0079 23.806 83.4914 24.3659 83.2663C24.4872 83.2163 24.5805 83.133 24.6365 83.0246C24.8885 82.5245 24.3472 82.0411 23.7873 82.2661C23.666 82.3162 23.5727 82.3995 23.5167 82.5079Z" fill="white"/>
<path d="M25.5604 75.3233C25.3084 75.8234 25.8497 76.3068 26.4096 76.0818C26.5309 76.0318 26.6242 75.9484 26.6802 75.8401C26.9415 75.34 26.3909 74.8566 25.831 75.0816C25.7097 75.1316 25.6164 75.215 25.5604 75.3233Z" fill="white"/>
<path d="M46.4176 198.386C46.1656 198.886 46.7069 199.369 47.2668 199.144C47.3881 199.094 47.4814 199.011 47.5374 198.903C47.7987 198.402 47.2481 197.919 46.6882 198.144C46.5669 198.194 46.4736 198.277 46.4176 198.386Z" fill="white"/>
<path d="M57.5975 166.247C57.3455 166.747 57.8868 167.23 58.4467 167.005C58.568 166.955 58.6613 166.872 58.7173 166.764C58.9786 166.264 58.428 165.78 57.8681 166.005C57.7468 166.055 57.6535 166.139 57.5975 166.247Z" fill="white"/>
<path d="M44.5233 180.599C44.2713 181.099 44.8126 181.583 45.3725 181.358C45.4938 181.308 45.5871 181.224 45.6431 181.116C45.8951 180.616 45.3538 180.133 44.7939 180.358C44.6726 180.408 44.5793 180.491 44.5233 180.599Z" fill="white"/>
<path d="M0.0652688 231.008C-0.186697 231.508 0.354563 231.991 0.914486 231.766C1.0358 231.716 1.12912 231.633 1.18512 231.525C1.44641 231.025 0.895822 230.541 0.335898 230.766C0.214582 230.816 0.121261 230.9 0.0652688 231.008Z" fill="white"/>
<path d="M0.513182 152.586C0.251885 153.086 0.802476 153.578 1.3624 153.345C1.48372 153.295 1.57704 153.211 1.63303 153.103C1.88499 152.603 1.34374 152.12 0.783812 152.345C0.662495 152.395 0.569175 152.478 0.513182 152.586Z" fill="white"/>
<path d="M4.89925 286.609C4.64729 287.109 5.18855 287.592 5.74847 287.367C5.86979 287.317 5.96311 287.234 6.0191 287.126C6.27107 286.626 5.72981 286.142 5.16988 286.367C5.04857 286.417 4.95525 286.501 4.89925 286.609Z" fill="white"/>
<path d="M4.67538 226.799C4.42341 227.299 4.96467 227.782 5.52459 227.557C5.64591 227.507 5.73923 227.424 5.79522 227.316C6.04719 226.816 5.50593 226.332 4.94601 226.557C4.82469 226.607 4.73137 226.69 4.67538 226.799Z" fill="white"/>
<path d="M32.8021 323.582C32.5501 324.082 33.0914 324.565 33.6513 324.34C33.7726 324.29 33.8659 324.207 33.9219 324.099C34.1832 323.598 33.6326 323.115 33.0727 323.34C32.9514 323.39 32.8581 323.473 32.8021 323.582Z" fill="white"/>
<path d="M72.0527 306.162C71.7914 306.662 72.342 307.154 72.902 306.921C73.0233 306.871 73.1166 306.787 73.1726 306.679C73.4245 306.179 72.8833 305.695 72.3234 305.921C72.202 305.971 72.1087 306.054 72.0527 306.162Z" fill="white"/>
<path d="M120.206 219.814C119.945 220.314 120.496 220.798 121.056 220.573C121.177 220.523 121.27 220.439 121.326 220.331C121.578 219.831 121.037 219.348 120.477 219.573C120.356 219.623 120.262 219.706 120.206 219.814Z" fill="white"/>
<path d="M107.272 209.004C107.02 209.504 107.561 209.988 108.121 209.763C108.243 209.713 108.336 209.629 108.392 209.521C108.644 209.021 108.103 208.537 107.543 208.762C107.421 208.812 107.328 208.896 107.272 209.004Z" fill="white"/>
<path d="M74.6192 231.166C74.3673 231.666 74.9085 232.15 75.4684 231.925C75.5898 231.875 75.6831 231.791 75.7391 231.683C76.0004 231.183 75.4498 230.7 74.8899 230.925C74.7685 230.975 74.6752 231.058 74.6192 231.166Z" fill="white"/>
<path d="M110.305 288.776C110.044 289.276 110.594 289.759 111.154 289.534C111.275 289.484 111.369 289.401 111.425 289.293C111.677 288.793 111.135 288.309 110.576 288.534C110.454 288.584 110.361 288.668 110.305 288.776Z" fill="white"/>
<path d="M96.68 278.474C96.428 278.974 96.9693 279.458 97.5292 279.233C97.6506 279.183 97.7439 279.099 97.7999 278.991C98.0518 278.491 97.5106 278.008 96.9506 278.233C96.8293 278.283 96.736 278.366 96.68 278.474Z" fill="white"/>
<path d="M90.6423 233.192C90.381 233.692 90.9316 234.175 91.4916 233.95C91.6129 233.9 91.7062 233.817 91.7622 233.708C92.0141 233.208 91.4729 232.725 90.913 232.95C90.7916 233 90.6983 233.083 90.6423 233.192Z" fill="white"/>
<path d="M216.271 103.286C216.009 103.786 216.56 104.27 217.12 104.045C217.241 103.995 217.334 103.911 217.39 103.803C217.642 103.303 217.101 102.82 216.541 103.045C216.42 103.095 216.326 103.178 216.271 103.286Z" fill="white"/>
<path d="M207.75 112.73C207.498 113.23 208.04 113.713 208.6 113.488C208.721 113.438 208.814 113.355 208.87 113.246C209.122 112.746 208.581 112.263 208.021 112.488C207.9 112.538 207.806 112.621 207.75 112.73Z" fill="white"/>
<path d="M235.597 84.1832C235.345 84.6832 235.887 85.1667 236.446 84.9416C236.568 84.8916 236.661 84.8083 236.717 84.6999C236.978 84.1998 236.428 83.7081 235.868 83.9415C235.747 83.9915 235.653 84.0748 235.597 84.1832Z" fill="white"/>
<path d="M273.756 100.994C273.495 101.494 274.045 101.978 274.605 101.753C274.726 101.703 274.82 101.619 274.876 101.511C275.128 101.011 274.586 100.528 274.026 100.753C273.905 100.803 273.812 100.886 273.756 100.994Z" fill="white"/>
<path d="M234.104 164.338C233.852 164.838 234.393 165.322 234.953 165.097C235.075 165.047 235.168 164.963 235.224 164.855C235.485 164.355 234.935 163.872 234.375 164.097C234.253 164.147 234.16 164.23 234.104 164.338Z" fill="white"/>
<path d="M278.478 126.14C278.217 126.64 278.767 127.124 279.327 126.899C279.449 126.849 279.542 126.765 279.598 126.657C279.85 126.157 279.309 125.673 278.749 125.899C278.627 125.949 278.534 126.032 278.478 126.14Z" fill="white"/>
<path d="M250.659 124.123C250.407 124.623 250.948 125.107 251.508 124.882C251.63 124.832 251.723 124.748 251.779 124.64C252.031 124.14 251.49 123.656 250.93 123.882C250.808 123.932 250.715 124.015 250.659 124.123Z" fill="white"/>
<path d="M449.077 66.9136C448.825 67.4137 449.367 67.8971 449.926 67.672C450.048 67.622 450.141 67.5387 450.197 67.4303C450.449 66.9303 449.908 66.4468 449.348 66.6719C449.227 66.7219 449.133 66.8052 449.077 66.9136Z" fill="white"/>
<path d="M389.53 91.6761C389.268 92.1762 389.819 92.6596 390.379 92.4345C390.5 92.3845 390.593 92.3012 390.649 92.1928C390.901 91.6927 390.36 91.2093 389.8 91.4344C389.679 91.4844 389.586 91.5677 389.53 91.6761Z" fill="white"/>
<path d="M491.706 85.35C491.454 85.8501 491.995 86.3335 492.555 86.1084C492.677 86.0584 492.77 85.9751 492.826 85.8667C493.087 85.3667 492.537 84.8832 491.977 85.1083C491.855 85.1583 491.762 85.2416 491.706 85.35Z" fill="white"/>
<path d="M419.401 88.9756C419.149 89.4757 419.691 89.9591 420.251 89.7341C420.372 89.684 420.465 89.6007 420.521 89.4924C420.783 88.9923 420.232 88.5089 419.672 88.7339C419.551 88.7839 419.457 88.8672 419.401 88.9756Z" fill="white"/>
<path d="M617.372 130.108C617.11 130.608 617.661 131.099 618.221 130.866C618.342 130.816 618.435 130.733 618.491 130.624C618.743 130.124 618.202 129.641 617.642 129.866C617.521 129.916 617.428 129.999 617.372 130.108Z" fill="white"/>
<path d="M587.36 138.842C587.108 139.342 587.649 139.826 588.209 139.601C588.33 139.551 588.424 139.467 588.48 139.359C588.741 138.859 588.19 138.367 587.63 138.601C587.509 138.651 587.416 138.734 587.36 138.842Z" fill="white"/>
<path d="M651.219 149.069C650.967 149.569 651.508 150.053 652.068 149.828C652.189 149.778 652.283 149.694 652.339 149.586C652.6 149.086 652.049 148.602 651.489 148.827C651.368 148.877 651.275 148.961 651.219 149.069Z" fill="white"/>
<path d="M661.111 145.46C660.859 145.96 661.4 146.444 661.96 146.219C662.081 146.169 662.175 146.085 662.231 145.977C662.492 145.477 661.941 144.993 661.382 145.218C661.26 145.268 661.167 145.352 661.111 145.46Z" fill="white"/>
<path d="M697.31 187.334C697.058 187.834 697.599 188.317 698.159 188.092C698.28 188.042 698.374 187.959 698.43 187.851C698.691 187.351 698.14 186.867 697.581 187.092C697.459 187.142 697.366 187.226 697.31 187.334Z" fill="white"/>
<path d="M701.799 259.554C701.547 260.054 702.088 260.538 702.648 260.313C702.769 260.263 702.863 260.179 702.919 260.071C703.171 259.571 702.629 259.088 702.07 259.313C701.948 259.363 701.855 259.446 701.799 259.554Z" fill="white"/>
<path d="M708.425 238.101C708.163 238.601 708.714 239.084 709.274 238.859C709.395 238.809 709.488 238.726 709.544 238.617C709.796 238.117 709.255 237.634 708.695 237.859C708.574 237.909 708.481 237.992 708.425 238.101Z" fill="white"/>
<path d="M754.301 311.53C754.049 312.03 754.59 312.513 755.15 312.288C755.271 312.238 755.365 312.155 755.421 312.047C755.682 311.546 755.131 311.063 754.572 311.288C754.45 311.338 754.357 311.421 754.301 311.53Z" fill="white"/>
<path d="M745.771 282.925C745.51 283.425 746.061 283.908 746.621 283.683C746.742 283.633 746.835 283.55 746.891 283.442C747.143 282.942 746.602 282.458 746.042 282.683C745.921 282.733 745.827 282.817 745.771 282.925Z" fill="white"/>
<path d="M747.003 322.932C746.742 323.432 747.292 323.915 747.852 323.69C747.974 323.64 748.067 323.557 748.123 323.448C748.375 322.948 747.834 322.465 747.274 322.69C747.153 322.74 747.059 322.823 747.003 322.932Z" fill="white"/>
<path d="M743.392 322.265C743.13 322.765 743.681 323.257 744.241 323.023C744.362 322.973 744.455 322.89 744.511 322.782C744.763 322.282 744.222 321.798 743.662 322.023C743.541 322.073 743.448 322.157 743.392 322.265Z" fill="white"/>
<path d="M603.084 300.77C602.823 301.27 603.373 301.753 603.933 301.528C604.055 301.478 604.148 301.395 604.204 301.286C604.456 300.786 603.915 300.303 603.355 300.528C603.234 300.578 603.14 300.661 603.084 300.77Z" fill="white"/>
<path d="M602.338 295.51C602.076 296.011 602.627 296.494 603.187 296.269C603.308 296.219 603.402 296.136 603.458 296.027C603.709 295.527 603.168 295.044 602.608 295.269C602.487 295.319 602.394 295.402 602.338 295.51Z" fill="white"/>
<path d="M519.226 293.885C518.974 294.385 519.516 294.869 520.076 294.644C520.197 294.594 520.29 294.51 520.346 294.402C520.608 293.902 520.057 293.418 519.497 293.643C519.376 293.693 519.282 293.777 519.226 293.885Z" fill="white"/>
<path d="M495.962 327.399C495.71 327.899 496.251 328.383 496.811 328.158C496.932 328.108 497.025 328.024 497.081 327.916C497.333 327.416 496.792 326.932 496.232 327.157C496.111 327.207 496.018 327.291 495.962 327.399Z" fill="white"/>
<path d="M583.729 331.942C583.468 332.442 584.019 332.925 584.579 332.7C584.7 332.65 584.793 332.567 584.849 332.458C585.101 331.958 584.56 331.475 584 331.7C583.879 331.75 583.785 331.833 583.729 331.942Z" fill="white"/>
<path d="M619.845 319.198C619.583 319.698 620.134 320.181 620.694 319.956C620.815 319.906 620.909 319.823 620.965 319.715C621.216 319.214 620.675 318.731 620.115 318.956C619.994 319.006 619.901 319.089 619.845 319.198Z" fill="white"/>
<path d="M577.356 284.342C577.104 284.842 577.645 285.325 578.205 285.1C578.326 285.05 578.42 284.967 578.476 284.859C578.728 284.359 578.186 283.875 577.626 284.1C577.505 284.15 577.412 284.234 577.356 284.342Z" fill="white"/>
<path d="M586.016 252.453C585.764 252.953 586.305 253.437 586.865 253.212C586.986 253.162 587.08 253.078 587.136 252.97C587.397 252.47 586.846 251.986 586.287 252.211C586.165 252.261 586.072 252.345 586.016 252.453Z" fill="white"/>
<path d="M541.726 257.954C541.474 258.454 542.015 258.938 542.575 258.713C542.696 258.663 542.79 258.579 542.846 258.471C543.107 257.971 542.556 257.487 541.997 257.712C541.875 257.762 541.782 257.846 541.726 257.954Z" fill="white"/>
<path d="M594.732 295.427C594.48 295.927 595.021 296.411 595.581 296.186C595.703 296.136 595.796 296.052 595.852 295.944C596.104 295.444 595.563 294.96 595.003 295.185C594.881 295.235 594.788 295.319 594.732 295.427Z" fill="white"/>
<path d="M645.349 270.248C645.097 270.748 645.639 271.231 646.198 271.006C646.32 270.956 646.413 270.873 646.469 270.765C646.73 270.264 646.18 269.781 645.62 270.006C645.499 270.056 645.405 270.139 645.349 270.248Z" fill="white"/>
<path d="M589.366 278.741C589.114 279.241 589.655 279.724 590.215 279.499C590.337 279.449 590.43 279.366 590.486 279.258C590.747 278.758 590.197 278.274 589.637 278.499C589.515 278.549 589.422 278.633 589.366 278.741Z" fill="white"/>
<path d="M643.501 248.986C643.249 249.486 643.791 249.969 644.35 249.744C644.472 249.694 644.565 249.611 644.621 249.503C644.873 249.003 644.332 248.519 643.772 248.744C643.651 248.794 643.557 248.878 643.501 248.986Z" fill="white"/>
<path d="M598.362 196.594C598.11 197.094 598.651 197.577 599.211 197.352C599.333 197.302 599.426 197.219 599.482 197.11C599.743 196.61 599.193 196.127 598.633 196.352C598.511 196.402 598.418 196.485 598.362 196.594Z" fill="white"/>
<path d="M579.595 225.357C579.334 225.857 579.885 226.34 580.445 226.115C580.566 226.065 580.659 225.982 580.715 225.874C580.967 225.374 580.426 224.89 579.866 225.115C579.745 225.165 579.651 225.249 579.595 225.357Z" fill="white"/>
<path d="M597.298 184.983C597.046 185.484 597.588 185.967 598.148 185.742C598.269 185.692 598.362 185.609 598.418 185.5C598.67 185 598.129 184.517 597.569 184.742C597.448 184.792 597.354 184.875 597.298 184.983Z" fill="white"/>
<path d="M636.642 245.96C636.39 246.46 636.931 246.944 637.491 246.719C637.613 246.669 637.706 246.586 637.762 246.477C638.023 245.977 637.473 245.494 636.913 245.719C636.791 245.769 636.698 245.852 636.642 245.96Z" fill="white"/>
<path d="M635.243 255.937C634.991 256.437 635.532 256.921 636.092 256.696C636.213 256.646 636.306 256.562 636.362 256.454C636.624 255.954 636.073 255.47 635.513 255.695C635.392 255.745 635.299 255.829 635.243 255.937Z" fill="white"/>
<path d="M629.037 230.416C628.785 230.916 629.326 231.4 629.886 231.175C630.007 231.125 630.101 231.041 630.157 230.933C630.418 230.433 629.867 229.941 629.307 230.174C629.186 230.224 629.093 230.308 629.037 230.416Z" fill="white"/>
<path d="M625.323 230.274C625.061 230.775 625.612 231.258 626.172 231.033C626.293 230.983 626.386 230.9 626.442 230.791C626.694 230.291 626.153 229.808 625.593 230.033C625.472 230.083 625.379 230.166 625.323 230.274Z" fill="white"/>
<path d="M629.821 217.189C629.569 217.689 630.11 218.172 630.67 217.947C630.791 217.897 630.884 217.814 630.94 217.706C631.202 217.206 630.651 216.722 630.091 216.947C629.97 216.997 629.877 217.081 629.821 217.189Z" fill="white"/>
<path d="M600.247 228.241C599.986 228.741 600.537 229.224 601.097 228.999C601.218 228.949 601.311 228.866 601.367 228.757C601.619 228.257 601.078 227.774 600.518 227.999C600.397 228.049 600.303 228.132 600.247 228.241Z" fill="white"/>
<path d="M610.382 216.23C610.13 216.73 610.671 217.214 611.231 216.989C611.352 216.939 611.446 216.856 611.502 216.747C611.754 216.247 611.212 215.764 610.653 215.989C610.531 216.039 610.438 216.122 610.382 216.23Z" fill="white"/>
<path d="M634.664 222.281C634.412 222.782 634.953 223.265 635.513 223.04C635.634 222.99 635.728 222.907 635.784 222.798C636.045 222.298 635.494 221.806 634.935 222.04C634.813 222.09 634.72 222.173 634.664 222.281Z" fill="white"/>
<path d="M674.736 240.159C674.475 240.66 675.025 241.151 675.585 240.918C675.706 240.868 675.8 240.785 675.856 240.676C676.108 240.176 675.566 239.693 675.006 239.918C674.885 239.968 674.792 240.051 674.736 240.159Z" fill="white"/>
<path d="M693.969 230.383C693.717 230.883 694.258 231.366 694.818 231.141C694.94 231.091 695.033 231.008 695.089 230.9C695.341 230.399 694.8 229.916 694.24 230.141C694.118 230.191 694.025 230.274 693.969 230.383Z" fill="white"/>
<path d="M695.285 213.672C695.024 214.172 695.574 214.655 696.134 214.43C696.255 214.38 696.349 214.297 696.405 214.188C696.657 213.688 696.115 213.205 695.556 213.43C695.434 213.48 695.341 213.563 695.285 213.672Z" fill="white"/>
<path d="M688.062 214.964C687.801 215.464 688.351 215.947 688.911 215.722C689.033 215.672 689.126 215.589 689.182 215.48C689.434 214.98 688.893 214.497 688.333 214.722C688.211 214.772 688.118 214.855 688.062 214.964Z" fill="white"/>
<path d="M706.045 214.063C705.793 214.563 706.334 215.047 706.894 214.822C707.016 214.772 707.109 214.688 707.165 214.58C707.426 214.08 706.876 213.597 706.316 213.822C706.194 213.872 706.101 213.955 706.045 214.063Z" fill="white"/>
<path d="M740.723 187.892C740.461 188.392 741.012 188.876 741.572 188.651C741.693 188.601 741.787 188.517 741.843 188.409C742.094 187.909 741.553 187.426 740.993 187.651C740.872 187.701 740.779 187.784 740.723 187.892Z" fill="white"/>
<path d="M744.157 183.358C743.905 183.858 744.446 184.342 745.006 184.117C745.127 184.067 745.221 183.983 745.277 183.875C745.538 183.375 744.987 182.883 744.427 183.117C744.306 183.167 744.213 183.25 744.157 183.358Z" fill="white"/>
<path d="M760.264 208.387C760.012 208.888 760.553 209.371 761.113 209.146C761.235 209.096 761.328 209.013 761.384 208.904C761.645 208.404 761.095 207.921 760.535 208.146C760.413 208.196 760.32 208.279 760.264 208.387Z" fill="white"/>
<path d="M755.253 240.443C754.992 240.943 755.542 241.426 756.102 241.201C756.223 241.151 756.317 241.068 756.373 240.96C756.625 240.459 756.083 239.976 755.524 240.201C755.402 240.251 755.309 240.334 755.253 240.443Z" fill="white"/>
<path d="M763.288 259.788C763.036 260.288 763.577 260.771 764.137 260.546C764.258 260.496 764.352 260.413 764.408 260.304C764.66 259.804 764.118 259.321 763.558 259.546C763.437 259.596 763.344 259.679 763.288 259.788Z" fill="white"/>
<path d="M678.758 306.346C678.506 306.846 679.047 307.329 679.607 307.104C679.728 307.054 679.822 306.971 679.878 306.862C680.13 306.362 679.588 305.879 679.029 306.104C678.907 306.154 678.814 306.237 678.758 306.346Z" fill="white"/>
<path d="M501.141 259.096C500.889 259.596 501.43 260.079 501.99 259.854C502.111 259.804 502.205 259.721 502.261 259.613C502.513 259.113 501.971 258.629 501.411 258.854C501.29 258.904 501.197 258.988 501.141 259.096Z" fill="white"/>
<path d="M448.359 220.023C448.107 220.523 448.648 221.006 449.208 220.781C449.329 220.731 449.423 220.648 449.479 220.539C449.731 220.039 449.189 219.556 448.629 219.781C448.508 219.831 448.415 219.914 448.359 220.023Z" fill="white"/>
<path d="M412.244 203.628C411.992 204.128 412.533 204.612 413.093 204.387C413.214 204.337 413.308 204.253 413.364 204.145C413.625 203.645 413.074 203.162 412.514 203.387C412.393 203.437 412.3 203.52 412.244 203.628Z" fill="white"/>
<path d="M398.05 171.923C397.798 172.423 398.339 172.906 398.899 172.681C399.02 172.631 399.113 172.548 399.169 172.44C399.431 171.94 398.88 171.456 398.32 171.681C398.199 171.731 398.106 171.815 398.05 171.923Z" fill="white"/>
<path d="M396.808 147.252C396.547 147.752 397.098 148.236 397.658 148.011C397.779 147.961 397.872 147.877 397.928 147.769C398.18 147.269 397.639 146.785 397.079 147.01C396.958 147.06 396.864 147.144 396.808 147.252Z" fill="white"/>
<path d="M378.975 164.622C378.723 165.122 379.264 165.605 379.824 165.38C379.945 165.33 380.039 165.247 380.095 165.138C380.356 164.638 379.805 164.155 379.246 164.38C379.124 164.43 379.031 164.513 378.975 164.622Z" fill="white"/>
<path d="M448.489 154.437C448.237 154.937 448.779 155.42 449.339 155.195C449.46 155.145 449.553 155.062 449.609 154.953C449.87 154.453 449.32 153.97 448.76 154.195C448.639 154.245 448.545 154.328 448.489 154.437Z" fill="white"/>
<path d="M518.302 146.869C518.041 147.369 518.592 147.852 519.152 147.627C519.273 147.577 519.366 147.494 519.422 147.385C519.674 146.885 519.133 146.402 518.573 146.627C518.452 146.677 518.358 146.76 518.302 146.869Z" fill="white"/>
<path d="M534.4 137.725C534.139 138.226 534.69 138.709 535.25 138.484C535.371 138.434 535.464 138.351 535.52 138.242C535.772 137.742 535.231 137.259 534.671 137.484C534.55 137.534 534.456 137.617 534.4 137.725Z" fill="white"/>
<path d="M551.198 102.77C550.946 103.27 551.487 103.753 552.047 103.528C552.169 103.478 552.262 103.395 552.318 103.286C552.57 102.786 552.029 102.303 551.469 102.528C551.347 102.578 551.254 102.661 551.198 102.77Z" fill="white"/>
<path d="M525.619 140.059C525.367 140.559 525.908 141.043 526.468 140.818C526.589 140.768 526.683 140.684 526.739 140.576C526.991 140.076 526.449 139.592 525.889 139.818C525.768 139.868 525.675 139.951 525.619 140.059Z" fill="white"/>
<path d="M502.009 180.008C501.757 180.508 502.298 180.991 502.858 180.766C502.979 180.716 503.072 180.633 503.128 180.524C503.39 180.024 502.839 179.533 502.279 179.766C502.158 179.816 502.065 179.899 502.009 180.008Z" fill="white"/>
<path d="M431.458 159.062C431.197 159.563 431.748 160.046 432.307 159.821C432.429 159.771 432.522 159.688 432.578 159.579C432.83 159.079 432.289 158.596 431.729 158.821C431.608 158.871 431.514 158.954 431.458 159.062Z" fill="white"/>
<path d="M367.207 131.441C366.955 131.941 367.496 132.425 368.056 132.2C368.178 132.15 368.271 132.066 368.327 131.958C368.588 131.458 368.038 130.974 367.478 131.199C367.356 131.249 367.263 131.333 367.207 131.441Z" fill="white"/>
<path d="M319.819 149.402C319.567 149.903 320.108 150.386 320.668 150.161C320.789 150.111 320.883 150.028 320.939 149.919C321.191 149.419 320.649 148.936 320.09 149.161C319.968 149.211 319.875 149.294 319.819 149.402Z" fill="white"/>
<path d="M318.326 143.668C318.074 144.168 318.615 144.652 319.175 144.427C319.296 144.377 319.39 144.293 319.446 144.185C319.698 143.685 319.156 143.201 318.596 143.426C318.475 143.476 318.382 143.56 318.326 143.668Z" fill="white"/>
<path d="M351.707 81.7994C351.445 82.2995 351.996 82.7829 352.556 82.5578C352.677 82.5078 352.77 82.4245 352.826 82.3161C353.078 81.8161 352.537 81.3326 351.977 81.5577C351.856 81.6077 351.763 81.691 351.707 81.7994Z" fill="white"/>
<path d="M336.047 65.2383C335.795 65.7384 336.337 66.2218 336.897 65.9968C337.018 65.9467 337.111 65.8634 337.167 65.755C337.419 65.255 336.878 64.7715 336.318 64.9966C336.197 65.0466 336.103 65.1299 336.047 65.2383Z" fill="white"/>
<path d="M243.455 127.465C243.194 127.966 243.744 128.449 244.304 128.224C244.425 128.174 244.519 128.091 244.575 127.982C244.827 127.482 244.285 126.999 243.725 127.224C243.604 127.274 243.511 127.357 243.455 127.465Z" fill="white"/>
<path d="M282.313 188.626C282.052 189.126 282.603 189.609 283.163 189.384C283.284 189.334 283.377 189.251 283.433 189.143C283.685 188.642 283.144 188.159 282.584 188.384C282.463 188.434 282.369 188.517 282.313 188.626Z" fill="white"/>
<path d="M346.863 221.223C346.602 221.723 347.153 222.206 347.713 221.981C347.834 221.931 347.927 221.848 347.983 221.74C348.235 221.24 347.694 220.756 347.134 220.981C347.013 221.031 346.919 221.115 346.863 221.223Z" fill="white"/>
<path d="M334.722 187.792C334.47 188.292 335.012 188.776 335.571 188.551C335.693 188.501 335.786 188.417 335.842 188.309C336.103 187.809 335.553 187.326 334.993 187.551C334.872 187.601 334.778 187.684 334.722 187.792Z" fill="white"/>
<path d="M294.464 205.945C294.212 206.445 294.753 206.929 295.313 206.704C295.434 206.654 295.528 206.57 295.584 206.462C295.836 205.962 295.294 205.479 294.734 205.704C294.613 205.754 294.52 205.837 294.464 205.945Z" fill="white"/>
<path d="M293.297 238.593C293.036 239.093 293.587 239.576 294.147 239.351C294.268 239.301 294.361 239.218 294.417 239.109C294.669 238.609 294.128 238.126 293.568 238.351C293.447 238.401 293.353 238.484 293.297 238.593Z" fill="white"/>
<path d="M312.596 253.245C312.335 253.745 312.885 254.228 313.445 254.003C313.566 253.953 313.66 253.87 313.716 253.762C313.968 253.262 313.427 252.778 312.867 253.003C312.745 253.053 312.652 253.137 312.596 253.245Z" fill="white"/>
<path d="M321.62 274.899C321.368 275.399 321.909 275.882 322.469 275.657C322.59 275.607 322.684 275.524 322.74 275.415C323.001 274.915 322.45 274.424 321.891 274.657C321.769 274.707 321.676 274.79 321.62 274.899Z" fill="white"/>
<path d="M285.888 289.676C285.636 290.176 286.177 290.66 286.737 290.435C286.858 290.385 286.951 290.301 287.007 290.193C287.259 289.693 286.718 289.209 286.158 289.434C286.037 289.484 285.944 289.568 285.888 289.676Z" fill="white"/>
<path d="M251.667 223.04C251.415 223.54 251.956 224.023 252.516 223.798C252.637 223.748 252.731 223.665 252.787 223.557C253.039 223.057 252.497 222.573 251.937 222.798C251.816 222.848 251.723 222.932 251.667 223.04Z" fill="white"/>
<path d="M237.659 226.215C237.398 226.715 237.949 227.199 238.509 226.974C238.63 226.924 238.723 226.841 238.779 226.732C239.031 226.232 238.49 225.749 237.93 225.974C237.809 226.024 237.715 226.107 237.659 226.215Z" fill="white"/>
<path d="M189.049 245.31C188.797 245.81 189.338 246.294 189.898 246.069C190.019 246.019 190.113 245.935 190.169 245.827C190.421 245.327 189.879 244.844 189.32 245.069C189.198 245.119 189.105 245.202 189.049 245.31Z" fill="white"/>
<path d="M166.615 256.571C166.353 257.071 166.904 257.554 167.464 257.329C167.585 257.279 167.678 257.196 167.734 257.087C167.986 256.587 167.445 256.104 166.885 256.329C166.764 256.379 166.67 256.462 166.615 256.571Z" fill="white"/>
<path d="M201.768 266.147C201.516 266.647 202.058 267.131 202.618 266.906C202.739 266.856 202.832 266.772 202.888 266.664C203.15 266.164 202.599 265.68 202.039 265.905C201.918 265.955 201.824 266.039 201.768 266.147Z" fill="white"/>
<path d="M310.123 281.375C309.871 281.875 310.412 282.358 310.972 282.133C311.093 282.083 311.187 282 311.243 281.892C311.495 281.391 310.953 280.908 310.393 281.133C310.272 281.183 310.179 281.266 310.123 281.375Z" fill="white"/>
<path d="M295.742 287.542C295.49 288.042 296.032 288.526 296.591 288.301C296.713 288.251 296.806 288.168 296.862 288.059C297.114 287.559 296.573 287.076 296.013 287.301C295.892 287.351 295.798 287.434 295.742 287.542Z" fill="white"/>
<path d="M233.581 247.486C233.329 247.986 233.871 248.469 234.431 248.244C234.552 248.194 234.645 248.111 234.701 248.002C234.953 247.502 234.412 247.019 233.852 247.244C233.731 247.294 233.637 247.377 233.581 247.486Z" fill="white"/>
<path d="M197.14 217.331C196.888 217.831 197.429 218.314 197.989 218.089C198.11 218.039 198.204 217.956 198.26 217.847C198.512 217.347 197.97 216.864 197.41 217.089C197.289 217.139 197.196 217.222 197.14 217.331Z" fill="white"/>
<path d="M186.94 204.87C186.688 205.37 187.229 205.854 187.789 205.629C187.91 205.579 188.004 205.495 188.06 205.387C188.321 204.887 187.77 204.403 187.21 204.628C187.089 204.678 186.996 204.762 186.94 204.87Z" fill="white"/>
<path d="M218.687 153.186C218.426 153.687 218.977 154.17 219.537 153.945C219.658 153.895 219.751 153.812 219.807 153.703C220.059 153.203 219.518 152.72 218.958 152.945C218.837 152.995 218.743 153.078 218.687 153.186Z" fill="white"/>
<path d="M231.23 200.894C230.978 201.395 231.519 201.878 232.079 201.653C232.2 201.603 232.294 201.52 232.35 201.411C232.602 200.911 232.06 200.428 231.5 200.653C231.379 200.703 231.286 200.786 231.23 200.894Z" fill="white"/>
<path d="M179.651 139.501C179.399 140.001 179.941 140.484 180.501 140.259C180.622 140.209 180.715 140.126 180.771 140.018C181.033 139.517 180.482 139.034 179.922 139.259C179.801 139.309 179.707 139.392 179.651 139.501Z" fill="white"/>
<path d="M175.34 144.785C175.088 145.285 175.629 145.769 176.189 145.544C176.31 145.494 176.404 145.41 176.46 145.302C176.712 144.802 176.17 144.318 175.611 144.543C175.489 144.593 175.396 144.677 175.34 144.785Z" fill="white"/>
<path d="M141.045 207.796C140.783 208.296 141.334 208.779 141.894 208.554C142.015 208.504 142.109 208.421 142.165 208.312C142.416 207.812 141.875 207.329 141.315 207.554C141.194 207.604 141.101 207.687 141.045 207.796Z" fill="white"/>
<path d="M156.909 211.98C156.657 212.48 157.199 212.963 157.758 212.738C157.88 212.688 157.973 212.605 158.029 212.496C158.281 211.996 157.74 211.513 157.18 211.738C157.059 211.788 156.965 211.871 156.909 211.98Z" fill="white"/>
<path d="M170.189 190.751C169.937 191.251 170.478 191.735 171.038 191.51C171.159 191.46 171.253 191.376 171.309 191.268C171.561 190.768 171.019 190.284 170.459 190.509C170.338 190.559 170.245 190.643 170.189 190.751Z" fill="white"/>
<path d="M169.144 178.074C168.892 178.574 169.433 179.057 169.993 178.832C170.114 178.782 170.207 178.699 170.263 178.591C170.525 178.091 169.974 177.607 169.414 177.832C169.293 177.882 169.2 177.966 169.144 178.074Z" fill="white"/>
<path d="M145.505 173.373C145.253 173.873 145.795 174.357 146.355 174.132C146.476 174.082 146.569 173.998 146.625 173.89C146.877 173.39 146.336 172.906 145.776 173.131C145.655 173.181 145.561 173.265 145.505 173.373Z" fill="white"/>
<path d="M122.343 240.701C122.082 241.201 122.633 241.685 123.192 241.46C123.314 241.41 123.407 241.326 123.463 241.218C123.715 240.718 123.174 240.234 122.614 240.459C122.493 240.509 122.399 240.593 122.343 240.701Z" fill="white"/>
<path d="M138.842 282.258C138.581 282.758 139.132 283.25 139.692 283.017C139.813 282.967 139.906 282.883 139.962 282.775C140.214 282.275 139.673 281.791 139.113 282.016C138.992 282.066 138.898 282.15 138.842 282.258Z" fill="white"/>
<path d="M151.562 289.609C151.301 290.109 151.851 290.593 152.411 290.368C152.533 290.318 152.626 290.234 152.682 290.126C152.934 289.626 152.393 289.143 151.833 289.368C151.711 289.418 151.618 289.501 151.562 289.609Z" fill="white"/>
<path d="M175.844 307.671C175.592 308.171 176.133 308.654 176.693 308.429C176.814 308.379 176.908 308.296 176.964 308.188C177.225 307.687 176.674 307.204 176.114 307.429C175.993 307.479 175.9 307.562 175.844 307.671Z" fill="white"/>
<path d="M197.83 310.455C197.578 310.955 198.12 311.438 198.68 311.213C198.801 311.163 198.894 311.08 198.95 310.971C199.202 310.471 198.661 309.988 198.101 310.213C197.98 310.263 197.886 310.346 197.83 310.455Z" fill="white"/>
<path d="M204.437 315.28C204.185 315.78 204.727 316.264 205.287 316.039C205.408 315.989 205.501 315.906 205.557 315.797C205.818 315.297 205.268 314.814 204.708 315.039C204.587 315.089 204.493 315.172 204.437 315.28Z" fill="white"/>
<path d="M211.726 332.45C211.474 332.95 212.015 333.433 212.575 333.208C212.696 333.158 212.79 333.075 212.846 332.967C213.097 332.467 212.556 331.983 211.996 332.208C211.875 332.258 211.782 332.342 211.726 332.45Z" fill="white"/>
<path d="M239.181 344.977C238.929 345.477 239.47 345.961 240.03 345.736C240.151 345.686 240.245 345.602 240.301 345.494C240.562 344.994 240.011 344.51 239.451 344.735C239.33 344.785 239.237 344.869 239.181 344.977Z" fill="white"/>
<path d="M251.844 355.012C251.592 355.512 252.134 355.996 252.694 355.771C252.815 355.721 252.908 355.637 252.964 355.529C253.225 355.029 252.675 354.545 252.115 354.77C251.994 354.82 251.9 354.904 251.844 355.012Z" fill="white"/>
<path d="M316.683 352.237C316.431 352.737 316.973 353.22 317.533 352.995C317.654 352.945 317.747 352.862 317.803 352.753C318.065 352.253 317.514 351.77 316.954 351.995C316.833 352.045 316.739 352.128 316.683 352.237Z" fill="white"/>
<path d="M380.645 353.429C380.393 353.929 380.935 354.412 381.495 354.187C381.616 354.137 381.709 354.054 381.765 353.945C382.017 353.445 381.476 352.962 380.916 353.187C380.795 353.237 380.701 353.32 380.645 353.429Z" fill="white"/>
<path d="M770.52 354.604C770.268 355.104 770.809 355.587 771.369 355.362C771.491 355.312 771.584 355.229 771.64 355.121C771.892 354.62 771.351 354.137 770.791 354.362C770.669 354.412 770.576 354.495 770.52 354.604Z" fill="white"/>
<path d="M792.488 302.687C792.236 303.187 792.777 303.67 793.337 303.445C793.458 303.395 793.551 303.312 793.607 303.203C793.869 302.703 793.318 302.212 792.758 302.445C792.637 302.495 792.544 302.578 792.488 302.687Z" fill="white"/>
<path d="M792.824 282.275C792.572 282.775 793.113 283.258 793.673 283.033C793.794 282.983 793.887 282.9 793.943 282.792C794.195 282.292 793.654 281.808 793.094 282.033C792.973 282.083 792.88 282.167 792.824 282.275Z" fill="white"/>
<path d="M688.893 252.578C688.641 253.078 689.182 253.562 689.742 253.337C689.863 253.287 689.957 253.203 690.013 253.095C690.274 252.595 689.723 252.111 689.163 252.336C689.042 252.386 688.949 252.47 688.893 252.578Z" fill="white"/>
<path d="M512.853 299.745C512.591 300.245 513.142 300.736 513.702 300.503C513.823 300.453 513.916 300.37 513.972 300.261C514.224 299.761 513.683 299.278 513.123 299.503C513.002 299.553 512.909 299.636 512.853 299.745Z" fill="white"/>
<path d="M455.927 314.322C455.666 314.822 456.216 315.314 456.776 315.08C456.898 315.03 456.991 314.947 457.047 314.839C457.299 314.339 456.758 313.855 456.198 314.08C456.076 314.13 455.983 314.214 455.927 314.322Z" fill="white"/>
<path d="M424.189 288.418C423.937 288.918 424.478 289.401 425.038 289.176C425.159 289.126 425.252 289.043 425.308 288.934C425.57 288.434 425.019 287.951 424.459 288.176C424.338 288.226 424.245 288.309 424.189 288.418Z" fill="white"/>
<path d="M524.751 337.718C524.49 338.218 525.04 338.701 525.6 338.476C525.721 338.426 525.815 338.343 525.871 338.234C526.123 337.734 525.582 337.251 525.022 337.476C524.9 337.526 524.807 337.609 524.751 337.718Z" fill="white"/>
<path d="M547.885 287.292C547.633 287.792 548.174 288.276 548.734 288.051C548.856 288.001 548.949 287.917 549.005 287.809C549.257 287.309 548.716 286.826 548.156 287.051C548.034 287.101 547.941 287.184 547.885 287.292Z" fill="white"/>
<path d="M444.868 230.908C444.617 231.408 445.158 231.891 445.718 231.666C445.839 231.616 445.932 231.533 445.988 231.425C446.24 230.925 445.699 230.441 445.139 230.666C445.018 230.716 444.924 230.8 444.868 230.908Z" fill="white"/>
<path d="M408.287 277.124C408.035 277.624 408.576 278.108 409.136 277.882C409.257 277.832 409.351 277.749 409.407 277.641C409.668 277.141 409.117 276.649 408.558 276.882C408.436 276.932 408.343 277.016 408.287 277.124Z" fill="white"/>
<path d="M503.894 212.772C503.633 213.272 504.183 213.763 504.743 213.53C504.864 213.48 504.958 213.397 505.014 213.288C505.266 212.788 504.724 212.305 504.164 212.53C504.043 212.58 503.95 212.663 503.894 212.772Z" fill="white"/>
<path d="M516.865 238.701C516.613 239.201 517.155 239.684 517.715 239.459C517.836 239.409 517.929 239.326 517.985 239.218C518.246 238.717 517.696 238.234 517.136 238.459C517.015 238.509 516.921 238.592 516.865 238.701Z" fill="white"/>
<path d="M547.801 225.224C547.54 225.724 548.091 226.207 548.65 225.982C548.772 225.932 548.865 225.849 548.921 225.74C549.173 225.24 548.632 224.757 548.072 224.982C547.951 225.032 547.857 225.115 547.801 225.224Z" fill="white"/>
<path d="M488.561 190.143C488.3 190.643 488.851 191.126 489.41 190.901C489.532 190.851 489.625 190.768 489.681 190.659C489.933 190.159 489.392 189.676 488.832 189.901C488.711 189.951 488.617 190.034 488.561 190.143Z" fill="white"/>
<path d="M438.635 153.036C438.383 153.536 438.924 154.02 439.484 153.795C439.605 153.745 439.698 153.661 439.754 153.553C440.016 153.053 439.465 152.57 438.905 152.795C438.784 152.845 438.691 152.928 438.635 153.036Z" fill="white"/>
<path d="M423.218 105.845C422.957 106.345 423.508 106.829 424.067 106.604C424.189 106.554 424.282 106.47 424.338 106.362C424.59 105.862 424.049 105.378 423.489 105.603C423.368 105.653 423.274 105.737 423.218 105.845Z" fill="white"/>
<path d="M438.588 115.097C438.336 115.597 438.877 116.08 439.437 115.855C439.559 115.805 439.652 115.722 439.708 115.613C439.96 115.113 439.419 114.63 438.859 114.855C438.737 114.905 438.644 114.988 438.588 115.097Z" fill="white"/>
<path d="M472.407 129.024C472.146 129.524 472.697 130.008 473.257 129.783C473.378 129.733 473.471 129.649 473.527 129.541C473.779 129.041 473.238 128.557 472.678 128.782C472.557 128.832 472.463 128.916 472.407 129.024Z" fill="white"/>
<path d="M476.047 142.318C475.786 142.818 476.336 143.301 476.896 143.076C477.017 143.026 477.111 142.943 477.167 142.835C477.419 142.335 476.877 141.851 476.318 142.076C476.196 142.126 476.103 142.21 476.047 142.318Z" fill="white"/>
<path d="M481.879 153.795C481.628 154.295 482.169 154.778 482.729 154.553C482.85 154.503 482.943 154.42 482.999 154.312C483.251 153.812 482.71 153.328 482.15 153.553C482.029 153.603 481.935 153.687 481.879 153.795Z" fill="white"/>
<path d="M481.581 117.964C481.32 118.464 481.87 118.947 482.43 118.722C482.551 118.672 482.645 118.589 482.701 118.481C482.953 117.98 482.411 117.497 481.851 117.722C481.73 117.772 481.637 117.855 481.581 117.964Z" fill="white"/>
<path d="M474.022 100.328C473.77 100.828 474.311 101.311 474.871 101.086C474.992 101.036 475.086 100.953 475.142 100.844C475.394 100.344 474.852 99.8608 474.292 100.086C474.171 100.136 474.078 100.219 474.022 100.328Z" fill="white"/>
<path d="M459.455 90.3259C459.203 90.8259 459.744 91.3093 460.304 91.0843C460.425 91.0343 460.519 90.951 460.575 90.8426C460.826 90.3425 460.285 89.8591 459.725 90.0841C459.604 90.1341 459.511 90.2175 459.455 90.3259Z" fill="white"/>
<path d="M448.303 74.5815C448.041 75.0816 448.592 75.565 449.152 75.34C449.273 75.29 449.367 75.2066 449.423 75.0983C449.675 74.5982 449.133 74.1148 448.573 74.3398C448.452 74.3898 448.359 74.4732 448.303 74.5815Z" fill="white"/>
<path d="M501.421 58.3455C501.16 58.8456 501.71 59.329 502.27 59.1039C502.391 59.0539 502.485 58.9706 502.541 58.8622C502.793 58.3621 502.251 57.8787 501.692 58.1038C501.57 58.1538 501.477 58.2371 501.421 58.3455Z" fill="white"/>
<path d="M427.343 56.1201C427.091 56.6201 427.632 57.1036 428.192 56.8785C428.313 56.8285 428.407 56.7452 428.463 56.6368C428.715 56.1367 428.173 55.6533 427.613 55.8784C427.492 55.9284 427.399 56.0117 427.343 56.1201Z" fill="white"/>
<path d="M416.275 53.0279C416.023 53.528 416.564 54.0114 417.124 53.7864C417.246 53.7364 417.339 53.653 417.395 53.5447C417.656 53.0446 417.106 52.5612 416.546 52.7862C416.424 52.8362 416.331 52.9196 416.275 53.0279Z" fill="white"/>
<path d="M360.796 67.322C360.544 67.8221 361.085 68.3055 361.645 68.0804C361.767 68.0304 361.86 67.9471 361.916 67.8387C362.168 67.3386 361.627 66.8552 361.067 67.0803C360.945 67.1303 360.852 67.2136 360.796 67.322Z" fill="white"/>
<path d="M332.146 108.237C331.885 108.737 332.436 109.221 332.996 108.996C333.117 108.946 333.21 108.862 333.266 108.754C333.518 108.254 332.977 107.77 332.417 107.995C332.296 108.045 332.202 108.129 332.146 108.237Z" fill="white"/>
<path d="M323.72 101.528C323.468 102.028 324.009 102.511 324.569 102.286C324.69 102.236 324.784 102.153 324.84 102.044C325.101 101.544 324.55 101.053 323.99 101.286C323.869 101.336 323.776 101.419 323.72 101.528Z" fill="white"/>
<path d="M277.479 69.4307C277.227 69.9308 277.769 70.4142 278.329 70.1891C278.45 70.1391 278.543 70.0558 278.599 69.9474C278.851 69.4473 278.31 68.9639 277.75 69.189C277.629 69.239 277.535 69.3223 277.479 69.4307Z" fill="white"/>
<path d="M221.384 43.6013C221.123 44.1014 221.674 44.5848 222.233 44.3598C222.355 44.3098 222.448 44.2264 222.504 44.1181C222.756 43.618 222.215 43.1346 221.655 43.3596C221.534 43.4096 221.44 43.4929 221.384 43.6013Z" fill="white"/>
<path d="M222.71 17.2719C222.458 17.7719 222.999 18.2554 223.559 18.0303C223.68 17.9803 223.773 17.897 223.829 17.7886C224.081 17.2885 223.54 16.8051 222.98 17.0302C222.859 17.0802 222.766 17.1635 222.71 17.2719Z" fill="white"/>
<path d="M165.112 74.4898C164.86 74.9899 165.401 75.4733 165.961 75.2483C166.083 75.1983 166.176 75.1149 166.232 75.0066C166.493 74.5065 165.943 74.0231 165.383 74.2481C165.261 74.2981 165.168 74.3815 165.112 74.4898Z" fill="white"/>
<path d="M152.98 82.4912C152.719 82.9913 153.27 83.4747 153.83 83.2497C153.951 83.1996 154.044 83.1163 154.1 83.0079C154.352 82.5079 153.811 82.0244 153.251 82.2495C153.13 82.2995 153.036 82.3828 152.98 82.4912Z" fill="white"/>
<path d="M130.966 60.9125C130.714 61.4126 131.255 61.896 131.815 61.671C131.937 61.621 132.03 61.5376 132.086 61.4293C132.347 60.9292 131.797 60.4458 131.237 60.6708C131.115 60.7209 131.022 60.8042 130.966 60.9125Z" fill="white"/>
<path d="M157.105 41.7927C156.853 42.2928 157.395 42.7762 157.955 42.5511C158.076 42.5011 158.169 42.4178 158.225 42.3094C158.477 41.8093 157.936 41.3259 157.376 41.551C157.255 41.601 157.161 41.6843 157.105 41.7927Z" fill="white"/>
<path d="M136.537 4.18632C136.276 4.68641 136.827 5.16982 137.387 4.94478C137.508 4.89477 137.601 4.81143 137.657 4.70308C137.909 4.20299 137.368 3.71958 136.808 3.94461C136.687 3.99462 136.593 4.07797 136.537 4.18632Z" fill="white"/>
<path d="M67.228 20.5724C66.9667 21.0725 67.5173 21.5559 68.0772 21.3309C68.1986 21.2809 68.2919 21.1975 68.3479 21.0892C68.5998 20.5891 68.0586 20.1057 67.4987 20.3307C67.3773 20.3807 67.284 20.4641 67.228 20.5724Z" fill="white"/>
<path d="M68.2547 33.958C68.0028 34.4581 68.544 34.9415 69.1039 34.7165C69.2253 34.6665 69.3186 34.5831 69.3746 34.4748C69.6265 33.9747 69.0853 33.4913 68.5254 33.7163C68.404 33.7663 68.3107 33.8497 68.2547 33.958Z" fill="white"/>
<path d="M8.08163 121.073C7.82966 121.573 8.37092 122.056 8.93084 121.831C9.05216 121.781 9.14548 121.698 9.20147 121.589C9.45344 121.089 8.91218 120.606 8.35226 120.831C8.23094 120.881 8.13762 120.964 8.08163 121.073Z" fill="white"/>
<path d="M25.5604 154.362C25.3084 154.862 25.8497 155.345 26.4096 155.12C26.5309 155.07 26.6242 154.987 26.6802 154.878C26.9322 154.378 26.3909 153.895 25.831 154.12C25.7097 154.17 25.6164 154.253 25.5604 154.362Z" fill="white"/>
<path d="M41.1637 136.967C40.9117 137.467 41.453 137.951 42.0129 137.726C42.1342 137.676 42.2275 137.592 42.2835 137.484C42.5448 136.984 41.9942 136.5 41.4343 136.725C41.313 136.775 41.2196 136.859 41.1637 136.967Z" fill="white"/>
<path d="M22.2849 201.378C22.0236 201.878 22.5742 202.361 23.1341 202.136C23.2554 202.086 23.3488 202.003 23.4048 201.895C23.6567 201.395 23.1155 200.911 22.5555 201.136C22.4342 201.186 22.3409 201.27 22.2849 201.378Z" fill="white"/>
<path d="M12.9062 245.035C12.645 245.535 13.1955 246.019 13.7555 245.794C13.8768 245.744 13.9701 245.66 14.0261 245.552C14.2781 245.052 13.7368 244.569 13.1769 244.794C13.0556 244.844 12.9622 244.927 12.9062 245.035Z" fill="white"/>
<path d="M28.5374 263.247C28.2855 263.747 28.8267 264.23 29.3867 264.005C29.508 263.955 29.6013 263.872 29.6573 263.763C29.9092 263.263 29.368 262.78 28.8081 263.005C28.6868 263.055 28.5934 263.138 28.5374 263.247Z" fill="white"/>
<path d="M46.3617 236.3C46.1097 236.801 46.6509 237.284 47.2109 237.059C47.3322 237.009 47.4255 236.926 47.4815 236.817C47.7335 236.317 47.1922 235.834 46.6323 236.059C46.511 236.109 46.4176 236.192 46.3617 236.3Z" fill="white"/>
<path d="M46.1751 232.483C45.9232 232.983 46.4644 233.467 47.0243 233.242C47.1457 233.192 47.239 233.108 47.295 233C47.5563 232.5 47.0057 232.008 46.4458 232.241C46.3244 232.291 46.2311 232.375 46.1751 232.483Z" fill="white"/>
<path d="M85.5936 305.504C85.3416 306.004 85.8829 306.487 86.4428 306.262C86.5641 306.212 86.6574 306.129 86.7134 306.021C86.9654 305.52 86.4241 305.037 85.8642 305.262C85.7429 305.312 85.6496 305.395 85.5936 305.504Z" fill="white"/>
<path d="M52.8848 319.423C52.6235 319.923 53.1741 320.406 53.734 320.181C53.8553 320.131 53.9486 320.048 54.0046 319.94C54.2566 319.439 53.7153 318.956 53.1554 319.181C53.0341 319.231 52.9408 319.314 52.8848 319.423Z" fill="white"/>
<path d="M46.8748 299.928C46.6229 300.428 47.1641 300.911 47.7241 300.686C47.8454 300.636 47.9387 300.553 47.9947 300.445C48.2467 299.945 47.7054 299.461 47.1455 299.686C47.0242 299.736 46.9308 299.82 46.8748 299.928Z" fill="white"/>
<path d="M168.91 328.399C168.658 328.899 169.2 329.383 169.759 329.158C169.881 329.108 169.974 329.024 170.03 328.916C170.291 328.416 169.741 327.933 169.181 328.158C169.06 328.208 168.966 328.291 168.91 328.399Z" fill="white"/>
<path d="M155.547 313.022C155.295 313.522 155.836 314.005 156.396 313.78C156.517 313.73 156.611 313.647 156.667 313.538C156.928 313.038 156.377 312.555 155.817 312.78C155.696 312.83 155.603 312.913 155.547 313.022Z" fill="white"/>
<path d="M116.8 312.38C116.539 312.88 117.089 313.363 117.649 313.138C117.771 313.088 117.864 313.005 117.92 312.897C118.172 312.397 117.631 311.913 117.071 312.138C116.949 312.188 116.856 312.272 116.8 312.38Z" fill="white"/>
<path d="M121.345 314.43C121.093 314.93 121.634 315.414 122.194 315.189C122.315 315.139 122.409 315.055 122.465 314.947C122.726 314.447 122.175 313.964 121.615 314.189C121.494 314.239 121.401 314.322 121.345 314.43Z" fill="white"/>
<path d="M244.687 290.001C244.425 290.501 244.976 290.993 245.536 290.76C245.657 290.71 245.75 290.626 245.806 290.518C246.058 290.018 245.517 289.534 244.957 289.759C244.836 289.809 244.743 289.893 244.687 290.001Z" fill="white"/>
<path d="M278.021 264.997C277.769 265.497 278.31 265.98 278.87 265.755C278.991 265.705 279.084 265.622 279.14 265.514C279.402 265.014 278.851 264.53 278.291 264.755C278.17 264.805 278.077 264.889 278.021 264.997Z" fill="white"/>
<path d="M291.421 259.013C291.16 259.513 291.711 259.996 292.271 259.771C292.392 259.721 292.485 259.638 292.541 259.529C292.793 259.029 292.252 258.546 291.692 258.771C291.571 258.821 291.477 258.904 291.421 259.013Z" fill="white"/>
<path d="M287.129 252.737C286.877 253.237 287.418 253.72 287.978 253.495C288.099 253.445 288.193 253.362 288.249 253.253C288.501 252.753 287.959 252.27 287.399 252.495C287.278 252.545 287.185 252.628 287.129 252.737Z" fill="white"/>
<path d="M351.996 265.764C351.744 266.264 352.285 266.747 352.845 266.522C352.966 266.472 353.06 266.389 353.116 266.281C353.368 265.78 352.826 265.297 352.267 265.522C352.145 265.572 352.052 265.655 351.996 265.764Z" fill="white"/>
<path d="M357.278 294.077C357.026 294.577 357.567 295.06 358.127 294.835C358.248 294.785 358.342 294.702 358.398 294.594C358.659 294.094 358.108 293.61 357.549 293.835C357.427 293.885 357.334 293.969 357.278 294.077Z" fill="white"/>
<path d="M358.342 312.78C358.08 313.28 358.631 313.772 359.191 313.538C359.312 313.488 359.406 313.405 359.462 313.297C359.714 312.797 359.172 312.313 358.612 312.538C358.491 312.588 358.398 312.672 358.342 312.78Z" fill="white"/>
<path d="M379.544 303.32C379.292 303.82 379.833 304.304 380.393 304.079C380.515 304.029 380.608 303.945 380.664 303.837C380.916 303.337 380.375 302.853 379.815 303.078C379.693 303.128 379.6 303.212 379.544 303.32Z" fill="white"/>
<path d="M409.827 229.633C409.575 230.133 410.116 230.616 410.676 230.391C410.797 230.341 410.891 230.258 410.947 230.149C411.208 229.649 410.657 229.166 410.097 229.391C409.976 229.441 409.883 229.524 409.827 229.633Z" fill="white"/>
<path d="M413.476 216.197C413.214 216.697 413.765 217.189 414.325 216.956C414.446 216.905 414.539 216.822 414.595 216.714C414.847 216.214 414.306 215.73 413.746 215.955C413.625 216.005 413.532 216.089 413.476 216.197Z" fill="white"/>
</g>
<defs>
<clipPath id="clip0_17_2636">
<rect width="800" height="445" fill="white" transform="translate(0 -63)"/>
</clipPath>
</defs>
</svg>
